<svg width="49" height="49" viewBox="0 0 49 49" fill="none" xmlns="http://www.w3.org/2000/svg">
<path d="M39.8502 34.09C40.1902 33.53 42.9302 26.19 43.2402 25.1C43.8402 22.94 43.2402 20.91 42.0502 19.04C41.6102 18.35 41.1802 17.66 40.7802 16.95C40.2002 15.9 39.7802 14.74 39.0502 13.81C38.3902 12.96 34.4402 9.31002 32.9502 8.64002C31.5502 8.01002 28.9702 6.35002 24.6502 5.87002C21.7702 5.55002 18.9802 6.46002 16.2202 7.28002C14.2002 7.88002 12.2502 8.62002 10.5802 9.93002C10.0402 10.35 9.6702 11.01 9.1102 11.38C7.9702 12.11 7.3302 13.09 7.2702 14.4C7.2402 15.21 6.7902 15.7 6.3502 16.28C5.8802 16.89 5.4402 17.58 5.2302 18.31C4.8502 19.66 4.6302 21.05 4.4002 22.44C4.2802 23.17 4.1802 23.92 4.2602 24.64C4.4402 26.43 5.3402 27.92 6.4402 29.3C6.9902 29.99 7.5402 30.66 7.4802 31.62C7.3502 33.94 8.4602 35.64 10.2602 36.96C11.0502 37.54 11.9102 38.03 12.6602 38.65C13.6202 39.45 16.5202 40.2 16.9702 40.58C18.4402 41.83 20.2202 42.06 22.0202 42.24C22.4802 42.29 22.9402 42.25 23.4002 42.31C24.7802 42.49 26.1302 42.35 27.1202 41.36C27.7202 40.76 28.1802 40.85 28.8102 41.07C29.7602 41.4 30.6902 41.45 31.6102 40.89C32.3502 40.44 33.1602 40.1 33.9002 39.66C36.3002 38.26 38.3802 36.5 39.8502 34.09Z" fill="#C3C999"/>
<path opacity="0.37" d="M35.3502 21.05C33.7002 21.37 32.0402 21.66 30.3802 21.91C29.6602 22.02 28.1002 22.49 27.3702 22.23C27.0902 22.13 27.1602 22.27 27.3002 21.87C27.4102 21.56 27.6502 21.25 27.8202 20.97C29.0502 19.04 30.5202 17.24 31.9202 15.44C32.1302 15.18 33.8002 13.43 33.8202 12.85C33.8202 12.83 33.8202 12.81 33.8202 12.78C33.8202 12.76 33.8302 12.73 33.8202 12.72C33.8102 12.7 33.7902 12.7 33.7802 12.69C33.7602 12.66 33.7302 12.65 33.7002 12.63C33.7002 12.63 33.6902 12.63 33.6902 12.62C33.6402 12.6 33.6002 12.61 33.5502 12.65C33.5502 12.65 33.5402 12.65 33.5402 12.66C33.5302 12.67 33.5202 12.66 33.5102 12.68C32.4502 13.98 31.3702 15.26 30.2802 16.52C29.4502 17.48 28.6102 18.44 27.7402 19.36C27.3902 19.73 26.4602 21.03 25.8902 21.08C25.4002 21.12 24.6902 20.08 24.3902 19.74C23.5402 18.78 22.7302 17.79 21.9102 16.8C21.1702 15.91 20.4502 15.01 19.6702 14.15C19.4702 13.93 19.0502 13.31 18.6802 13.4C18.5202 13.44 18.5002 13.63 18.5902 13.73C19.6802 15.03 20.7502 16.36 21.7702 17.71C22.4402 18.6 23.1202 19.51 23.7002 20.46C23.8802 20.76 24.2002 21.17 24.2502 21.52C24.3002 21.89 24.3802 21.73 24.0902 21.88C23.6002 22.14 22.6002 22.01 22.0602 22.03C21.0302 22.06 20.0002 22.05 18.9702 22.04C16.5402 22.01 14.1202 21.93 11.6902 21.82C10.6202 21.77 9.54016 21.72 8.47016 21.65C8.13016 21.63 7.80016 21.6 7.46016 21.58C7.33016 21.57 6.93016 21.48 7.04016 21.56C6.93016 21.47 6.81016 21.49 6.73016 21.6C6.39016 22.05 7.57016 22.13 7.73016 22.15C9.09016 22.31 10.4602 22.34 11.8202 22.39C15.2702 22.52 18.7602 22.5 22.2002 22.9C22.4902 22.93 23.2102 22.91 23.4602 23.12C23.4902 23.14 23.5102 23.15 23.5202 23.15C23.5002 23.16 23.4602 23.17 23.3902 23.25C23.2302 23.43 22.9502 23.55 22.7402 23.67C21.1902 24.54 19.4602 25.15 17.8002 25.77C16.0102 26.44 14.2002 27.07 12.3802 27.67C11.7402 27.88 11.1002 28.09 10.4602 28.29C10.2702 28.35 9.47016 28.46 9.36016 28.64C9.01016 29.25 10.1302 28.86 10.3002 28.81C11.8102 28.34 13.3002 27.8 14.7902 27.28C16.7902 26.59 18.7902 25.9 20.8102 25.27C21.5502 25.04 22.2902 24.81 23.0402 24.62C23.3302 24.55 23.6302 24.45 23.9302 24.42C24.4002 24.37 24.3902 24.31 24.2802 24.7C24.1102 25.25 23.5602 25.84 23.2602 26.33C22.7202 27.21 22.1902 28.1 21.6602 28.98C20.6502 30.67 19.6502 32.36 18.7102 34.08C18.5802 34.31 17.5302 35.84 17.8702 36.13C18.2902 36.49 19.1902 34.77 19.3202 34.57C20.5602 32.68 21.7402 30.76 22.9602 28.85C23.4802 28.03 24.0002 27.22 24.5602 26.42C24.7802 26.11 25.1102 25.34 25.5802 25.84C25.7602 26.03 25.7702 26.8 25.8302 27.06C26.6402 30.98 27.5102 34.88 28.3902 38.78C28.4402 39 28.8002 38.95 28.7802 38.73C28.4902 34.42 27.4502 30.18 27.1802 25.86C27.1502 25.43 27.1102 24.97 27.1402 24.53C27.1902 23.84 27.3102 23.7 27.9902 23.42C28.7802 23.09 29.5902 22.85 30.4102 22.63C32.0902 22.17 33.7802 21.76 35.4802 21.38C35.7102 21.38 35.6002 21 35.3502 21.05ZM7.14016 21.68C7.13016 21.61 6.97016 21.69 7.14016 21.68Z" fill="white"/>
<path d="M22.3896 5.13002C22.4996 5.10002 22.5996 5.08002 22.6996 5.07002C22.5996 4.93002 22.5096 4.79002 22.4296 4.65002C22.3996 4.82002 22.3896 4.99002 22.3896 5.13002Z" fill="#C8B3A3"/>
<path d="M23.9899 6.13998C24.0199 6.04998 24.0699 5.95998 24.1399 5.87998C23.8999 5.18998 23.8299 4.96998 23.7599 4.76998C23.6699 4.57998 23.5999 4.44998 23.0599 4.09998C22.9799 4.22998 22.8599 4.51998 22.8599 4.77998C22.8399 5.03998 22.9699 5.29998 23.1699 5.48998C23.1699 5.39998 23.0899 4.80998 23.3699 4.87998C23.4299 5.26998 23.2599 5.34998 23.5099 5.80998C23.8799 6.10998 23.4099 5.43998 23.7799 5.51998L23.9899 6.13998Z" fill="#C8B3A3"/>
<path d="M23.9297 4.68994C23.9497 4.93994 23.9697 5.17994 24.0197 5.36994C23.9897 5.12994 24.1097 4.78994 23.9297 4.68994Z" fill="#C8B3A3"/>
<path d="M24.1299 4.49002C24.3799 4.51002 24.1999 5.00002 24.2399 5.08002C24.2699 4.77002 24.3299 4.46002 24.3999 4.15002C24.3099 4.27002 24.2199 4.37002 24.1299 4.49002Z" fill="#C8B3A3"/>
<path d="M25.1499 4.49998C25.1899 4.47998 25.2299 4.44998 25.2699 4.41998C25.2399 4.26998 25.1999 4.39998 25.1499 4.49998Z" fill="#C8B3A3"/>
<path d="M25.6597 4.43996C25.5897 4.11996 25.4397 4.27996 25.2697 4.41996C25.2697 4.43996 25.2797 4.44996 25.2797 4.47996C25.3997 4.74996 25.2297 5.39996 25.0497 5.21996C24.8497 5.36996 24.8497 4.70996 24.6797 5.14996C24.7697 5.30996 24.8497 5.49996 24.9297 5.66996C25.2097 5.58996 25.4797 4.66996 25.6597 4.43996Z" fill="#C8B3A3"/>
<path d="M25.15 4.5C25.11 4.52 25.06 4.54 25.02 4.54C25.08 4.65 25.11 4.59 25.15 4.5Z" fill="#C8B3A3"/>
<path d="M24.64 4.42993L24.52 4.57993L24.57 4.84993L24.64 4.42993Z" fill="#C8B3A3"/>
<path d="M26.5098 4.53003C26.2498 5.39003 25.9398 4.30003 25.7598 4.99003C26.0798 5.00003 26.1598 5.70003 25.9898 6.16003C26.0998 6.09003 26.2198 6.02003 26.3298 5.96003C26.5198 5.67003 26.5998 4.99003 26.5098 4.53003Z" fill="#C8B3A3"/>
<path d="M26.3999 6.84998C26.4399 6.77998 26.4699 6.74998 26.4999 6.72998C26.4699 6.75998 26.4299 6.78998 26.3999 6.84998Z" fill="#C8B3A3"/>
<path d="M28.32 6.25999C27.92 6.32999 27.6 6.41999 27.26 6.57999C27.46 6.36999 27.59 6.11999 27.78 6.11999C27.56 5.85999 27.26 6.30999 27.09 6.13999C27.4 5.34999 27.51 6.29999 27.74 5.57999C27.57 5.47999 27.24 5.39999 26.85 5.98998C26.84 5.76998 26.81 5.56999 26.77 5.35999L26.56 6.24999C26.56 6.51999 27.03 5.67999 26.84 6.27999C26.71 6.64999 26.59 6.67999 26.5 6.72999C26.72 6.62999 26.55 7.52999 26.76 7.52999C26.98 7.55999 27.81 6.40999 28.32 6.25999Z" fill="#C8B3A3"/>
<path d="M27.6497 6.99992L27.4297 7.27992L27.7497 6.91992L27.6497 6.99992Z" fill="#C8B3A3"/>
<path d="M28.98 6.77998C28.75 6.76998 28.54 6.76998 28.31 6.81998C28.35 6.73998 28.48 6.60998 28.59 6.47998C28.44 6.61998 28.11 6.78998 27.99 6.91998C27.73 7.24998 27.82 7.23998 28.02 7.19998C28.21 7.15998 28.52 7.07998 28.63 7.11998C28.5 7.66998 28.24 7.30998 27.61 7.77998C27.61 7.71998 27.77 7.62998 27.77 7.49998C27.42 7.82998 27.45 7.84998 27.57 7.87998C27.7 7.89998 28.01 7.87998 28.13 7.92998C28.21 7.86998 28.44 7.79998 28.34 7.73998C28.44 7.75998 28.56 7.77998 28.65 7.81998C28.96 7.64998 29.1 7.49998 29.16 7.32998C29.22 7.15998 29.18 6.96998 28.98 6.77998Z" fill="#C8B3A3"/>
<path d="M28.5498 6.24004C28.6898 6.31004 28.6798 6.39004 28.5998 6.48004C28.7498 6.30004 28.8198 6.15004 28.5498 6.24004Z" fill="#C8B3A3"/>
<path d="M28.1501 7.98992C28.2001 7.95992 28.1801 7.93992 28.1201 7.91992C28.0901 7.94992 28.0801 7.96992 28.1501 7.98992Z" fill="#C8B3A3"/>
<path d="M29.0698 7.59996C29.0798 7.67996 29.0398 7.77996 29.0298 7.85996L29.3998 7.67996C29.3498 7.64996 29.2598 7.52996 29.0698 7.59996Z" fill="#C8B3A3"/>
<path d="M37.7996 13.34C38.0096 13.09 38.0697 12.89 37.8797 12.83C38.1897 12.49 38.3097 12.73 38.5797 12.63C38.5697 12.23 38.9396 12.25 39.1796 11.89C38.9496 11.59 38.4497 11.98 38.2397 11.66C38.3197 11.57 38.4296 11.4 38.4796 11.24C38.2096 11.22 37.8497 11.23 37.5597 11.16C37.2497 11.12 36.9896 11.03 36.8596 10.76C36.4996 10.5 36.1396 10.57 35.6696 10.72C34.9596 10.46 34.1796 10.55 33.4096 10.64C32.6996 10.75 31.5196 10.94 30.7996 10.43C30.5696 10.64 30.3196 10.86 30.0696 11.03C30.2296 10.64 29.6396 10.72 30.0596 10.33C30.0696 10.48 30.2096 10.48 30.3296 10.54C30.3796 10.12 30.1996 9.99003 29.9896 9.81003C29.7896 9.64003 29.5696 9.43003 29.6396 9.13003C29.4996 9.27003 28.8596 9.74003 28.6796 9.62003C29.1196 9.42003 29.0696 9.26003 29.0496 9.07003C29.0296 8.88003 29.0296 8.63003 29.5696 8.43003C29.8096 7.97003 28.7296 8.36003 28.8296 8.03003C28.5496 8.05003 28.4897 8.13003 28.4497 8.21003L28.4396 8.22003C28.4396 8.22003 28.4296 8.21003 28.4396 8.33003C28.4396 8.43003 28.4296 8.40003 28.4296 8.44003C28.4296 8.50003 28.4196 8.55003 28.3996 8.60003C28.3696 8.69003 28.3096 8.78003 28.2096 8.84003C27.9696 8.78003 27.9996 8.60003 28.0196 8.45003L28.0096 8.27003V8.26003V8.25003C28.0096 8.24003 27.9996 8.23003 27.9896 8.23003C27.9596 8.22003 27.8896 8.22003 27.7396 8.24003C27.6496 8.96003 27.9796 9.86003 28.6596 10.44C28.9896 10.73 29.3996 10.96 29.8296 11.07C30.2596 11.19 30.6896 11.19 31.0696 11.18C30.9496 11.34 30.8296 11.5 30.7096 11.64C31.1896 11.58 31.7096 11.51 32.2096 11.54C32.4496 11.56 32.7496 11.6 32.9296 11.69C33.1096 11.79 33.2696 11.93 33.4096 12.13C33.2996 11.62 34.1096 12.36 33.9796 11.21C34.1196 11.47 34.1497 11.42 34.3297 11.51L34.3696 11.15C34.6296 11.17 34.5696 11.73 34.8496 11.71C34.6996 11.21 34.8996 11.07 35.0296 10.66C35.3496 11.23 35.6296 11.79 35.7696 12.27C35.7896 12.11 35.8096 11.92 35.7596 11.7C35.8996 11.9 35.9696 11.44 36.0696 11.29C36.2596 11.32 36.0696 11.93 35.9796 12.24C36.1896 12.49 36.7396 11.39 36.8196 11.88L36.9296 11.37C37.3396 11.39 37.3396 12.04 37.7496 12.08C37.5196 12.75 37.1596 12.45 36.9096 12.65C36.8996 12.81 36.9896 12.91 36.9096 13.13C37.1996 12.87 37.6596 12.62 38.0396 12.47C37.4096 13.01 37.7796 13.22 37.7996 13.34Z" fill="#C8B3A3"/>
<path d="M36.92 13.13C36.83 13.21 36.76 13.27 36.71 13.33C36.75 13.3 36.8 13.28 36.82 13.32C36.86 13.25 36.9 13.19 36.92 13.13Z" fill="#C8B3A3"/>
<path d="M37.8 13.34L37.75 13.41C37.8 13.4 37.81 13.38 37.8 13.34Z" fill="#C8B3A3"/>
<path d="M36.8198 10.72C36.8298 10.74 36.8498 10.76 36.8598 10.78C36.8798 10.8 36.8998 10.81 36.9198 10.83C36.8898 10.79 36.8598 10.75 36.8198 10.72Z" fill="#C8B3A3"/>
<path d="M35.86 12.87C35.85 12.68 35.82 12.48 35.77 12.27C35.74 12.5 35.73 12.69 35.86 12.87Z" fill="#C8B3A3"/>
<path d="M33.8898 12.13C33.8298 12.22 33.8798 12.38 33.8398 12.55C33.9798 12.55 34.0198 12.38 33.8898 12.13Z" fill="#C8B3A3"/>
<path d="M37.0996 13.41H37.3696L37.5296 13.35L37.0996 13.41Z" fill="#C8B3A3"/>
<path d="M41.5799 17.62C42.1999 17.3 41.8099 16.82 41.8899 16.41C41.4799 15.73 40.5599 16.49 40.3899 15.9L41.6399 15.77C41.4699 15.13 41.3599 14.01 40.0999 14.03C40.2199 13.92 40.3299 13.73 40.5699 13.8C40.3199 13.42 38.9099 14.45 39.0099 13.84C39.9199 13.81 39.5499 13.31 40.2599 12.98L40.3799 13.01C40.1099 12.7 39.4599 12.6 39.3499 12.39C39.1099 12.61 38.8699 13.07 38.6399 12.9C38.6799 13.02 38.3699 13.24 38.1299 13.45C38.5599 13.4 38.4799 13.66 38.9199 13.52C38.6699 13.89 38.7499 13.53 38.4999 13.89L38.9299 13.85C38.9299 14.03 38.4999 13.95 38.5499 14.2C38.7599 14.09 39.1199 14.1 39.1499 14.32L38.9999 14.34C39.2099 14.39 39.1299 14.68 39.7199 14.3C39.5399 14.46 39.3599 14.61 39.1699 14.76L39.5899 14.54C39.5899 15.05 38.5699 15.51 39.2599 15.82C39.3699 15.67 39.6399 15.71 39.7499 15.76C40.0099 15.45 39.3299 15.58 39.2199 15.41C39.6599 15.22 40.3099 15.44 40.5099 15.08C40.0499 15.55 40.7599 15.67 39.6099 16.05C39.5899 16.39 40.2099 16.44 39.9499 16.84L39.7699 16.85C40.5499 16.86 39.4599 17.15 40.2499 17.39L40.4299 17.18C40.7499 17.18 40.7599 17.28 40.8199 17.42C40.6899 17.4 40.6899 17.4 40.5399 17.45C41.1099 17.49 41.1999 17.97 41.3599 18.04C41.4699 17.84 40.9899 17.57 40.8499 17.36C41.1999 17.45 41.6799 17.41 41.5799 17.62Z" fill="#C8B3A3"/>
<path d="M38.73 14.36L39.02 14.32C38.96 14.3 38.87 14.31 38.73 14.36Z" fill="#C8B3A3"/>
<path d="M40.6197 19.5799C40.5097 19.8699 40.1297 19.5399 39.8997 19.8199C40.3097 20.0699 40.6797 19.4299 41.2897 19.6599C40.9597 19.8499 41.5697 20.0699 41.5997 20.1799C41.2497 20.0899 40.5097 20.2299 40.3597 20.2999C40.5797 20.3899 40.2297 20.6599 40.2297 20.8499C40.6497 20.3499 40.5497 21.1899 41.0197 20.7299C41.4697 20.7099 41.8397 21.0699 41.5197 21.2799C41.1997 21.3099 41.2497 21.1699 41.2197 21.0599C40.5997 21.0399 40.9297 21.3799 40.3897 21.5199C40.8297 21.6699 41.1197 22.1199 41.4397 22.3999C41.7897 22.6899 42.1597 22.7799 42.7697 22.4199C42.9897 22.2299 42.6497 22.2299 42.5497 22.1099C42.3897 22.5399 41.8497 22.2899 41.5997 22.2899C41.7797 22.0599 41.2997 21.8299 41.7897 21.8199C41.9797 21.8899 42.1597 21.9399 42.3397 21.9999C42.4297 21.1199 42.1997 19.8599 41.9597 18.8399V19.2899C41.5897 19.2599 41.5497 19.0399 41.3697 18.8799L40.4797 19.1499C40.5397 19.0099 40.3997 18.8799 40.7197 18.8799C40.3297 18.7199 40.1097 18.8099 39.7997 18.9199C39.6297 18.5399 39.9797 18.4799 39.3897 18.1699C38.6497 18.8599 39.9997 18.7199 39.3997 19.4699L40.6197 19.5799Z" fill="#C8B3A3"/>
<path d="M40.0796 18.2499L40.5296 18.3999L40.3096 18.1699L40.0796 18.2499Z" fill="#C8B3A3"/>
<path d="M42.0599 18.4699C41.8599 18.4799 41.7699 18.3999 41.5799 18.4099C41.4499 18.6799 41.7299 18.6299 42.0599 18.4699Z" fill="#C8B3A3"/>
<path d="M40.3999 21.9L40.6299 22.26L40.7599 21.98C40.5599 22.02 40.4599 21.94 40.3999 21.9Z" fill="#C8B3A3"/>
<path d="M43.3599 23.39C43.0899 23.15 42.6299 23.13 42.8899 22.55C42.2599 22.5 41.8799 23.01 41.3399 23.08C41.3299 23.41 42.2499 23.03 42.5199 23.18C42.1099 23.48 42.7799 23.48 42.8099 23.72C42.9699 23.58 43.1799 23.45 43.3599 23.39Z" fill="#C8B3A3"/>
<path d="M42.9399 25.8199C43.0399 25.9299 43.4799 25.8199 43.3499 26.0599C43.0599 26.2099 42.9199 26.2199 42.9399 26.1099C42.3799 26.5699 43.1299 26.1599 42.7799 26.5199C42.8499 26.4799 42.9299 26.3799 43.0899 26.3299C43.0999 26.5199 43.2499 26.4999 43.3899 26.5299C43.5299 26.5499 43.6499 26.6499 43.4499 26.9399C43.6499 26.9999 43.6399 27.0899 44.1299 27.0699C43.4799 27.4399 43.4999 27.2599 42.9099 27.5799C43.1899 27.6199 43.8499 27.5699 44.4399 27.6399C43.9599 27.9599 43.9699 28.1099 43.9699 28.2799C43.9799 28.4399 44.0099 28.5899 43.6499 28.6899C43.6399 28.6299 43.5099 28.5199 43.6199 28.4399C42.8099 28.1999 43.6699 28.8299 43.3799 28.9799L42.7499 28.6299C42.7599 28.7299 42.8299 28.9099 42.8199 29.0699C42.7899 29.2099 42.6799 29.3199 42.4199 29.2399L42.1699 28.9699C42.3199 29.6599 41.6599 29.8499 41.3799 30.2999L40.9399 30.0399C40.5899 30.8599 41.6599 29.9199 41.7399 31.0999C41.0299 29.9899 41.6299 31.6599 40.9999 31.3999C40.5799 31.0299 41.2399 30.9599 40.7599 30.5299C40.9999 31.1699 40.6599 30.7999 40.5499 31.0799C40.2899 30.4899 40.0899 31.2299 39.8599 30.5299C39.8099 30.9999 39.7599 31.5099 39.7499 31.9699C39.4399 31.7299 39.2799 31.9399 39.1899 32.1099C39.5399 31.8599 39.6799 32.9299 40.1999 32.9199C40.5299 32.3099 41.4599 31.6299 42.4099 31.4399C42.0199 30.6499 42.9099 31.1099 42.5899 30.4499C42.7799 30.6599 42.9799 30.7999 43.1799 30.9999C43.5199 30.4399 42.7599 30.7299 42.6699 30.3799C42.7599 30.1399 43.2699 30.3899 43.4899 30.6199C43.8399 30.3299 43.3599 30.4199 43.1499 29.9399C43.4399 30.0899 43.7499 30.2199 44.0699 30.3299C44.2699 29.9999 44.3499 29.5799 44.4599 29.1899C44.4999 28.7799 44.5699 28.3799 44.5699 27.9699C44.5599 27.5599 44.6199 27.1799 44.6099 26.7599C44.5999 26.3499 44.5499 25.9299 44.4399 25.5199C44.2899 25.6499 44.1299 25.7799 43.9699 25.8999C43.8499 25.1299 42.3399 26.1099 42.8499 24.7499C42.6799 24.8199 42.5099 24.8799 42.3299 24.9399C42.6199 24.8299 42.9399 24.2699 43.3499 24.1099C43.0799 24.1299 43.1699 23.8499 42.9199 23.8399C42.8999 23.9699 42.8899 24.1099 42.8699 24.2499C42.3299 24.3999 42.4199 23.9899 42.7799 23.6899C42.4099 23.6699 42.2099 23.8399 42.0799 24.1099C41.9499 24.3799 41.9099 24.7199 41.7499 24.9199C42.4299 24.8899 42.3399 25.1799 42.2199 25.5699C42.0899 25.9399 41.9599 26.4199 42.2799 26.4099C42.7099 26.3399 42.7099 26.0499 42.9399 25.8199Z" fill="#C8B3A3"/>
<path d="M43.5496 24.09C43.4896 24.09 43.4296 24.11 43.3696 24.13C43.4196 24.14 43.4796 24.12 43.5496 24.09Z" fill="#C8B3A3"/>
<path d="M39.2098 32.13C39.1698 32.16 39.1198 32.2 39.0698 32.28C39.1098 32.43 39.1298 32.29 39.2098 32.13Z" fill="#C8B3A3"/>
<path d="M42.8101 23.71C42.8201 23.72 42.8101 23.72 42.8101 23.71Z" fill="#C8B3A3"/>
<path d="M41.3696 24.1799C41.3996 24.2499 41.4296 24.3099 41.4596 24.3799L41.6796 24.2099C41.5696 24.1999 41.4696 24.1899 41.3696 24.1799Z" fill="#C8B3A3"/>
<path d="M37.1899 33.2L37.4599 33.3699C37.3799 33.2999 37.2999 33.24 37.1899 33.2Z" fill="#C8B3A3"/>
<path d="M35.5798 37.87L35.6198 37.84C35.5798 37.82 35.5698 37.84 35.5798 37.87Z" fill="#C8B3A3"/>
<path d="M25.6798 42.65C25.3898 42.86 24.9998 43.02 24.6498 43.48L24.7298 43.17C24.6298 43.23 24.4198 43.36 24.2298 43.53C24.0498 43.7 23.8798 43.93 24.0298 44.28L24.2098 44.04C24.7998 43.69 24.4698 44.64 24.8898 44.9C25.4598 44.8 25.6698 43.58 26.0498 43.85C26.2098 43.8 26.2098 44.12 26.1798 44.37C26.5898 44.42 26.6098 43.49 26.8298 43.33C27.0498 44.51 27.3198 44.31 27.6098 43.98C27.8998 43.65 28.1798 43.2 28.6198 43.88C28.9098 43.61 29.4098 43.7 29.6898 43.12C29.6398 43.76 30.0998 43.05 30.2098 43.72C29.8798 42.36 31.6298 43.89 31.0798 42.21C31.7998 42.45 31.0598 42.1 31.8298 42.22C31.9098 42.4 31.7998 42.45 31.7798 42.5C32.1698 42.72 31.8498 41.65 32.3898 42.29C32.9398 42.17 32.2698 41.82 32.3498 41.26C32.9298 41.21 32.8998 41.49 33.5098 41.99C33.1698 41.23 33.6498 41.42 33.6698 40.91C33.5898 40.91 33.1898 40.94 33.2398 40.55C33.8498 40.37 33.3998 39.82 33.7598 39.34C34.4998 39.97 33.2898 39.66 34.1098 40.02C34.0198 40.58 33.7598 40.69 33.9098 41.38C34.3898 41.17 34.8598 40.7 35.0998 40.07C35.4298 40 35.2198 40.52 35.4698 40.45C36.1798 40.46 35.6098 39.19 36.1998 39.25L36.4298 39.68C36.3498 39.37 36.5298 39.24 36.7598 39.08C36.9898 38.93 37.2698 38.71 37.2998 38.42C37.3098 38.36 37.2998 38.31 37.2898 38.25C37.0498 38.23 36.8798 38.2 36.7498 38.08C37.3098 38.32 37.2398 38.06 37.0798 37.78C36.9298 37.5 36.6998 37.22 37.1498 36.99C36.7698 36.98 36.4798 36.85 36.2898 36.65C36.0898 36.47 36.0098 36.16 36.0098 35.99C36.2398 35.91 36.5498 36 36.7498 36.04C36.1798 36.52 37.4798 36.69 37.7898 37.08C37.3998 36.7 37.8998 36.29 37.4398 35.89L37.9998 36.13C38.1898 35.75 36.7598 35.4 37.4698 35.09L37.8698 35.27C37.9398 35.05 38.0598 34.84 38.1898 34.63C38.3398 34.44 38.5198 34.27 38.6598 34.09C38.9698 33.75 39.1798 33.42 39.1498 32.81C38.9798 32.48 38.0798 32.16 37.8398 31.99C37.6498 32.65 37.9598 33.29 38.0398 33.76L37.4598 33.39C37.7998 33.74 37.8398 34.24 38.2698 34.22C38.4598 34.62 37.6098 34.12 37.8298 34.6C37.1798 34.28 37.1998 34.05 36.6698 33.78C36.7098 33.94 36.7898 34.09 36.8498 34.24C36.6398 34.03 36.5498 34.34 36.3298 34.13C36.6098 34.6 36.4598 34.76 36.2398 34.93C36.0498 35.1 35.7998 35.27 35.9098 35.63L36.1198 35.31C36.5098 35.42 36.4198 35.6 36.4998 35.77C35.9098 35.82 35.9598 35.91 35.6498 36.24C35.9098 36.62 36.6198 36.81 36.5898 37.14C36.2098 37.07 36.0998 37.2 35.9998 37.32C35.8998 37.41 35.8198 37.48 35.4998 37.41C35.9898 37.54 35.9098 37.69 35.9098 37.8C35.9098 37.86 35.9198 37.92 36.0498 38C36.1298 38.18 35.9498 38.28 35.6298 38.02C35.6198 38 35.5798 37.93 35.5698 37.89L35.4998 37.94C35.4398 37.88 35.3798 37.84 35.3798 37.83C35.3298 37.86 35.7298 38.24 35.3898 38.05C35.2498 37.91 35.2898 37.88 35.2498 37.8C35.1498 37.81 35.3298 38.04 35.3198 38.32C35.3398 38.58 35.2898 38.8 34.9598 38.62C35.1198 38.95 34.7598 39.24 35.3098 39.84C35.0398 39.68 34.7098 39.13 34.4998 39.42C34.7098 40.09 34.0498 39.42 34.0698 39.92C33.9798 39.13 33.9698 39.75 33.8498 39.02C33.5198 38.9 33.7198 39.85 33.2998 39.95C33.1798 39.83 33.0798 39.65 32.9698 39.53C32.9598 39.81 33.0798 40.38 32.6898 39.95L32.9298 40.37C32.5698 40.28 32.3098 40.59 31.8198 40.24L31.8998 41.21C31.0798 40.52 30.8898 41.54 30.7998 42.45C30.6198 42.47 30.3098 42.41 30.2498 42.21C30.2698 42.13 30.2798 41.98 30.3198 41.83C30.0698 41.89 29.6198 41.48 29.7198 42.25C29.5398 42.55 29.3798 41.8 29.1698 41.74C28.9398 42.93 27.5398 41.34 27.7198 42.96C27.9298 42.93 28.4098 43.16 28.8098 42.98C28.7498 43.2 28.9098 43.49 28.7698 43.56C28.3598 43.73 28.0198 43.19 27.6498 43.54L27.4998 42.49C27.0598 42.04 26.8098 42.43 26.5398 42.78C26.2798 43.12 25.9598 43.39 25.6798 42.65Z" fill="#C8B3A3"/>
<path d="M30.6797 41.53L30.2197 41.13L30.3997 41.54C30.4597 41.45 30.5497 41.42 30.6797 41.53Z" fill="#C8B3A3"/>
<path d="M30.4001 41.5499C30.3601 41.6199 30.3301 41.7099 30.3101 41.8099C30.3701 41.7999 30.4301 41.7599 30.4501 41.6599L30.4001 41.5499Z" fill="#C8B3A3"/>
<path d="M24.6196 42.73C24.5696 42.68 24.4896 42.57 24.3496 42.65C24.3796 42.79 24.5196 42.87 24.6196 42.73Z" fill="#C8B3A3"/>
<path d="M24.23 42.95L24.32 43.15L24.37 43.04L24.23 42.95Z" fill="#C8B3A3"/>
<path d="M17.4196 38.31L16.7396 38.75C16.7696 38.42 16.0896 38.58 16.4496 38.13C15.8996 38.74 15.5096 37.77 15.3296 38.88C16.1796 39.05 17.0196 39.37 17.7696 39.64C18.5396 39.92 19.1196 40.1 19.8696 40.12C19.7196 40.19 19.5796 40.26 19.4496 40.34C19.7096 40.24 19.8596 40.34 19.8696 40.4C19.9096 40.51 19.8096 40.68 19.8296 40.75C19.8596 40.83 19.9996 40.76 20.6696 40.82C20.3796 40.88 20.0896 40.94 19.8096 41.01C19.7396 41.19 20.0996 41.3 20.4096 41.47C20.7096 41.63 20.9496 41.8 20.7096 42.3L20.9896 42.06C21.0596 42.2 20.9696 42.33 21.0596 42.47L21.1496 42.32C21.6696 42.44 21.7696 42.58 21.8796 43.01C21.7196 43.24 21.6696 42.98 21.5296 42.96C21.4696 43.3 22.0896 43.05 22.2896 43.19C22.3196 43.52 22.0596 43.52 21.9596 43.59C22.8596 43.73 22.6896 44.69 23.8196 43.75C23.9496 43.54 23.8096 43.27 24.0896 43.25C23.8396 42.71 23.3396 43.02 22.7696 43.07L22.8696 43.14C21.8696 44.01 22.8096 42.78 22.0196 42.86C22.4696 42.57 22.6596 42.7 22.8896 42.53C22.9296 41.96 22.6996 42.01 22.4596 41.98C22.2396 41.97 21.9996 41.88 22.4196 41.38L22.4696 41.39C22.5196 41.27 22.2696 41.3 22.0996 41.24C21.9796 41.35 21.9596 41.5 21.9096 41.64C21.7396 41.59 21.2196 41.79 20.9696 41.84C21.3896 41.42 20.5896 41.7 20.7496 41.3C21.2096 41.03 21.2796 41.36 21.5796 41.34C21.4296 41.29 21.2796 41.24 21.1296 41.17C20.9996 40.9 21.5896 40.73 21.8196 40.52C21.3696 40.42 21.5896 40.73 20.9996 40.72C21.3596 40.44 21.2396 39.84 20.7696 39.57C20.5296 39.43 20.2396 39.37 19.9896 39.41C20.1796 39.45 20.3796 39 20.5096 39.22C20.5196 39.07 20.1096 39.1 19.8796 39.43C19.4096 39.52 19.1796 39.12 18.9896 38.64L18.9196 39.05C18.4096 39.55 18.4396 38.3 17.7796 38.49V38.5C17.5896 38.52 17.1296 39.4 16.8796 39.1C17.1296 38.67 17.2796 38.77 17.4196 38.31Z" fill="#C8B3A3"/>
<path d="M15.1397 38.42C15.2897 38.29 15.4197 38.14 15.5597 38C15.4297 37.82 14.8097 38.29 14.6797 38.63C14.8997 38.61 15.0197 38.95 15.1697 38.66C15.1897 38.57 15.2797 38.4 15.1397 38.42Z" fill="#C8B3A3"/>
<path d="M11.7698 34.79C11.6198 34.71 11.4198 34.79 11.2598 34.78C11.6898 36.18 12.7798 37 12.7898 37.62C12.9598 38.01 13.5798 37.44 14.0198 37.56C13.9598 37.75 13.8998 37.93 13.8398 38.13C14.2298 37.99 14.5598 38.9 14.7998 37.97C14.8198 37.89 14.3998 38.24 14.3098 37.99L14.5098 37.74L14.0798 37.57L14.4298 37.33C14.3498 36.54 13.3298 38.02 12.9898 37.17L13.5798 36.62C13.2998 36.24 12.8998 36.19 13.0898 35.57C13.0898 35.57 12.7498 35.78 12.9298 35.76C12.9398 35.85 12.7298 36.13 12.4998 36.21C11.5198 35.84 12.9598 36.05 12.9598 35.43C12.5698 35.3 12.1198 34.93 11.9098 34.42C11.6998 33.9 11.7598 33.36 12.1298 33.2C11.8598 33.35 11.6198 33.3 11.4598 33.12C11.2998 32.94 11.2298 32.63 11.3398 32.38C11.6798 32.24 11.7498 32.66 11.9698 32.77C12.1198 32.59 12.3398 32.5 12.3198 32.28C11.7998 32.37 11.2698 32.06 11.2998 31.37C10.7498 31.88 10.7798 32.6 11.0198 33.19C11.2698 33.77 11.6498 34.27 11.7698 34.79Z" fill="#C8B3A3"/>
<path d="M11.02 34.6099C11.08 34.7299 11.16 34.7699 11.25 34.7799C11.2 34.6199 11.15 34.4599 11.13 34.2899C11.09 34.3999 11.05 34.5099 11.02 34.6099Z" fill="#C8B3A3"/>
</svg>
