<svg width="673" height="438" viewBox="0 0 673 438" fill="none" xmlns="http://www.w3.org/2000/svg">
<g clip-path="url(#clip0_784_2845)">
<path d="M554.51 217.166L554.49 217.203C539.142 244.318 548.682 278.741 575.798 294.089L575.834 294.109C602.95 309.457 637.373 299.917 652.721 272.801L652.741 272.765C668.089 245.649 658.549 211.226 631.433 195.879L631.397 195.858C604.281 180.511 569.858 190.05 554.51 217.166Z" fill="#C1B79E"/>
<path d="M621.811 211.921C589.472 193.617 548.417 204.994 530.113 237.334C511.809 269.673 523.187 310.728 555.526 329.032C587.865 347.336 628.92 335.959 647.224 303.619C665.529 271.28 654.151 230.225 621.811 211.921Z" fill="#C1B79E"/>
<path d="M607.823 266.14C614.698 280.781 626.25 292.716 640.659 300.065Z" fill="#C1B79E"/>
<path d="M607.279 266.434C614.32 281.092 625.912 293.08 640.324 300.61C641.036 300.987 641.706 299.898 640.953 299.521C626.768 292.151 615.34 280.4 608.368 266.015C607.991 265.303 606.902 266.015 607.279 266.643V266.434Z" fill="#928575"/>
<path d="M607.738 271.041C625.566 261.689 640.967 248.309 652.72 231.964Z" fill="#C1B79E"/>
<path d="M608.032 271.585C625.879 262.049 641.341 248.605 653.265 232.257C653.726 231.629 652.637 231.001 652.176 231.629C640.35 247.773 625.049 261.056 607.404 270.496C606.692 270.873 607.403 271.962 608.032 271.585Z" fill="#928575"/>
<path d="M605.479 269.7L603.133 214.541Z" fill="#C1B79E"/>
<path d="M606.189 269.701L603.844 214.541C603.844 213.745 602.546 213.745 602.587 214.541L604.933 269.701C604.933 270.496 606.231 270.496 606.189 269.701Z" fill="#928575"/>
<path d="M599.322 269.952L555.848 257.094Z" fill="#C1B79E"/>
<path d="M599.488 269.323L556.014 256.507C555.218 256.256 554.925 257.47 555.679 257.722L599.153 270.538C599.314 270.582 599.486 270.561 599.631 270.478C599.777 270.396 599.883 270.259 599.928 270.098C599.972 269.937 599.951 269.765 599.868 269.62C599.786 269.474 599.649 269.368 599.488 269.323Z" fill="#928575"/>
<path d="M601.793 271.501C596.59 277.335 593.28 284.61 592.301 292.365C591.321 300.12 592.718 307.989 596.306 314.934" fill="#C1B79E"/>
<path d="M601.289 271.292C596.073 277.261 592.757 284.65 591.765 292.514C590.772 300.378 592.149 308.359 595.718 315.436C596.053 316.19 597.142 315.436 596.807 314.808C593.36 307.974 592.029 300.267 592.983 292.672C593.938 285.077 597.136 277.94 602.168 272.172C602.713 271.543 601.833 270.664 601.289 271.292Z" fill="#928575"/>
<path d="M586.336 185.6L587.258 185.139L586.713 184.134L586.336 185.6Z" fill="#928575"/>
<path d="M591.614 186.186C591.887 185.886 592.18 185.606 592.493 185.349C591.698 183.967 591.53 183.464 591.279 183.087C591.028 182.71 590.651 182.375 588.892 182.124C588.138 183.003 587.384 185.223 588.515 185.851C588.766 185.433 588.515 183.841 589.729 183.757C589.729 184.637 589.059 185.139 589.729 186.27C591.153 186.27 589.729 185.181 591.237 184.888L591.614 186.186Z" fill="#928575"/>
<path d="M591.992 182.752C591.926 183.252 591.926 183.759 591.992 184.26C592.118 183.673 592.914 182.919 591.992 182.752Z" fill="#928575"/>
<path d="M592.914 182.207C593.919 182.207 592.914 183.338 593.207 183.506C593.457 182.777 593.751 182.063 594.087 181.37C593.663 181.6 593.27 181.882 592.914 182.207Z" fill="#928575"/>
<path d="M597.102 182.249H597.605C597.437 181.83 597.102 182.082 597.102 182.249Z" fill="#928575"/>
<path d="M599.112 182.459C599.112 181.705 598.274 181.914 597.562 182.165C597.981 182.836 597.185 184.134 596.473 183.631C595.594 183.883 595.719 182.542 594.965 183.422C595.3 183.799 595.594 184.218 595.887 184.595C597.101 184.637 598.358 182.836 599.112 182.459Z" fill="#928575"/>
<path d="M597.1 182.25H596.556C596.723 182.543 597.1 182.417 597.1 182.25Z" fill="#928575"/>
<path d="M594.965 181.914L594.42 182.249L594.588 182.877L594.965 181.914Z" fill="#928575"/>
<path d="M602.378 183.799C601.75 184.553 601.289 184.218 600.786 183.799C600.284 183.38 599.781 183.087 599.404 183.799C599.673 183.916 599.91 184.095 600.096 184.322C600.282 184.549 600.411 184.817 600.472 185.103C600.534 185.39 600.526 185.687 600.45 185.97C600.373 186.253 600.23 186.514 600.033 186.731C600.45 186.688 600.871 186.688 601.289 186.731C601.718 186.385 602.045 185.931 602.237 185.415C602.428 184.899 602.477 184.34 602.378 183.799Z" fill="#928575"/>
<path d="M601.29 189.034H601.709C601.573 188.989 601.426 188.989 601.29 189.034Z" fill="#928575"/>
<path d="M605.982 192.929C605.359 191.904 604.515 191.031 603.511 190.374C604.181 190.374 604.725 190.123 605.144 190.668C605.144 189.369 603.804 189.704 603.553 188.825C604.977 187.652 604.474 190.333 605.689 189.16C605.463 188.735 605.165 188.353 604.809 188.029C604.526 187.901 604.219 187.834 603.909 187.834C603.598 187.834 603.291 187.901 603.008 188.029C603.05 187.471 603.05 186.911 603.008 186.354C602.673 186.94 602.296 187.526 601.919 188.071C601.542 188.615 603.678 187.652 602.757 188.741C602.607 188.919 602.406 189.047 602.181 189.107C601.957 189.167 601.719 189.156 601.5 189.076C602.17 189.369 601.081 191.003 601.5 191.505C601.919 192.008 604.851 191.715 605.982 192.929Z" fill="#928575"/>
<path d="M603.803 193.306L603.091 193.683L604.096 193.39L603.803 193.306Z" fill="#928575"/>
<path d="M607.447 197.076C606.738 196.598 606.091 196.035 605.52 195.4C605.744 195.115 606.031 194.886 606.358 194.73C605.897 194.73 605.059 194.479 604.682 194.73C603.049 196.07 605.939 197.62 606.944 198.332C607.656 200.007 607.656 200.091 606.944 200.133C606.232 200.175 605.604 199.882 605.562 201.096C604.766 200.049 605.017 199.798 604.347 198.206C604.236 199.005 604.378 199.819 604.754 200.533C605.13 201.247 605.72 201.825 606.441 202.185C607.543 202.741 608.77 203 610.002 202.939C609.625 202.604 609.792 202.101 608.954 201.85C609.484 201.89 610.016 201.89 610.546 201.85C609.724 200.131 608.682 198.526 607.447 197.076Z" fill="#928575"/>
<path d="M606.442 193.599C606.693 194.311 606.442 194.563 606.442 194.688C606.819 194.395 607.112 194.144 606.442 193.599Z" fill="#928575"/>
<path d="M610.923 203.023C610.698 202.88 610.435 202.807 610.169 202.814C610.266 202.911 610.386 202.981 610.518 203.018C610.65 203.054 610.79 203.056 610.923 203.023Z" fill="#928575"/>
<path d="M610.378 200.552C610.812 200.839 611.275 201.077 611.76 201.264C611.76 200.929 611.551 200.594 611.467 200.301C611.383 200.008 610.545 200.092 610.378 200.552Z" fill="#928575"/>
<path d="M649.622 219.274C649.76 219.177 649.873 219.049 649.951 218.899C650.029 218.75 650.069 218.584 650.069 218.415C650.069 218.247 650.029 218.081 649.951 217.931C649.873 217.782 649.76 217.653 649.622 217.557C650.543 217.138 650.962 218.269 651.674 218.52C651.674 217.096 652.679 218.017 653.391 217.263C652.805 215.881 651.297 216.091 650.711 214.625C651.045 214.494 651.315 214.239 651.464 213.913C649.873 212.656 647.276 210.939 646.48 209.096C645.394 207.784 643.933 206.834 642.292 206.374C637.06 202.602 630.85 200.421 624.408 200.092C624.073 200.72 623.822 201.39 623.529 202.018C623.194 201.097 622.021 202.018 622.105 200.845C622.482 201.097 622.775 200.845 623.236 200.845C621.686 199.17 619.382 201.39 617.539 200.845C617.749 201.181 618.21 202.814 617.539 203.149C617.539 201.055 615.194 203.149 614.691 200.804C612.89 200.05 614.691 202.688 612.43 202.06C611.969 203.275 614.482 202.94 614.775 203.861C614.021 204.866 612.765 203.233 612.681 204.531C615.019 204.993 617.444 204.685 619.592 203.652C621.677 202.645 623.889 201.926 626.167 201.516L625.665 202.646C627.717 201.893 631.403 202.646 632.282 204.866C632.282 204.28 632.952 204.866 633.706 204.866C634.46 204.866 635.172 205.243 635.549 204.029C635.8 204.782 636.01 204.782 636.596 205.243L637.141 204.615C638.146 205.159 637.392 206.165 638.481 206.709C638.481 205.369 639.277 205.536 640.072 204.95C640.764 206.639 641.338 208.375 641.79 210.143C642.019 209.736 642.121 209.269 642.083 208.803C642.502 209.641 643.046 208.803 643.465 208.803C644.135 209.348 643.13 210.353 642.669 210.855C643.507 212.07 645.81 210.855 645.978 212.154L646.48 211.107C647.904 212.07 647.779 213.955 649.161 215.295C648.449 216.845 647.192 214.96 646.271 214.876C646.271 215.337 646.606 215.923 646.271 216.426C647.544 216.549 648.796 216.83 649.999 217.263C648.198 216.845 649.538 218.687 649.622 219.274Z" fill="#928575"/>
<path d="M646.482 215.881C646.232 215.86 645.979 215.86 645.729 215.881C645.729 215.881 646.064 215.881 646.147 216.216C646.289 216.139 646.405 216.023 646.482 215.881Z" fill="#928575"/>
<path d="M642.126 211.777C642.109 211.185 642.039 210.597 641.917 210.018C641.768 210.297 641.708 210.616 641.745 210.93C641.783 211.245 641.916 211.54 642.126 211.777Z" fill="#928575"/>
<path d="M634.334 205.452C633.999 205.452 634.041 205.913 633.706 206.164C634.251 206.457 634.795 206.206 634.334 205.452Z" fill="#928575"/>
<path d="M647.277 217.472L648.241 218.31L648.743 218.519L647.277 217.472Z" fill="#928575"/>
<path d="M656.741 242.518C658.039 241.346 657.411 239.545 657.872 237.995C657.495 235.063 655.024 237.283 655.149 234.603L657.83 235.356C658.039 232.676 658.374 228.362 655.568 226.561C655.903 226.31 656.238 225.765 656.699 226.561C656.238 224.76 652.511 226.561 653.055 224.132C655.191 225.723 654.437 223.001 656.197 223.085L656.448 223.378C655.861 221.87 654.27 220.321 653.935 219.19C653.265 219.441 652.678 220.656 652.008 219.525C652.008 220.069 651.296 220.195 650.668 220.488C651.966 221.284 651.631 222.121 652.846 222.498C652.218 223.504 652.385 222.163 651.757 223.127C652.162 223.325 652.553 223.549 652.93 223.797C652.93 224.593 651.841 223.378 651.924 224.509C652.469 224.509 653.265 225.221 653.39 226.142H653.013C653.6 226.687 653.223 227.776 654.689 227.189L653.307 228.236L654.312 227.943C654.312 229.995 651.673 230.666 652.972 233.011C653.348 232.425 653.851 233.011 654.019 233.346C654.856 232.299 653.265 232.006 653.139 231.126C654.144 230.917 655.443 232.634 656.029 231.419C654.856 232.76 656.029 234.058 653.474 234.435C653.181 236.027 654.312 236.822 653.474 238.623H653.097C654.731 239.126 652.134 240.089 653.809 241.597L654.27 240.634C654.94 240.634 654.94 241.22 655.024 241.89C654.773 241.89 654.773 241.89 654.437 241.89C655.652 242.183 655.861 244.194 656.238 244.403C656.238 243.565 655.401 242.56 655.108 241.513C655.736 241.974 656.95 241.723 656.741 242.518Z" fill="#928575"/>
<path d="M652.303 225.682L653.015 226.017C652.93 225.909 652.822 225.823 652.698 225.765C652.575 225.707 652.439 225.678 652.303 225.682Z" fill="#928575"/>
<path d="M656.324 250.895C656.575 252.109 655.193 250.895 655.235 252.319C656.575 253.031 656.156 250.308 657.873 250.769C657.538 251.732 659.172 252.109 659.465 252.445C659.004 252.513 658.563 252.675 658.167 252.92C657.771 253.165 657.429 253.487 657.161 253.869C657.789 253.869 657.622 255.334 658.083 255.963C657.831 253.827 659.465 256.884 659.423 254.874C660.302 254.413 661.852 255.376 661.685 256.34C661.517 257.303 660.847 256.34 660.554 255.837C659.255 256.34 660.554 257.219 659.884 258.141C662.438 258.392 665.663 262.748 667.087 259.732C667.087 258.894 666.292 258.936 665.789 258.517C666.417 260.277 664.574 259.481 664.072 259.69C664.072 258.811 662.397 258.392 663.444 257.931L665.035 258.182C662.485 254.701 660.176 251.048 658.125 247.251C658.268 247.821 658.45 248.381 658.669 248.926C657.831 248.926 657.454 248.256 656.91 247.67C656.362 248.169 655.845 248.701 655.36 249.261C655.36 248.591 654.858 248.131 655.36 247.963C654.355 247.502 653.936 247.963 653.434 248.591C652.596 246.958 653.434 246.539 651.926 245.366C650.795 248.675 653.559 247.628 653.392 251.146L656.324 250.895Z" fill="#928575"/>
<path d="M653.645 245.492L654.692 245.995L654.105 245.115L653.645 245.492Z" fill="#928575"/>
<path d="M658.041 245.827C657.623 245.827 657.371 245.618 656.952 245.827C656.869 246.832 657.455 246.539 658.041 245.827Z" fill="#928575"/>
<path d="M660.723 259.397L661.895 260.318L661.602 259.313C661.309 259.606 660.932 259.439 660.723 259.397Z" fill="#928575"/>
<path d="M670.774 264.884C669.559 262.957 668.303 262.79 667.758 260.277C666.041 260.277 666.125 262.12 664.91 262.413C665.287 263.46 667.004 262.078 668.009 262.832C667.297 263.837 669.182 264.172 669.475 265.387C669.635 265.205 669.837 265.064 670.063 264.977C670.289 264.889 670.533 264.857 670.774 264.884Z" fill="#928575"/>
<path d="M668.301 272.422C668.301 273.176 668.971 274.14 668.301 274.642C667.631 274.349 667.505 273.888 667.757 273.511C666.165 273.511 667.757 274.349 666.584 274.81C666.584 274.81 667.128 274.81 667.38 274.81C666.249 276.569 668.176 276.485 665.956 278.663C665.956 279.249 665.956 279.626 666.793 280.129C664.699 280.925 665.202 280.129 663.066 281.302C664.167 281.574 665.234 281.968 666.249 282.474C663.024 283.982 664.699 285.239 662.438 286.034C662.438 286.034 662.438 285.406 662.856 285.071C661.223 284.192 662.144 286.579 661.223 287.249L660.008 286.202C659.632 287.123 659.38 289.134 657.705 289.343L657.286 288.631C656.616 291.353 654.27 293.196 653.098 295.123H651.59C650.417 298.055 654.019 293.406 654.229 296.547C651.925 294.788 653.81 298.348 651.799 298.767C650.417 298.474 652.595 297.091 651.004 296.798C651.799 298.138 650.669 297.762 650.334 298.683C649.538 297.552 648.868 299.814 648.156 298.306C648.156 299.646 647.821 300.986 647.569 302.494C646.69 302.201 646.062 302.913 645.685 303.541C647.025 302.411 646.69 305.426 648.574 304.63C650.776 301.495 653.397 298.677 656.365 296.254C655.234 294.662 657.914 294.578 657.119 293.113C657.663 293.448 658.207 293.573 658.752 293.908C659.925 291.898 657.579 293.657 657.412 292.777C657.539 292.595 657.704 292.441 657.894 292.326C658.085 292.211 658.298 292.137 658.519 292.109C658.74 292.082 658.965 292.101 659.178 292.165C659.391 292.23 659.589 292.339 659.757 292.484C660.888 291.27 659.464 292.024 659.213 290.683L661.516 291.186C662.898 288.966 664.28 286.244 665.704 283.563C667.129 280.883 668.888 278.244 670.437 275.48H669.055C669.366 274.969 669.53 274.382 669.53 273.784C669.53 273.185 669.366 272.599 669.055 272.087C668.769 271.595 668.66 271.02 668.743 270.457C668.827 269.894 669.099 269.376 669.516 268.988L668.259 268.569C668.971 268.821 670.018 267.564 671.065 268.025C670.479 267.355 670.605 266.475 669.935 265.889V267.397C668.511 266.894 668.804 265.763 669.474 265.009C667.422 263.878 668.05 267.103 667.045 267.774C668.594 268.486 668.176 269.365 667.505 269.993C666.835 270.622 665.956 271.124 666.375 272.004C666.793 272.883 667.547 272.381 668.301 272.422Z" fill="#928575"/>
<path d="M671.525 268.737C671.393 268.598 671.237 268.485 671.064 268.402C671.191 268.546 671.349 268.661 671.525 268.737Z" fill="#928575"/>
<path d="M645.768 303.709C645.566 303.869 645.383 304.052 645.224 304.254C645.266 304.798 645.391 304.212 645.768 303.709Z" fill="#928575"/>
<path d="M669.476 265.344L669.434 265.387H669.476V265.344Z" fill="#928575"/>
<path d="M666.042 265.763L666.293 266.35L666.754 265.973L666.042 265.763Z" fill="#928575"/>
<path d="M638.985 308.4L639.53 308.819C639.409 308.614 639.214 308.464 638.985 308.4Z" fill="#928575"/>
<path d="M630.147 325.363L630.524 325.111C630.444 325.113 630.365 325.137 630.299 325.182C630.232 325.226 630.179 325.289 630.147 325.363Z" fill="#928575"/>
<path d="M585.25 342.492C583.834 342.62 582.433 342.872 581.061 343.246L581.438 342.66C580.685 342.66 577.878 342.157 578.632 344.168L579.344 343.875C581.522 343.875 580.056 345.592 581.564 346.639C583.7 346.974 585.082 344.503 586.506 345.215C587.176 345.215 587.051 345.885 586.799 346.388C588.433 346.639 588.977 344.587 589.941 344.293C590.318 346.89 591.532 346.429 592.789 345.676C594.045 344.922 595.469 343.833 596.977 345.257C598.275 344.587 600.202 344.67 601.668 343.246C601.081 344.754 603.301 342.953 603.301 344.461C603.008 341.445 608.662 344.461 607.783 340.608C610.379 340.859 607.783 340.356 610.673 340.315C610.673 340.692 610.379 340.859 610.254 340.985C611.552 341.362 611.259 338.891 612.725 340.231C614.861 339.644 612.725 339.1 613.479 337.676C615.74 337.257 615.363 337.927 617.164 338.891C616.62 337.132 618.211 337.383 618.798 336.043C618.505 336.043 616.997 336.42 617.583 335.372C620.054 334.493 618.923 333.362 620.808 331.854C622.86 333.069 618.714 332.985 621.353 333.446C620.431 334.954 619.342 335.414 619.217 337.132C621.398 336.189 623.333 334.756 624.871 332.943C626.085 332.524 624.871 334.116 625.75 333.739C628.221 333.32 627.635 330.179 629.645 329.928L629.897 331.017C629.897 329.258 633.415 328.964 634.63 326.828C634.085 326.577 633.75 326.41 633.75 325.949C634.546 326.996 634.923 326.284 635.383 325.321C635.844 324.357 636.221 323.185 637.519 322.849C637.017 322.442 636.615 321.924 636.346 321.335C636.077 320.747 635.948 320.104 635.97 319.457C636.487 319.29 637.044 319.29 637.561 319.457C636.221 320.923 638.943 321.635 638.566 323.645C638.86 321.97 640.242 319.708 639.111 318.368L640.326 318.996C640.744 316.986 637.519 317.07 638.985 315.143L639.907 315.436C640.117 313.483 640.971 311.656 642.336 310.243C643.666 308.93 644.695 307.344 645.351 305.594C645.058 304.798 642.587 304.505 642.085 304.128C641.374 305.859 640.977 307.703 640.912 309.573L639.697 308.693C640.284 309.615 639.949 311.457 641.121 310.997C641.121 312.295 639.488 310.997 639.823 312.798C638.315 312.253 638.525 311.29 637.352 310.745C637.38 311.308 637.45 311.868 637.561 312.421C637.101 311.792 636.807 313.133 636.347 312.421C636.597 312.914 636.727 313.459 636.727 314.012C636.727 314.565 636.597 315.111 636.347 315.604C635.833 316.365 635.638 317.297 635.802 318.201C635.802 317.865 635.928 317.489 636.179 317.07C637.059 317.07 636.933 317.824 637.101 318.368C635.844 318.745 635.97 319.122 635.258 319.666C635.718 320.378 636.975 321.509 636.221 322.514C635.132 321.3 634.294 323.31 633.122 322.514C634.085 323.897 631.614 324.483 632.033 325.321C631.656 326.033 630.734 326.451 630.232 325.739C629.729 325.027 630.232 325.362 630.525 325.195L629.897 325.572C629.897 325.572 629.897 325.279 629.897 325.195C629.897 325.111 629.897 326.493 628.892 326.284C628.892 325.949 628.892 325.698 629.227 325.362C627.719 326.074 628.18 329.09 626.211 328.587C626.211 329.383 624.745 330.472 626.002 331.729C625.206 331.477 624.703 330.179 623.572 331.142C623.572 332.818 621.939 331.435 621.436 332.776C621.981 330.723 621.436 332.399 621.436 330.472C620.347 330.472 620.012 332.818 618.379 333.362C618.044 333.111 617.876 332.734 617.541 332.483C617.248 333.195 617.081 334.619 616.034 333.739L616.536 334.66C615.238 334.66 613.939 335.624 612.348 334.995L611.762 337.383C609.207 336.126 607.573 338.723 606.442 340.901C605.689 340.901 604.558 340.901 604.432 340.566L604.977 339.644C603.971 339.644 602.422 339.1 602.296 340.817C601.333 341.613 601.249 339.938 600.411 339.854C598.736 342.66 593.878 339.393 593.752 342.995C595.214 343.149 596.688 343.149 598.15 342.995C597.773 343.498 598.15 344.084 597.647 344.293C595.93 344.796 594.841 343.623 593.208 344.293V342.032C591.616 341.11 590.443 342.032 589.019 342.702C587.595 343.372 586.087 344.042 585.25 342.492Z" fill="#928575"/>
<path d="M606.356 339.016L604.849 338.262L605.267 339.142C605.412 339.007 605.595 338.922 605.791 338.9C605.987 338.877 606.185 338.918 606.356 339.016Z" fill="#928575"/>
<path d="M605.478 339.142C605.251 339.335 605.053 339.561 604.892 339.812C605.161 339.765 605.402 339.615 605.562 339.393L605.478 339.142Z" fill="#928575"/>
<path d="M580.894 341.278C580.779 341.092 580.627 340.933 580.446 340.81C580.266 340.687 580.061 340.604 579.847 340.566C579.906 340.791 580.044 340.987 580.237 341.118C580.429 341.249 580.663 341.306 580.894 341.278Z" fill="#928575"/>
<path d="M579.343 341.068L579.678 341.738C579.539 341.529 579.427 341.304 579.343 341.068Z" fill="#928575"/>
<path d="M551.49 319.876L549.061 320.504C549.061 319.708 546.464 319.666 547.637 318.787C545.836 319.918 543.91 317.195 543.868 319.792C550.234 321.97 557.521 324.734 563.385 326.326L562.087 326.619C562.697 326.608 563.295 326.788 563.798 327.133C564.301 327.478 564.684 327.972 564.893 328.545C565.395 329.425 565.856 329.969 568.118 329.886L566.401 330.765C566.736 332.105 570.296 331.519 569.416 334.032L570.003 333.488C570.254 333.864 570.002 334.2 570.254 334.618V334.241C570.772 334.462 571.215 334.829 571.528 335.298C571.84 335.767 572.009 336.317 572.013 336.88C571.552 337.299 571.468 336.545 571.175 336.294C570.924 337.089 572.515 337.257 573.06 338.053C573.604 338.849 572.348 338.513 572.055 338.555C574.316 340.44 574.065 343.121 577.667 342.367C578.17 342.073 577.667 341.152 578.672 341.571C577.793 339.812 576.117 339.561 574.484 338.597L574.777 339.016C571.72 339.519 574.777 337.801 572.474 336.671C573.73 336.671 574.233 337.299 574.945 337.257C575.364 334.116 571.72 335.205 573.186 332.399C573.186 331.938 572.474 331.645 571.971 331.31C571.971 331.645 571.971 332.189 571.971 332.65C571.468 332.315 570.254 332.65 569.751 332.65C570.463 331.477 568.788 332.273 568.83 331.184C569.584 330.263 570.128 331.184 570.84 331.184L569.542 330.598C568.914 329.76 569.961 329.048 570.17 328.252C568.914 328.001 569.961 329.048 568.579 329.174C568.564 328.513 568.393 327.864 568.08 327.282C567.767 326.7 567.321 326.2 566.778 325.823C565.598 324.795 564.141 324.139 562.589 323.938C563.343 324.231 563.469 323.059 564.181 323.938C564.059 323.797 563.908 323.683 563.738 323.605C563.568 323.527 563.383 323.487 563.197 323.487C563.01 323.487 562.825 323.527 562.655 323.605C562.485 323.683 562.334 323.797 562.212 323.938C560.535 323.588 559.045 322.634 558.024 321.258V322.221C556.391 323.143 555.427 320.085 552.998 320.169C552.244 320.169 550.946 321.928 549.773 321.048C550.527 320.588 551.03 320.881 551.49 319.876Z" fill="#928575"/>
<path d="M542.863 318.494L544.161 317.782C543.491 317.195 541.732 317.782 541.481 318.661C542.151 318.661 542.654 319.666 543.114 319.122C543.575 318.577 543.324 318.536 542.863 318.494Z" fill="#928575"/>
<path d="M531.387 304.798C531.052 304.463 530.633 304.798 530.256 304.798C531.387 309.363 534.905 312.755 535.24 314.556C535.575 316.357 537.418 314.556 538.842 315.352L538.591 316.776C539.722 316.776 541.188 319.331 541.523 317.111C541.523 317.111 540.392 317.488 539.973 316.776L540.476 316.274C539.987 316.019 539.511 315.74 539.052 315.436L540.015 315.101C539.177 312.755 537.041 316.064 535.617 313.342L536.958 312.211C535.869 310.829 534.821 310.326 534.905 308.4C534.905 308.4 534.11 308.818 534.57 308.902C534.579 309.158 534.501 309.408 534.349 309.614C534.197 309.819 533.979 309.967 533.733 310.033C531.052 308.106 534.78 310.033 534.486 307.813C533.124 306.756 532.14 305.287 531.68 303.625C531.094 301.866 531.345 299.939 532.225 299.437C531.01 300.651 530.005 298.39 530.843 296.631C531.68 296.086 531.597 297.552 532.057 297.929C532.476 297.259 533.021 296.882 533.146 296.128C531.848 296.547 530.843 295.542 531.429 293.406C530.681 294.199 530.141 295.164 529.856 296.216C529.571 297.268 529.55 298.375 529.796 299.437C530.089 301.489 531.052 303.122 531.387 304.798Z" fill="#928575"/>
<path d="M529.712 304.086C529.71 304.227 529.743 304.366 529.809 304.491C529.875 304.615 529.971 304.721 530.089 304.798C529.937 304.277 529.825 303.745 529.754 303.207L529.712 304.086Z" fill="#928575"/>
<path d="M474.116 34.7201L433.979 106.185C415.765 138.615 427.29 179.67 459.72 197.884L531.185 238.021C563.615 256.235 604.67 244.71 622.884 212.28L663.021 140.815C681.235 108.385 669.71 67.3299 637.28 49.1161L565.815 8.97917C533.385 -9.2347 492.33 2.28992 474.116 34.7201Z" fill="#708371"/>
<g opacity="0.5">
<path d="M567.197 116.577C545.911 114.814 524.616 119.859 506.383 130.985C506.212 131.132 506.098 131.335 506.061 131.558C506.024 131.781 506.067 132.01 506.182 132.205C506.297 132.399 506.476 132.547 506.689 132.623C506.902 132.699 507.135 132.697 507.347 132.618C525.285 121.658 546.249 116.699 567.197 118.462C568.412 118.462 568.412 116.703 567.197 116.577Z" fill="white"/>
<path d="M560.788 114.148C559.669 140.616 564.418 167.004 574.693 191.422C575.153 192.511 576.996 192.05 576.535 190.919C566.336 166.656 561.603 140.446 562.672 114.148C562.672 112.934 560.829 112.934 560.788 114.148Z" fill="white"/>
<path d="M564.265 113.436L628.011 147.822C629.1 148.408 630.063 146.774 628.974 146.188L565.187 111.802C564.14 111.216 563.176 112.85 564.265 113.436Z" fill="white"/>
<path d="M569.291 106.065L612.974 65.6478C613.854 64.8102 612.514 63.4699 611.634 64.3076L567.783 104.724C566.903 105.562 568.244 106.902 569.123 106.065H569.291Z" fill="white"/>
<path d="M566.107 106.86C562.893 96.9482 556.79 88.2229 548.581 81.8048C540.371 75.3868 530.431 71.5688 520.036 70.8412C518.822 70.8412 518.822 72.6421 520.036 72.7259C530.049 73.4071 539.628 77.0702 547.54 83.2433C555.453 89.4164 561.336 97.8169 564.432 107.363C564.809 108.494 566.61 108.033 566.233 106.86H566.107Z" fill="white"/>
</g>
<g opacity="0.72">
<path d="M457.883 62.6327L458.26 61.0411H456.041C456.614 61.6173 457.23 62.1494 457.883 62.6327Z" fill="#928575"/>
<path d="M464.961 56.936C464.711 56.4461 464.528 55.9249 464.416 55.3864C461.317 54.8838 460.228 54.5906 459.39 54.5068C458.553 54.4231 457.589 54.5068 455.202 56.4335C455.67 57.5549 456.42 58.5361 457.38 59.2815C457.838 59.6937 458.396 59.9799 458.998 60.112C459.6 60.2442 460.226 60.2178 460.814 60.0354C460.348 59.5779 459.859 59.1445 459.349 58.737C458.762 58.2344 458.343 57.5224 458.846 56.8942C460.479 57.5643 460.396 58.8626 462.741 59.0721C464.542 57.6062 461.108 58.1925 462.155 56.3916L464.961 56.936Z" fill="#928575"/>
<path d="M459.514 53.5021C460.365 54.0448 461.279 54.4808 462.237 54.8004C461.231 54.2141 460.436 52.7482 459.514 53.5021Z" fill="#928575"/>
<path d="M459.433 51.8267C460.228 50.5703 461.485 52.8319 461.904 52.79C460.857 51.8017 459.917 50.7068 459.098 49.5232C459.124 50.301 459.236 51.0736 459.433 51.8267Z" fill="#928575"/>
<path d="M463.075 46.8845C463.164 46.6389 463.234 46.3869 463.284 46.1306C462.656 45.8374 463.075 46.3819 463.075 46.8845Z" fill="#928575"/>
<path d="M464.96 44.4551C463.62 43.785 463.453 44.9158 463.285 46.1304H463.536C464.877 46.3817 466.343 48.9785 465.044 49.2297C464.835 50.5281 462.657 48.8109 463.495 50.7375C464.394 50.7708 465.29 50.8688 466.175 51.0307C466.845 49.6905 464.919 45.921 464.96 44.4551Z" fill="#928575"/>
<path d="M463.075 46.8845C462.976 47.1307 462.834 47.3576 462.656 47.5546C463.075 47.6384 463.075 47.2615 463.075 46.8845Z" fill="#928575"/>
<path d="M460.856 49.062V50.0672L461.945 50.5279C461.652 50.0672 461.233 49.5646 460.856 49.062Z" fill="#928575"/>
<path d="M469.274 41.5654C469.861 43.4502 469.274 43.7014 468.227 43.9109C467.18 44.1203 466.468 44.4135 467.18 45.7118C468.688 44.4972 471.368 46.5076 471.745 48.6017C471.974 48.0326 472.254 47.4858 472.583 46.9683C472.454 45.8824 472.091 44.8372 471.52 43.9046C470.949 42.972 470.183 42.174 469.274 41.5654Z" fill="#928575"/>
<path d="M475.013 50.0256C474.957 49.7915 474.957 49.5477 475.013 49.3136C474.946 49.5463 474.946 49.7929 475.013 50.0256Z" fill="#928575"/>
<path d="M483.055 45.628C481.136 45.726 479.288 46.381 477.736 47.5127C478.364 46.3819 478.615 45.2092 479.578 45.0417C479.328 44.8264 479.008 44.7081 478.678 44.7081C478.348 44.7081 478.028 44.8264 477.777 45.0417C477.233 45.5024 476.856 46.005 476.312 45.7118C476.312 42.0261 478.657 45.7118 478.448 42.4868C477.764 42.4181 477.073 42.5188 476.437 42.78C475.99 43.103 475.622 43.5235 475.36 44.0096C475.099 44.4957 474.952 45.0348 474.929 45.5861C474.366 44.7817 473.705 44.0501 472.961 43.4082C473.464 44.6647 473.924 45.9212 474.301 47.2196C474.678 48.5179 475.013 43.9527 475.516 46.717C475.617 47.1266 475.636 47.5524 475.571 47.9694C475.507 48.3865 475.36 48.7865 475.139 49.1462C475.39 48.7692 475.851 49.4812 476.102 50.3189L476.353 51.4497C476.353 51.7429 476.353 51.9523 476.605 51.8267C477.685 51.0451 478.62 50.0813 479.369 48.9786C480.542 47.6803 481.756 46.005 483.055 45.628Z" fill="#928575"/>
<path d="M481.168 49.5647L480.792 51.1144L481.545 49.1459L481.168 49.5647Z" fill="#928575"/>
<path d="M489.672 47.2196C488.537 47.9551 487.293 48.5064 485.986 48.8531C485.774 48.1622 485.703 47.4359 485.777 46.717C485.777 47.6803 484.227 48.7693 484.06 49.5232C484.311 51.5754 485.777 51.8267 487.159 51.3241C488.394 50.7017 489.596 50.0167 490.761 49.2719C493.358 50.0258 493.483 50.2352 493.106 51.0728C492.729 51.9105 491.808 52.9157 493.106 54.4235C492.409 54.4869 491.709 54.3411 491.096 54.0046C490.293 53.7014 489.466 53.4633 488.625 53.2926C489.395 54.2246 490.475 54.8477 491.668 55.0478C492.86 55.2478 494.084 55.0112 495.117 54.3816C496.76 53.3258 498.125 51.8891 499.096 50.1933C498.3 50.1933 497.713 49.3975 496.708 50.1933C497.262 49.5044 497.766 48.7766 498.216 48.0154C495.507 46.9186 492.536 46.6419 489.672 47.2196Z" fill="#928575"/>
<path d="M484.394 45.4604C485.525 45.7536 485.818 46.1306 485.776 46.675C485.776 45.628 485.776 44.8741 484.394 45.4604Z" fill="#928575"/>
<path d="M500.309 49.3136C499.932 49.3136 499.639 49.6068 499.262 50.1094C499.597 50.235 499.932 50.0256 500.309 49.3136Z" fill="#928575"/>
<path d="M496.58 46.8844C497.319 46.6093 498.034 46.2731 498.716 45.8792L497.125 44.9996C496.79 45.3347 496.036 46.1305 496.58 46.8844Z" fill="#928575"/>
<path d="M551.407 16.6871C551.407 15.2212 550.905 14.3417 549.606 14.6349C549.899 12.6245 551.575 13.169 552.496 12.2057C550.863 10.6979 552.789 9.94399 552.496 8.01739C550.318 7.47291 549.229 10.1534 547.051 9.52517C547.184 8.8215 547.112 8.09447 546.842 7.43103C545.223 8.20213 543.559 8.87351 541.858 9.4414C540.305 10.1447 538.55 10.2637 536.916 9.77646C534.391 9.85212 531.998 10.9207 530.256 12.7501C525.748 13.9018 521.555 16.0484 517.985 19.0325C514.259 22.0535 510.747 25.3282 507.472 28.8331C508.268 29.922 509.106 31.011 509.943 32.0162C508.101 31.3879 508.771 33.8171 506.802 32.3931C507.472 32.3931 507.388 31.5973 507.682 31.0529C503.493 31.0529 505.211 36.1207 502.781 37.796C503.493 37.796 506.551 39.1781 506.635 40.1833C503.242 37.7541 504.792 43.2407 500.352 41.021C497.588 42.445 503.2 43.492 500.352 45.6699C501.651 47.9735 503.87 43.7014 505.504 44.4553C506.006 45.4186 505.253 46.0888 504.582 46.6332C503.912 47.1777 503.452 47.5547 504.582 48.4342C505.424 47.7874 506.171 47.0261 506.802 46.1725C507.347 45.4358 507.797 44.6338 508.142 43.7852C508.878 42.0286 509.385 40.1846 509.65 38.2986C509.769 34.9305 510.332 31.5928 511.326 28.3724L512.791 30.299C512.878 29.3421 513.182 28.4175 513.679 27.5954C514.176 26.7733 514.854 26.0754 515.662 25.5546C516.469 25.0338 517.385 24.7038 518.339 24.5897C519.293 24.4756 520.26 24.5804 521.168 24.8961C520.288 24.1841 521.168 23.8072 522.089 23.0952C523.011 22.3832 523.681 21.5874 522.089 19.5351C523.346 20.1215 523.43 19.8283 524.56 19.5351L524.058 17.9855C525.524 17.3153 526.403 19.6189 527.869 18.7394C525.943 17.2735 526.78 16.1426 526.571 14.2579C529.38 15.3522 532.097 16.6687 534.696 18.1949C534.36 17.38 533.827 16.6608 533.146 16.1007C534.528 16.5196 533.775 14.593 533.9 13.7972C535.073 13.3784 535.617 16.1426 535.911 17.4829C538.047 17.7761 538.005 12.4151 540.099 13.9228L539.177 11.8287C541.481 10.8235 543.659 13.2108 546.13 12.2894C547.345 15.2631 544.162 15.0537 543.324 16.4777C543.826 17.1059 544.832 17.1897 545.209 18.1949C546.273 16.2905 547.614 14.5544 549.187 13.0433C547.68 16.4777 550.695 16.2264 551.407 16.6871Z" fill="#928575"/>
<path d="M545.081 18.0693C544.858 18.4747 544.663 18.8945 544.495 19.3258C544.705 19.3258 544.872 18.907 545.207 19.0326C545.218 18.7068 545.176 18.3814 545.081 18.0693Z" fill="#928575"/>
<path d="M551.407 16.6869V17.022C551.658 16.8544 551.616 16.7707 551.407 16.6869Z" fill="#928575"/>
<path d="M537.04 19.9958C536.34 19.2728 535.552 18.6397 534.695 18.1111C534.875 18.6103 535.189 19.0503 535.603 19.3828C536.017 19.7152 536.514 19.9273 537.04 19.9958Z" fill="#928575"/>
<path d="M523.429 23.137C523.429 23.6814 523.889 24.1003 524.057 24.8542C524.811 24.5191 524.685 23.7233 523.429 23.137Z" fill="#928575"/>
<path d="M547.511 18.5717L549.187 17.9434L549.857 17.3571L547.511 18.5717Z" fill="#928575"/>
<path d="M585.834 25.1472C585.834 21.9642 582.986 21.6291 581.646 19.7025C577.458 17.9434 577.458 23.8908 574.233 21.3778L578.421 17.6502C575.364 15.1792 570.422 10.8234 565.438 13.8808C565.438 13.1269 565.144 12.038 566.401 11.8286C563.804 10.9071 562.213 18.5298 559.909 15.7236C563.804 13.5457 559.909 12.2893 561.794 9.35747H562.422C560.035 8.98053 556.726 10.0276 555.386 9.60877C555.092 10.9909 555.888 13.2526 554.045 13.1688C554.757 13.5457 554.045 15.0954 554.045 16.4775C556.098 15.1373 556.768 16.4775 558.234 14.886C558.694 16.8964 557.396 15.3048 557.899 17.3152C558.371 16.7831 558.874 16.2796 559.406 15.8074C560.244 16.5613 557.857 17.1895 559.197 18.111C559.534 17.5837 560.05 17.1959 560.65 17.0189C561.251 16.8419 561.895 16.8876 562.464 17.1477L561.877 17.6084C563.092 17.2314 563.888 18.7392 564.767 15.7655C564.767 16.8545 564.767 17.9434 564.474 19.0324L565.228 17.0639C567.49 19.0324 565.228 23.7651 569.416 23.4301C569.165 22.4249 570.463 22.006 571.05 22.006C570.757 19.9119 568.621 22.006 567.448 21.7129C568.369 19.8281 571.846 19.1999 571.092 17.1895C571.301 20.2051 574.4 19.1999 571.72 23.7232C573.311 25.5242 575.699 24.2677 576.913 26.9063L576.369 27.4508C578.966 25.1473 577.081 30.1313 580.934 28.7073L580.348 27.1995C581.269 26.1943 581.856 26.5713 582.777 26.9482C582.358 27.3251 582.358 27.3251 582.232 28.079C583.95 26.32 586.421 27.6602 587.342 27.1995C586.546 26.1943 584.159 27.1995 582.526 26.6131C584.075 25.9011 585.122 24.1839 585.834 25.1472Z" fill="#928575"/>
<path d="M560.871 18.5297L561.96 17.6501C561.51 17.8155 561.127 18.1247 560.871 18.5297Z" fill="#928575"/>
<path d="M595.256 33.7337C596.974 34.5713 594.377 35.7859 596.01 37.0843C598.063 35.6184 594.377 33.3567 596.513 31.0113C597.392 32.6029 599.277 30.2574 599.905 30.1737C599.239 31.9129 599.137 33.8177 599.612 35.6184C600.324 34.697 601.832 36.4142 603.005 36.4561C600.199 34.4457 605.308 35.2415 603.005 33.0217C603.005 31.0532 605.601 29.5873 606.69 31.0113C606.69 32.4353 605.811 32.184 605.141 32.2678C604.68 34.9483 606.9 33.608 607.444 36.0372C609.832 32.184 617.706 31.849 615.235 26.1529C614.313 25.064 613.601 26.5299 612.68 26.8649C615.402 27.912 612.889 29.9642 612.68 31.0532C611.507 30.1737 609.706 32.184 610.041 30.048L611.633 27.7026C605.811 26.9068 598.565 28.0376 592.911 26.9068C593.689 27.2595 594.504 27.5263 595.34 27.7026C594.67 29.2522 593.414 29.0428 592.199 29.4198C592.199 30.8019 592.199 32.2259 592.492 33.608C591.696 33.0636 590.649 33.3149 591.152 32.0165C590.538 32.4117 590.081 33.0083 589.86 33.7038C589.638 34.3994 589.665 35.1504 589.937 35.8278C587.047 35.8278 587.383 33.9431 584.283 35.2415C585.623 37.7963 587.006 37.6707 588.471 37.3356C589.314 37.0614 590.218 37.0382 591.073 37.2687C591.928 37.4993 592.698 37.9736 593.288 38.634C593.791 37.0424 594.544 35.3671 595.256 33.7337Z" fill="#928575"/>
<path d="M586.001 32.8957L587.802 31.5554H586.001V32.8957Z" fill="#928575"/>
<path d="M591.07 25.7336C590.777 26.5713 590.19 26.6969 589.813 27.4927C591.028 28.6654 591.279 27.4508 591.07 25.7336Z" fill="#928575"/>
<path d="M609.413 36.0786L611.507 35.2828L610.083 34.5708C610.115 34.859 610.07 35.1505 609.952 35.4155C609.834 35.6805 609.648 35.9094 609.413 36.0786Z" fill="#928575"/>
<path d="M624.575 25.8595C621.057 25.8595 619.8 27.6605 616.198 25.8595C614.649 28.4981 617.12 30.6341 616.492 33.0214C618.041 33.5659 617.79 29.1682 619.591 28.3725C620.135 30.6341 622.188 27.9955 623.779 28.7494C623.714 28.239 623.751 27.7209 623.888 27.2248C624.025 26.7288 624.258 26.2648 624.575 25.8595Z" fill="#928575"/>
<path d="M630.817 37.2514C631.613 37.7959 633.623 37.4609 633.413 38.8849C632.241 39.6388 631.487 39.555 631.361 38.8849C629.309 41.3141 632.45 39.3456 631.361 41.5235C631.361 41.2722 631.78 40.6021 632.492 40.4345C633.413 43.1988 635.717 40.4345 636.01 45.0835C637.057 45.0835 637.309 45.8793 639.193 45.0835C637.727 48.5179 637.267 47.3033 636.262 51.0309C638.092 49.7186 640.024 48.5561 642.041 47.5546C640.198 53.0412 644.177 51.7429 642.502 55.3029C642.293 55.0516 641.539 54.9259 641.623 54.0883C638.272 55.638 643.047 56.0987 642.837 57.8158L639.78 58.6535C640.701 59.8262 643.423 61.6691 641.706 64.0145H640.073C643.382 66.8625 643.34 71.3021 645.141 74.1082L643.549 76.1186C646.732 79.888 643.8 71.7209 648.994 73.8569C643.423 75.4904 651.297 75.7417 649.455 78.6734C647.402 80.1812 647.863 76.3699 645.518 78.129C648.533 78.129 646.565 79.2598 647.612 80.4325C644.847 80.4325 647.612 83.1968 644.429 82.8617C646.355 84.1182 648.282 85.4166 650.167 86.7568C648.701 87.6782 649.119 88.9766 649.622 89.9399C649.371 87.385 653.81 90.2331 654.774 87.2175C652.508 82.0816 651.311 76.5383 651.256 70.9251C647.402 71.2183 650.544 67.6164 647.067 67.5745C648.24 67.1557 649.161 66.4856 650.334 66.0667C648.659 63.0093 648.491 67.3651 646.942 66.9044C646.062 65.606 647.989 63.8888 649.371 63.6375C648.91 61.2502 648.282 63.6376 645.936 63.0093L649.58 60.3288C647.863 56.8107 645.392 52.9575 643.298 48.9367C641.179 44.8518 639.278 40.6576 637.602 36.3719C637.057 37.1258 636.471 37.7959 635.885 38.5079C635.34 36.4976 633.12 36.2044 631.403 36.2463C629.686 36.2881 628.765 36.0368 628.346 32.77C627.731 33.3564 627.145 33.9427 626.587 34.5291C627.592 33.5239 627.173 30.3408 628.806 29.21C627.382 29.6288 626.461 28.4142 625.121 28.9587L626.838 30.634C624.911 32.4768 623.906 30.634 623.613 28.8749C620.388 31.0947 624.786 33.5658 624.534 35.9112C626.754 33.9008 627.382 35.5343 627.341 37.1677C627.299 38.8011 626.754 40.6858 628.136 40.5183C630.607 39.9738 629.937 38.3823 630.817 37.2514Z" fill="#928575"/>
<path d="M630.02 28.5819C629.698 28.6519 629.397 28.7952 629.14 29.0007C629.456 28.9151 629.754 28.7733 630.02 28.5819Z" fill="#928575"/>
<path d="M649.747 89.8563C649.767 90.2447 649.852 90.6269 649.998 90.9872C650.71 91.1966 650.166 90.7359 649.747 89.8563Z" fill="#928575"/>
<path d="M621.393 34.7806L622.314 34.9481L622.273 33.7335L621.393 34.7806Z" fill="#928575"/>
<path d="M648.785 102.63L650.084 102.17C649.614 102.19 649.162 102.35 648.785 102.63Z" fill="#928575"/>
<path d="M661.641 126.838V126.21C661.562 126.295 661.518 126.408 661.518 126.524C661.518 126.641 661.562 126.753 661.641 126.838Z" fill="#928575"/>
<path d="M645.433 194.521C644.49 196.67 643.787 198.918 643.339 201.222L642.795 199.924C642.27 200.849 641.822 201.815 641.455 202.814C641.12 203.986 641.036 205.285 642.837 205.871V204.489C644.596 201.348 645.894 205.536 648.742 204.698C651.046 202.06 648.198 197.327 650.543 196.322C651.004 195.442 652.051 196.322 652.679 197.285C654.48 195.484 651.59 192.552 651.883 191.045C656.532 193.516 656.909 191.505 656.742 189.16C656.574 186.815 656.114 184.05 659.799 183.925C659.799 181.747 661.81 179.736 660.846 176.344C662.815 178.606 661.893 174.124 664.49 175.716C659.045 172.993 669.558 169.349 662.312 166.585C665.37 163.863 661.935 166.334 664.7 162.941C665.537 162.941 665.37 163.821 665.453 164.114C667.38 162.941 662.899 160.931 666.626 160.512C667.925 157.455 664.741 159.465 663.15 157.162C664.741 154.146 665.537 155.235 669.013 154.02C665.495 153.057 667.589 151.382 665.998 149.455C665.747 149.832 664.658 151.926 663.527 150.251C664.741 146.607 661.6 146.858 661.098 143.34C665.286 142.042 660.763 146.817 664.323 144.136C665.914 146.607 665.495 148.324 668.218 149.958C668.953 146.47 668.647 142.844 667.338 139.529C668.008 137.686 669.181 140.66 669.642 139.194C671.652 135.885 665.83 133.833 667.673 131.236L669.725 131.864C667.003 130.189 670.354 125.875 668.678 122.776C667.631 123.237 666.961 123.53 666.249 123.153C668.846 123.153 668.134 121.98 667.087 120.598C666.04 119.216 664.741 117.959 665.914 115.991C664.509 116.562 662.98 116.764 661.475 116.577C660.779 116.573 660.092 116.416 659.464 116.117C659.93 115.146 660.602 114.288 661.433 113.604C661.642 115.405 662.815 114.86 664.616 114.609C665.319 114.397 666.061 114.347 666.787 114.463C667.512 114.579 668.202 114.858 668.804 115.279C668.093 114.707 667.46 114.046 666.919 113.31C665.705 111.677 664.281 109.918 662.27 110.42L664.532 108.955C662.48 106.651 658.878 111.928 658.166 108.033L659.632 106.777C657.504 104.944 656.118 102.397 655.737 99.6147C655.404 96.809 654.135 94.1973 652.135 92.2015C650.501 91.9502 647.109 94.8401 645.936 95.217C647.877 97.5783 650.269 99.529 652.972 100.955L650.124 102.002C652.26 102.002 654.313 103.719 655.318 101.709C657.37 102.379 653.559 104.18 656.156 104.934C653.601 106.735 652.47 105.688 650.25 107.028C651.086 107.435 651.955 107.771 652.847 108.033C651.423 108.243 652.847 109.834 651.548 110.085C654.522 110.546 655.15 111.509 655.737 112.808C656.323 114.106 656.7 115.53 658.208 115.74C657.952 115.229 657.658 114.739 657.328 114.274C658.459 112.933 659.129 113.687 659.967 113.771C658.878 116.075 659.464 116.158 659.171 117.499L660.846 117.038C662.228 116.703 663.904 116.619 664.239 117.75C661.056 118.378 663.108 120.724 660.302 121.436C663.652 121.436 661.726 124.744 663.611 124.954C663.812 125.188 663.936 125.479 663.967 125.786C663.998 126.093 663.933 126.402 663.783 126.672C663.632 126.942 663.402 127.158 663.124 127.293C662.846 127.428 662.533 127.474 662.229 127.425C662.229 127.425 661.81 126.964 661.642 126.671V127.676C661.265 127.676 660.972 127.676 660.93 127.676C660.93 128.598 663.234 128.598 661.6 129.77C660.721 129.77 660.763 129.1 660.386 128.598C659.841 130.943 665.37 132.786 662.312 134.88C663.862 135.341 663.778 138.189 667.338 137.812C666.04 138.524 663.15 137.812 663.653 140.157C666.459 141.623 662.312 142.335 664.071 144.094C661.181 141.665 663.192 144.094 660.428 141.874C659.087 143.089 662.773 145.602 661.893 147.989C661.14 147.989 660.302 147.989 659.548 147.989C660.428 149.036 662.647 150.502 660.092 150.921L662.187 151.214C660.804 152.638 661.014 155.067 658.375 156.282L661.768 159.256C656.993 160.973 659.674 165.454 662.354 168.805C661.852 169.768 660.679 171.067 659.841 170.773C659.004 170.48 659.171 169.852 658.836 169.224C658.208 170.648 655.402 171.611 658.208 173.412C658.627 175.255 655.695 173.705 654.773 174.543C657.956 179.359 647.946 181.579 653.894 185.516C654.522 184.343 656.909 182.668 657.663 180.197C658.166 181.16 659.674 181.244 659.422 182.166C658.668 184.72 655.653 184.762 655.611 187.61L651.716 185.265C648.7 186.144 649.161 188.448 649.245 190.751C649.329 193.055 648.868 195.568 645.433 194.521Z" fill="#928575"/>
<path d="M659.002 166.585L656.279 167.591L658.206 168.009C658.161 167.864 658.147 167.71 658.163 167.559C658.179 167.407 658.226 167.261 658.3 167.128C658.375 166.995 658.475 166.878 658.596 166.785C658.716 166.692 658.854 166.624 659.002 166.585Z" fill="#928575"/>
<path d="M658.208 168.051C658.298 168.517 658.483 168.959 658.753 169.349C658.855 169.171 658.91 168.969 658.91 168.763C658.91 168.557 658.855 168.355 658.753 168.177L658.208 168.051Z" fill="#928575"/>
<path d="M640.868 198.919C640.57 198.861 640.262 198.889 639.981 199.001C639.699 199.112 639.454 199.301 639.276 199.547C639.905 200.091 640.868 199.672 640.868 198.919Z" fill="#928575"/>
<path d="M639.61 200.929L640.699 201.264V200.762L639.61 200.929Z" fill="#928575"/>
<path d="M591.237 217.682L590.357 221.87C589.142 221.033 587.174 224.383 586.755 221.87C587.09 225.681 581.604 225.095 585.415 228.404C589.394 225.179 593.792 222.121 597.98 219.022C601.94 216.283 605.616 213.154 608.953 209.682C608.741 210.426 608.574 211.181 608.45 211.944C608.606 211.551 608.839 211.194 609.136 210.893C609.434 210.592 609.788 210.355 610.179 210.194C610.57 210.034 610.99 209.954 611.412 209.96C611.835 209.965 612.252 210.056 612.639 210.227C614.021 210.52 614.817 210.478 616.534 206.667L616.241 210.52C618 211.525 620.429 204.991 622.523 209.18V207.63C623.193 207.63 623.403 208.384 624.073 208.426L623.821 207.714C624.453 207.11 625.293 206.772 626.167 206.772C627.041 206.772 627.881 207.11 628.512 207.714C628.512 208.928 627.591 208.216 627.046 208.51C627.8 209.808 629.392 207.295 630.816 207.295C631.947 208.384 630.816 209.054 630.816 209.557C632.647 209.084 634.547 208.942 636.428 209.138C638.02 209.138 639.569 208.3 640.323 204.95C640.323 203.861 638.732 203.442 640.03 202.52C637.056 201.599 635.507 204.028 632.868 205.662H633.58C631.653 211.232 631.988 204.489 628.764 206.75C629.685 204.573 631.067 204.614 631.612 203.4C628.261 199.212 626.334 206.415 624.324 200.803H624.575C624.115 200.259 623.067 201.222 622.23 201.683C622.481 202.395 623.235 202.814 623.738 203.358C622.9 203.819 622.314 206.206 621.979 207.253C621.267 204.782 620.764 208.384 619.466 207.253C619.047 204.95 620.68 205.159 621.308 203.986L619.549 205.494C618 205.494 618.042 203.023 617.204 201.766C615.906 203.526 618 202.981 616.994 205.452C616.316 204.71 615.42 204.201 614.434 203.998C613.449 203.794 612.425 203.908 611.508 204.321C609.202 204.991 607.221 206.481 605.937 208.51C606.859 207.756 605.309 206.122 606.775 205.913C606.105 205.662 604.89 207.463 605.644 209.054C604.842 210.096 603.771 210.9 602.546 211.38C601.321 211.859 599.989 211.996 598.692 211.776L600.2 212.907C600.2 216.258 595.174 213.703 593.415 217.096C592.786 218.017 594.545 221.996 592.367 222.498C591.572 219.776 592.535 219.315 591.237 217.682Z" fill="#928575"/>
<path d="M582.65 227.943C582.65 227.022 582.65 226.059 582.65 225.179C581.268 225.179 580.933 228.865 581.812 230.205C582.524 229.367 584.241 229.702 583.739 228.32C583.487 228.111 583.11 227.315 582.65 227.943Z" fill="#928575"/>
<path d="M555.217 230.54C554.422 230.833 554.254 231.755 553.71 232.257C560.913 234.938 568.327 233.179 571.007 234.728C573.227 235.105 572.976 231.462 575.195 230.079L576.913 232.132C577.75 230.373 582.525 231.336 579.719 227.943C579.468 227.692 579.342 230.121 578.002 229.828L577.708 228.446C576.996 228.907 576.243 229.242 575.447 229.661L575.74 227.776C573.813 227.022 573.646 228.404 573.227 229.912C572.808 231.42 572.222 233.137 569.876 232.592L569.499 229.116C566.819 229.116 565.311 230.373 562.966 228.111C562.966 228.111 562.966 229.828 563.343 229.158C563.677 229.508 563.908 229.943 564.012 230.416C564.115 230.889 564.086 231.381 563.929 231.838C559.071 234.142 564.767 229.87 561.877 228.111C559.426 229.253 556.646 229.476 554.045 228.739C551.239 227.943 548.935 225.807 549.144 223.965C549.189 224.248 549.165 224.538 549.075 224.81C548.985 225.082 548.831 225.329 548.626 225.53C548.421 225.731 548.171 225.88 547.897 225.964C547.623 226.049 547.333 226.067 547.05 226.017C546.325 225.933 545.629 225.681 545.019 225.281C544.408 224.881 543.899 224.344 543.532 223.713C543.783 221.912 545.794 223.294 546.841 222.917C546.422 221.703 546.548 220.53 545.626 219.776C544.663 221.996 541.982 222.75 539.386 219.776C539.695 221.584 540.501 223.27 541.714 224.646C542.928 226.022 544.5 227.033 546.255 227.566C549.438 229.409 552.579 229.409 555.217 230.54Z" fill="#928575"/>
<path d="M552.328 232.551C552.561 232.652 552.819 232.678 553.066 232.626C553.314 232.573 553.539 232.445 553.711 232.258C552.882 231.988 552.083 231.637 551.323 231.211L552.328 232.551Z" fill="#928575"/>
</g>
<g opacity="0.5">
<path d="M592.912 126.671C607.245 117.708 623.321 111.897 640.072 109.624C641.245 109.624 640.742 107.614 639.569 107.782C622.659 110.123 606.433 116.003 591.949 125.037C590.943 125.666 591.949 127.299 592.912 126.671Z" fill="white"/>
</g>
<g opacity="0.5">
<path d="M611.509 113.688L631.906 88.9349C632.66 88.0134 631.361 86.6732 630.565 87.5946L610.169 112.347C609.415 113.311 610.755 114.651 611.509 113.688Z" fill="white"/>
</g>
<g opacity="0.5">
<path d="M558.277 163.318C546.456 178.548 538.573 196.458 535.325 215.462C535.325 216.635 536.959 217.137 537.168 215.965C540.377 197.127 548.189 179.373 559.91 164.281C560.622 163.318 558.989 162.355 558.277 163.318Z" fill="white"/>
</g>
<g opacity="0.5">
<path d="M548.266 170.396C542.505 174.668 535.502 176.934 528.33 176.846C528.114 176.892 527.92 177.01 527.781 177.182C527.642 177.353 527.566 177.568 527.566 177.788C527.566 178.009 527.642 178.223 527.781 178.395C527.92 178.566 528.114 178.685 528.33 178.731C535.854 178.837 543.207 176.484 549.271 172.029C550.235 171.317 549.271 169.684 548.35 170.396H548.266Z" fill="white"/>
</g>
<g opacity="0.5">
<path d="M542.906 78.0871C543.283 63.847 552.204 51.6591 553.209 37.3352C553.911 25.5305 551.423 13.7544 546.006 3.24273C545.461 2.15377 543.828 3.24273 544.372 4.16414C551.784 18.4655 553.375 35.0802 548.812 50.5283C545.964 59.91 541.273 67.9934 541.021 77.9615C541.021 79.1761 542.864 79.1761 542.906 77.9615V78.0871Z" fill="white"/>
</g>
<g opacity="0.5">
<path d="M552.204 42.1936C559.308 39.9028 565.66 35.7352 570.59 30.1313C571.428 29.2518 570.088 27.9116 569.292 28.833C564.552 34.1722 558.483 38.1607 551.701 40.3926C550.571 40.7695 551.073 42.5705 552.204 42.1936Z" fill="white"/>
</g>
<path d="M577.417 321.718L577.793 322.556L578.757 321.132L577.417 321.718Z" fill="#928575"/>
<path d="M577.627 328.797H579.009C580.684 324.022 580.851 325.739 580.768 321.677C579.154 322.176 577.8 323.289 576.998 324.776C577.543 324.776 579.009 323.436 579.386 324.315C578.464 325.446 577.878 324.943 576.705 326.451C576.998 328.336 577.878 325.697 578.715 326.87L577.627 328.797Z" fill="#928575"/>
<path d="M581.143 325.028C580.667 325.675 580.247 326.362 579.887 327.08C580.347 326.368 581.353 325.74 581.143 325.028Z" fill="#928575"/>
<path d="M582.066 324.902C582.652 325.404 581.186 326.535 581.145 326.786L583.406 324.315L582.066 324.902Z" fill="#928575"/>
<path d="M584.787 326.536H585.248C585.373 325.74 585.08 326.242 584.787 326.536Z" fill="#928575"/>
<path d="M586.38 326.912C586.589 325.781 585.961 326.2 585.249 326.451C585.249 327.498 583.825 329.383 583.448 328.504C582.568 328.504 583.657 326.619 582.401 327.666V329.718C583.448 330.179 585.542 327.498 586.38 326.912Z" fill="#928575"/>
<path d="M584.788 326.535H584.537C584.537 326.912 584.537 326.744 584.788 326.535Z" fill="#928575"/>
<path d="M583.489 325.53L582.903 325.781L582.568 326.703L583.489 325.53Z" fill="#928575"/>
<path d="M588.724 327.959C587.091 330.64 587.216 326.786 585.918 328.839C586.881 329.216 586.546 331.603 585.541 333.027L586.965 332.692C587.971 331.304 588.579 329.667 588.724 327.959Z" fill="#928575"/>
<path d="M586.924 335.917C587.052 335.775 587.209 335.661 587.384 335.582C587.289 335.603 587.198 335.644 587.119 335.701C587.04 335.759 586.973 335.833 586.924 335.917Z" fill="#928575"/>
<path d="M594.295 334.116C592.997 334.451 591.74 334.912 590.484 335.372C591.238 334.619 591.656 333.739 592.326 333.739C591.614 332.776 590.442 334.451 589.813 333.739C591.07 331.1 591.321 334.409 592.201 331.896C591.614 331.603 590.651 331.226 588.976 333.111V330.849L587.761 333.823C587.761 334.828 589.688 332.064 588.85 334.116C588.264 335.372 587.761 335.372 587.384 335.54C588.264 335.289 587.636 338.556 588.85 338.807C590.065 339.058 592.662 334.912 594.295 334.116Z" fill="#928575"/>
<path d="M592.37 337.09L591.783 338.221L592.663 336.755L592.37 337.09Z" fill="#928575"/>
<path d="M597.103 335.372L594.841 336.168C595.008 335.669 595.233 335.191 595.511 334.744C595.092 335.372 594.087 336.168 593.752 336.712C592.496 339.351 595.511 336.712 596.391 336.712C596.851 338.848 595.302 337.885 594.045 340.356C593.752 340.021 594.045 339.477 593.836 338.932C592.538 342.031 595.218 340.482 596.307 340.398C596.307 340.063 596.977 339.393 596.516 339.351H597.689C598.694 337.257 598.611 336.252 597.103 335.372Z" fill="#928575"/>
<path d="M595.092 334.116C595.594 334.116 595.636 334.535 595.427 334.87C595.804 334.116 595.971 333.446 595.092 334.116Z" fill="#928575"/>
<path d="M596.514 340.775C596.514 340.775 596.514 340.775 596.221 340.775C595.928 340.775 596.221 340.817 596.514 340.775Z" fill="#928575"/>
<path d="M598.441 337.886C598.598 338.156 598.738 338.436 598.86 338.723L599.614 337.551C599.406 337.498 599.189 337.501 598.983 337.56C598.777 337.619 598.59 337.731 598.441 337.886Z" fill="#928575"/>
<path d="M596.571 361.259C596.314 360.918 595.716 361.003 595.203 360.704C595.075 361.259 595.545 361.559 596.571 361.259Z" fill="#928575"/>
<path d="M538.131 273.805L540.141 275.983C539.178 273.889 538.466 273.512 538.131 273.805Z" fill="#B08ABB"/>
<path d="M532.978 262.664C532.515 263.103 532.01 263.496 531.47 263.837C531.809 263.813 532.134 263.688 532.402 263.479C532.671 263.271 532.871 262.987 532.978 262.664Z" fill="#B08ABB"/>
</g>
<defs>
<clipPath id="clip0_784_2845">
<rect width="673" height="438" fill="white"/>
</clipPath>
</defs>
</svg>
