<svg width="189" height="192" viewBox="0 0 189 192" fill="none" xmlns="http://www.w3.org/2000/svg">
<g clip-path="url(#clip0_788_4600)">
<path d="M147.292 19.667C108.758 -2.14326 59.8393 11.4139 38.0291 49.9477C16.2188 88.4815 29.7759 137.4 68.3097 159.21C106.844 181.021 155.762 167.463 177.572 128.93C199.383 90.3958 185.825 41.4773 147.292 19.667Z" fill="#93A658"/>
<path d="M144.173 34.9735C105.639 13.1633 56.7207 26.7204 34.9104 65.2542C13.1002 103.788 26.6573 152.707 65.1911 174.517C103.725 196.327 152.643 182.77 174.454 144.236C196.264 105.702 182.707 56.7838 144.173 34.9735Z" fill="#97C364"/>
<path d="M119.754 10.491C81.2198 -11.3192 32.3012 2.23789 10.491 40.7717C-11.3193 79.3055 2.23783 128.224 40.7716 150.034C79.3055 171.845 128.224 158.287 150.034 119.754C171.845 81.2199 158.287 32.3013 119.754 10.491Z" fill="#97C364"/>
<path d="M186.453 81.8438L184.956 81.0955L185.372 81.9685C185.515 81.8347 185.697 81.7504 185.892 81.7279C186.086 81.7055 186.283 81.7461 186.453 81.8438Z" fill="#928575"/>
<path d="M185.579 81.9683C185.353 82.1604 185.157 82.3845 184.997 82.6334C185.264 82.5871 185.503 82.4379 185.662 82.2177L185.579 81.9683Z" fill="#928575"/>
<path d="M161.174 84.0888C161.06 83.9045 160.909 83.7463 160.73 83.6245C160.551 83.5027 160.348 83.4201 160.135 83.3821C160.193 83.6056 160.331 83.8003 160.522 83.9302C160.713 84.0601 160.945 84.1165 161.174 84.0888Z" fill="#928575"/>
<path d="M159.639 83.8816L159.972 84.5467C159.834 84.3393 159.723 84.1159 159.639 83.8816Z" fill="#928575"/>
<path d="M110.373 47.1728C110.371 47.3126 110.404 47.4506 110.47 47.5741C110.535 47.6976 110.631 47.8027 110.747 47.8795C110.597 47.3621 110.486 46.834 110.415 46.2998L110.373 47.1728Z" fill="#928575"/>
<g opacity="0.5">
<path d="M136.689 170.726C133.779 164.199 134.444 156.467 132.532 149.608C131.094 144.705 129.026 140.009 126.379 135.639C119.992 125.826 112.425 116.835 103.847 108.867C103.015 107.993 101.685 109.324 102.517 110.197C112.014 118.81 120.145 128.819 126.629 139.88C131.95 150.19 130.453 161.456 134.943 171.682C135.442 172.763 137.063 171.682 136.564 170.726H136.689Z" fill="white"/>
</g>
<g opacity="0.5">
<path d="M116.321 120.298C130.165 107.826 156.937 117.263 169.492 126.867C170.448 127.573 171.363 125.952 170.448 125.245C157.145 115.102 129.458 105.748 114.991 118.968C114.118 119.799 115.448 121.13 116.321 120.298Z" fill="white"/>
</g>
<g opacity="0.5">
<path d="M130.453 111.735C147.046 103.938 165.322 100.408 183.624 101.466C184.83 101.466 184.83 99.637 183.624 99.5954C165.012 98.5732 146.439 102.202 129.58 110.155C128.499 110.654 129.58 112.275 130.536 111.735H130.453Z" fill="white"/>
</g>
<g opacity="0.5">
<path d="M118.813 126.035C109.671 142.993 102.315 160.854 96.8633 179.331C96.8319 179.561 96.8852 179.794 97.0132 179.988C97.1412 180.181 97.3353 180.322 97.5591 180.383C97.7829 180.444 98.0212 180.421 98.2298 180.32C98.4383 180.218 98.6027 180.044 98.6925 179.83C104.07 161.471 111.343 143.721 120.393 126.867C120.975 125.786 119.354 124.871 118.813 125.91V126.035Z" fill="white"/>
</g>
<g opacity="0.5">
<path d="M105.302 140.087C98.7339 139.755 94.4935 146.489 90.752 150.979C85.4987 157.221 80.6259 163.774 76.16 170.601C75.4948 171.641 77.1162 172.555 77.7814 171.558C81.3566 166.112 85.1397 160.79 89.2554 155.677C92.7474 151.52 98.8586 141.625 105.302 141.958C106.508 141.958 106.508 140.17 105.302 140.087Z" fill="white"/>
</g>
<path d="M157.723 64.675L158.097 65.5065L159.053 64.093L157.723 64.675Z" fill="#928575"/>
<path d="M157.931 71.7001H159.303C160.966 66.9609 161.132 68.6653 161.049 64.6328C159.447 65.1287 158.104 66.2333 157.308 67.7092C157.848 67.7092 159.303 66.3789 159.677 67.2519C158.763 68.3744 158.181 67.8755 157.017 69.3721C157.308 71.2428 158.181 68.6238 159.012 69.7878L157.931 71.7001Z" fill="#928575"/>
<path d="M161.426 67.9589C160.954 68.6016 160.537 69.283 160.179 69.9959C160.636 69.2892 161.634 68.6656 161.426 67.9589Z" fill="#928575"/>
<path d="M162.34 67.8346C162.922 68.3334 161.467 69.4559 161.426 69.7053L163.671 67.2526L162.34 67.8346Z" fill="#928575"/>
<path d="M165.043 69.4557H165.5C165.625 68.6658 165.334 69.1647 165.043 69.4557Z" fill="#928575"/>
<path d="M166.621 69.8298C166.829 68.7073 166.206 69.123 165.499 69.3725C165.499 70.4118 164.085 72.2826 163.711 71.4095C162.838 71.4095 163.919 69.5388 162.672 70.5781V72.6151C163.711 73.0724 165.79 70.4118 166.621 69.8298Z" fill="#928575"/>
<path d="M165.04 69.4561H164.791C164.791 69.8302 164.791 69.6639 165.04 69.4561Z" fill="#928575"/>
<path d="M163.753 68.4573L163.171 68.7067L162.838 69.6213L163.753 68.4573Z" fill="#928575"/>
<path d="M168.949 70.8688C167.328 73.5294 167.452 69.7047 166.164 71.7418C167.12 72.1159 166.787 74.4856 165.79 75.899L167.203 75.5665C168.201 74.1886 168.805 72.5643 168.949 70.8688Z" fill="#928575"/>
<path d="M167.162 78.768C167.289 78.6266 167.445 78.5133 167.619 78.4354C167.524 78.4564 167.434 78.4968 167.356 78.554C167.277 78.6112 167.211 78.6841 167.162 78.768Z" fill="#928575"/>
<path d="M174.481 76.9797C173.192 77.3123 171.945 77.7696 170.697 78.2269C171.446 77.4786 171.862 76.6056 172.527 76.6056C171.82 75.6494 170.656 77.3123 170.032 76.6056C171.279 73.9865 171.529 77.2707 172.402 74.7764C171.82 74.4854 170.864 74.1112 169.201 75.982V73.7371L167.995 76.6887C167.995 77.6864 169.908 74.9427 169.076 76.9797C168.494 78.2269 167.995 78.2269 167.621 78.3932C168.494 78.1437 167.871 81.3864 169.076 81.6358C170.282 81.8853 172.859 77.7696 174.481 76.9797Z" fill="#928575"/>
<path d="M172.567 79.9321L171.985 81.0545L172.858 79.5995L172.567 79.9321Z" fill="#928575"/>
<path d="M177.263 78.2277L175.018 79.0176C175.183 78.5219 175.406 78.0475 175.683 77.6041C175.267 78.2277 174.269 79.0176 173.937 79.558C172.69 82.1771 175.683 79.558 176.556 79.558C177.013 81.6782 175.475 80.722 174.228 83.1748C173.937 82.8422 174.228 82.3018 174.02 81.7614C172.731 84.8377 175.392 83.2995 176.473 83.2164C176.473 82.8838 177.138 82.2187 176.681 82.1771H177.845C178.842 80.0985 178.759 79.1007 177.263 78.2277Z" fill="#928575"/>
<path d="M175.27 76.9803C175.768 76.9803 175.81 77.396 175.602 77.7286C175.976 76.9803 176.143 76.3151 175.27 76.9803Z" fill="#928575"/>
<path d="M176.684 83.5902C176.684 83.5902 176.684 83.5902 176.393 83.5902C176.102 83.5902 176.393 83.6318 176.684 83.5902Z" fill="#928575"/>
<path d="M178.595 80.7218C178.75 80.9904 178.889 81.268 179.01 81.5532L179.759 80.3892C179.553 80.3371 179.336 80.3404 179.132 80.3988C178.928 80.4572 178.742 80.5687 178.595 80.7218Z" fill="#928575"/>
<path d="M180.259 113.938C181.423 113.938 182.005 113.938 181.755 113.439C183.294 113.439 183.044 113.938 183.917 114.27C184.957 113.563 185.705 114.27 187.243 114.27C187.243 113.065 185.331 112.857 185.539 111.776C186.093 111.717 186.63 111.548 187.118 111.277C185.871 110.113 183.668 108.409 184.541 106.579C184.541 105.124 183.792 104.334 183.044 102.713C183.751 97.3918 184.416 92.6941 184.624 87.9133C183.599 87.8512 182.572 87.8512 181.548 87.9133C183.003 87.2897 181.257 86.9987 183.127 86.4582C182.878 86.8324 183.127 86.9155 183.377 87.2065C184.499 86.3335 184.167 85.6268 183.668 85.0863C183.169 84.5459 182.379 84.1718 182.421 83.4235C181.512 84.2523 180.454 84.9012 179.303 85.3358C182.213 83.5482 178.637 84.3796 181.464 81.7606C181.464 80.1808 179.178 83.5898 178.804 82.3426C177.224 83.5482 178.804 83.7976 177.681 84.8785C176.559 85.9594 177.681 83.7145 176.102 85.1279C176.102 86.0009 177.39 86.2504 178.845 86.7492C180.415 87.1369 181.789 88.0827 182.712 89.4099H180.841C182.421 90.2829 182.296 92.8604 179.053 93.5671C180.882 93.5671 177.723 95.7705 181.714 96.2693C180.758 96.5188 180.882 96.6851 180.425 97.3087L181.672 97.6828C181.464 98.5974 179.552 98.1817 179.51 99.3873C181.34 98.8053 181.755 99.7614 183.127 100.177C181.094 101.291 179.356 102.872 178.055 104.792C178.717 104.563 179.335 104.226 179.885 103.794C179.386 104.875 181.007 104.459 181.631 104.625C181.631 105.415 179.635 105.789 178.513 105.956C178.263 107.951 182.67 107.328 181.506 108.699L183.086 107.785C183.917 108.949 182.421 110.57 183.086 111.526C180.841 112.649 180.841 111.235 179.635 111.028C179.22 111.443 179.261 111.942 178.513 112.316C179.984 112.364 181.446 112.559 182.878 112.898C180.217 113.148 180.467 113.896 180.259 113.938Z" fill="#928575"/>
<path d="M178.72 112.483C178.375 112.44 178.026 112.44 177.681 112.483C177.889 112.483 178.055 112.483 177.972 112.732L178.72 112.483Z" fill="#928575"/>
<path d="M180.258 113.938H179.967C179.967 113.938 180.216 113.98 180.258 113.938Z" fill="#928575"/>
<path d="M176.431 106.995C177.009 106.347 177.55 105.667 178.052 104.958C177.59 105.062 177.178 105.321 176.883 105.691C176.588 106.062 176.429 106.522 176.431 106.995Z" fill="#928575"/>
<path d="M178.719 95.355C178.469 95.0224 177.887 95.1056 177.388 94.8146C177.264 95.355 177.721 95.646 178.719 95.355Z" fill="#928575"/>
<path d="M178.468 113.397L179.092 113.688H179.549L178.468 113.397Z" fill="#928575"/>
<path d="M180.383 132.521C182.711 132.521 182.129 130.733 183.002 129.86C183.002 127.407 178.845 127.615 179.593 125.703L183.376 127.906C184.042 125.952 186.079 123.749 183.376 120.465C183.917 120.465 184.665 120.465 184.998 121.296C185.413 119.966 179.676 117.97 181.589 117.139C183.543 119.592 184.208 117.679 186.536 119.051L186.744 119.425C186.952 118.178 186.037 116.266 186.286 115.642C185.206 115.642 183.418 115.642 183.418 114.852C183.127 115.102 181.88 114.852 180.799 114.561C181.921 115.31 181.048 115.518 182.337 116.432C180.799 116.432 181.963 116.016 180.466 115.933L181.506 117.014C181.007 117.305 180.3 115.975 179.76 116.557C180.508 116.973 181.131 117.929 180.633 118.511L180.258 118.137C180.591 118.843 179.552 119.259 181.88 120.049L179.427 119.633L180.965 120.257C179.676 121.421 175.852 120.257 176.808 123.001C177.473 123.001 178.097 123.583 178.263 123.957C179.676 123.666 177.598 122.46 177.723 121.629C179.302 122.211 180.508 124.331 181.88 123.832C179.635 123.832 181.256 125.828 177.307 124.456C176.517 125.537 178.138 126.867 176.683 127.657L176.143 127.366C178.512 128.738 174.563 127.781 176.683 129.902L177.515 129.527C178.512 130.026 178.429 130.359 178.388 130.858C178.114 130.681 177.798 130.581 177.473 130.567C179.219 131.523 178.845 133.02 179.302 133.435C179.884 133.02 178.72 131.606 178.596 130.733C179.385 131.481 180.965 132.105 180.383 132.521Z" fill="#928575"/>
<path d="M179.548 117.305L180.255 118.053C180.171 117.804 179.964 117.596 179.548 117.305Z" fill="#928575"/>
<path d="M174.688 136.387C173.939 136.969 173.233 135.472 172.11 135.805C172.983 137.177 175.103 136.137 176.6 137.759C175.27 137.759 176.6 139.338 176.6 139.671C175.41 138.835 174.09 138.203 172.692 137.8C173.191 138.424 171.736 138.507 171.403 138.964C173.482 138.465 171.819 140.419 173.981 140.087C175.311 140.835 175.81 142.498 174.521 142.456C173.233 142.415 173.898 141.625 174.023 141.334C172.193 140.17 172.609 141.583 170.78 140.96C172.9 143.371 170.78 147.029 175.727 147.986C176.766 147.986 175.727 147.154 175.727 146.655C174.314 147.445 173.441 145.574 172.734 145.117C173.648 145.117 172.734 143.371 174.147 144.327L175.394 145.907C177.48 143.165 178.903 139.978 179.552 136.595L178.845 137.842C177.764 137.135 177.972 136.512 177.639 135.763L174.521 135.057C174.896 134.766 174.521 134.225 175.644 134.724C175.274 134.313 174.827 133.981 174.327 133.745C173.827 133.51 173.286 133.376 172.734 133.352C172.734 132.146 173.898 132.521 172.401 130.899C169.283 131.398 173.69 133.186 170.738 134.059L174.688 136.387Z" fill="#928575"/>
<path d="M174.811 132.105L176.058 133.144L175.642 132.23L174.811 132.105Z" fill="#928575"/>
<path d="M180.756 135.681C180.133 135.431 179.966 135.057 179.343 134.766C178.553 135.182 179.467 135.639 180.756 135.681Z" fill="#928575"/>
<path d="M170.239 141.875V143.081L171.112 142.706C170.913 142.643 170.731 142.536 170.58 142.392C170.428 142.248 170.312 142.071 170.239 141.875Z" fill="#928575"/>
<path d="M174.397 152.268C174.771 150.771 173.69 149.566 175.893 148.693C174.355 147.072 172.235 147.404 170.697 146.282C169.907 146.864 173.108 148.236 173.357 149.316C171.611 148.859 173.15 150.647 172.401 151.229C173.135 151.423 173.817 151.778 174.397 152.268Z" fill="#928575"/>
<path d="M166.037 154.014C165.746 154.637 166.703 155.843 165.705 155.968C164.707 155.427 164.541 154.887 164.956 154.637C162.587 153.806 164.956 155.51 163.169 155.427C163.418 155.427 163.959 155.427 164.333 155.843C163.044 157.256 165.788 157.714 163.46 159.169C163.629 159.548 163.875 159.888 164.183 160.167C164.491 160.447 164.853 160.659 165.247 160.79C162.753 160.79 163.086 160.416 160.716 160.79C162.401 161.379 164.052 162.059 165.663 162.827C162.005 163.409 164.873 165.113 162.213 165.238C162.213 165.03 161.88 164.573 162.213 164.407C159.635 163.035 162.213 165.695 161.132 166.07L159.053 164.615C159.053 165.363 159.635 167.358 157.681 166.859L156.808 165.945C157.266 168.481 155.228 169.271 154.771 170.809L153.233 170.019C152.734 172.638 155.312 169.645 156.434 173.386C153.482 169.894 156.434 175.257 154.189 174.467C152.776 173.22 154.73 173.012 153.067 171.557C154.106 173.677 153.067 172.472 152.734 173.386C151.778 171.391 151.487 173.76 150.656 171.349C150.692 172.892 150.609 174.434 150.406 175.964C149.575 174.925 149.117 175.382 148.702 175.964C149.949 175.631 149.325 179.29 151.154 179.747C153.331 177.502 155.95 175.732 158.845 174.55C157.058 172.056 160.259 173.345 158.845 171.225C159.594 171.848 160.383 172.305 161.132 172.929C161.88 171.1 159.594 172.098 159.095 170.975C159.303 170.185 161.09 170.975 161.88 171.682C162.836 170.767 161.34 171.017 160.467 169.479L163.626 170.892C165.497 166.735 165.705 161.33 169.322 158.171L167.285 157.589C169.155 156.3 164.458 152.559 169.28 152.933L167.908 151.602C168.698 152.351 170.943 152.642 172.065 153.723C171.65 152.933 172.647 152.766 172.273 151.977L170.943 152.434C169.613 151.062 170.943 150.813 172.481 151.27C171.192 149.025 168.781 150.522 167.035 150.064C169.696 153.598 162.878 150.314 163.335 152.85C163.834 154.388 165.081 153.473 166.037 154.014Z" fill="#928575"/>
<path d="M172.359 154.139C172.262 153.954 172.135 153.785 171.985 153.64C172.082 153.825 172.208 153.994 172.359 154.139Z" fill="#928575"/>
<path d="M148.788 175.881L148.289 176.13C148.164 176.754 148.455 176.255 148.788 175.881Z" fill="#928575"/>
<path d="M168.159 148.069L167.868 148.568L168.783 148.901L168.159 148.069Z" fill="#928575"/>
<path d="M143.091 174.343V175.424C143.152 175.066 143.152 174.701 143.091 174.343Z" fill="#928575"/>
<path d="M89.4231 177.336C88.4616 178.512 87.9203 179.975 87.8849 181.493L87.4692 180.495C87.2197 181.202 86.2636 183.572 88.1759 184.902V183.904C88.7164 181.826 89.7973 185.152 91.086 185.359C92.0006 184.32 90.8366 180.246 92.25 180.703C92.6242 180.371 92.9983 181.452 93.2477 182.242C94.3286 182.242 93.2478 178.999 93.9545 178.334C95.7006 182.117 96.1578 181.327 96.6982 180.08C97.2387 178.833 98.0286 177.294 99.4005 179.706C100.149 178.833 101.438 179.248 102.477 177.502C102.103 179.664 103.641 177.502 103.641 179.913C103.641 174.925 107.133 181.867 107.175 175.756C108.921 177.461 107.175 175.299 109.253 176.796C109.253 177.502 108.921 177.461 108.754 177.585C109.503 178.916 110.085 175.008 110.625 177.835C112.163 178.375 110.958 176.214 112.038 174.592C113.701 175.465 113.161 176.255 113.868 178.749C114.283 175.839 115.156 177.336 116.113 175.923C116.113 175.923 114.824 175.049 115.738 174.052C117.651 174.717 117.526 172.306 119.563 171.765C120.062 175.091 117.651 171.765 118.981 174.384C117.609 175.715 116.736 175.424 115.863 177.71C117.713 178.06 119.626 177.704 121.226 176.712C122.099 177.294 120.519 178.126 121.226 178.542C122.681 180.204 124.302 175.673 125.383 177.294L124.884 178.874C126.007 176.796 127.794 179.83 129.541 178.874C129.361 178.235 129.361 177.559 129.541 176.92C129 181.077 131.993 175.091 133.199 178.126C133.137 177.245 133.358 176.366 133.828 175.619C134.299 174.871 134.996 174.293 135.818 173.969C135.984 174.806 135.984 175.667 135.818 176.505C134.446 174.842 134.113 179.29 132.742 180.371C133.906 179.124 135.527 180.703 136.566 178.791L136.109 180.87C137.606 181.244 137.564 176.214 138.977 178.251V179.747C140.516 179.747 142.22 180.246 143.883 180.288C144.748 180.43 145.635 180.267 146.394 179.827C147.152 179.387 147.734 178.698 148.04 177.876C147.421 176.245 146.713 174.649 145.92 173.096C144.964 174.343 144.507 176.629 143.55 177.876L143.301 175.465C143.301 177.17 142.012 178.209 142.844 179.622C142.012 180.87 142.054 177.544 141.098 178.957C141.098 176.463 141.638 176.172 141.555 174.052L140.765 175.34C141.014 174.343 140.266 174.509 140.474 173.511C139.019 176.629 138.437 172.347 136.857 173.511L137.73 174.01C137.73 175.382 137.148 175.216 136.733 175.632C136.4 173.636 136.151 173.927 135.361 172.971C134.571 174.01 133.947 176.463 132.949 176.338C133.407 173.761 131.453 174.758 131.536 172.514C130.996 175.091 129.499 173.179 129.166 174.675C128.543 175.133 127.836 174.675 128.044 173.345C128.19 173.212 128.342 173.087 128.501 172.971H128.002C128.002 172.68 128.002 172.43 128.002 172.389C128.002 172.347 127.254 174.176 126.838 172.763C126.838 172.098 127.254 172.139 127.587 171.932C126.381 171.266 124.76 175.548 124.011 173.012C123.637 174.218 122.099 174.093 122.016 176.92C121.766 175.881 122.265 173.719 121.101 173.927C120.145 176.172 119.979 172.888 118.94 174.301C120.395 171.973 118.94 173.594 120.353 171.391C119.688 170.31 118.15 173.345 116.861 172.721C116.861 172.139 116.861 171.433 116.861 170.892C116.279 171.641 115.489 173.511 115.198 171.516V173.179C114.367 172.264 113.078 172.638 112.163 170.726L110.833 173.885C109.419 170.393 107.091 173.428 106.094 176.38C105.553 176.38 104.68 175.715 104.639 175.008C104.799 174.611 104.979 174.222 105.179 173.844C104.348 173.844 103.1 172.056 102.934 174.758C102.186 175.673 102.061 173.054 101.313 172.68C100.689 174.592 99.3589 174.218 98.1118 174.093C96.8646 173.969 95.7005 174.093 96.3657 176.837C97.0724 176.588 98.6522 177.461 99.8162 176.837C99.8162 177.585 100.107 178.625 99.8162 178.874C98.7353 179.415 97.4881 177.461 96.5735 178.874L95.5342 175.424C91.5848 172.597 93.1646 181.327 89.4231 177.336Z" fill="#928575"/>
<path d="M106.591 173.096L105.51 171.267V172.847C105.884 172.597 106.216 172.597 106.591 173.096Z" fill="#928575"/>
<path d="M105.592 172.846C105.369 173.062 105.186 173.315 105.051 173.594C105.259 173.594 105.467 173.594 105.633 173.22L105.592 172.846Z" fill="#928575"/>
<path d="M86.3048 179.498C86.2178 179.457 86.1235 179.434 86.0274 179.431C85.9314 179.427 85.8357 179.444 85.7462 179.479C85.6567 179.514 85.5753 179.567 85.5069 179.634C85.4385 179.702 85.3847 179.783 85.3486 179.872C85.8059 180.163 86.3464 180.08 86.3048 179.498Z" fill="#928575"/>
<path d="M85.7627 180.869L86.4278 181.202L86.3031 180.828L85.7627 180.869Z" fill="#928575"/>
<path d="M58.9914 178.708C58.0768 178.874 57.1622 178.999 56.2476 179.082C56.8297 178.084 54.5432 177.544 56.2476 176.754C53.587 177.71 54.2522 174.343 51.7578 177.295C53.7949 178.957 55.9151 181.452 58.4094 183.572C59.6828 184.731 61.1823 185.614 62.8136 186.165C64.4449 186.716 66.1726 186.923 67.8879 186.773L66.3913 187.812C68.5115 187.064 69.2183 188.145 70.1744 188.852C71.1306 189.558 72.2946 189.891 73.9159 187.064L73.2092 190.057C73.9575 190.598 74.8721 189.558 75.662 188.769C76.4518 187.979 77.0754 187.438 77.99 188.769L77.7406 187.563C78.1563 187.563 78.3642 188.062 78.7799 188.02V187.48C79.6945 186.108 80.2349 186.15 81.4405 186.773C81.7315 187.688 81.0664 187.314 80.817 187.605C81.5237 188.478 81.8563 186.274 82.563 186.066C83.3944 186.732 82.9787 187.438 82.9787 187.854C84.8495 185.9 87.136 188.436 86.7202 183.697C86.5124 182.907 85.5978 182.491 86.1798 181.826C84.3506 181.078 84.0596 183.115 83.145 184.694H83.5191C83.8102 189.267 82.4798 184.029 81.3158 186.316C81.3158 184.445 82.0225 184.279 82.0225 183.281C80.6506 181.909 80.2765 182.616 79.8192 183.281C79.3619 183.946 78.863 184.403 78.0732 182.283C77.7822 181.868 77.4496 182.741 77.0754 183.156C77.2836 183.623 77.5966 184.036 77.99 184.362C77.6313 185.408 77.4214 186.5 77.3664 187.605C76.7429 185.651 76.6182 188.644 75.7036 187.605C75.4541 185.775 76.4519 185.983 76.7429 184.986C76.4331 185.406 76.1 185.808 75.7451 186.191C74.8305 186.191 74.9553 184.196 74.6643 183.198C73.8328 184.487 74.9968 184.196 74.2485 186.066C73.4586 183.821 70.0913 183.655 67.3891 184.362C68.0958 184.362 68.3452 182.657 68.9688 183.239C68.9688 182.741 67.5969 183.239 66.9733 184.487C65.1857 185.027 63.9801 183.323 63.6891 181.577L63.2318 182.948C60.9454 184.279 62.0262 179.997 59.8229 179.872C59.1993 179.872 56.4555 181.868 56.0814 180.496C57.5364 179.456 57.869 179.997 58.9914 178.708Z" fill="#928575"/>
<path d="M52.1721 175.715L54.0844 175.091C54.0844 174.302 51.5485 175.091 50.5923 175.881C51.1743 175.881 50.8833 177.045 51.8395 176.463C52.0058 176.214 52.5462 175.84 52.1721 175.715Z" fill="#928575"/>
<path d="M45.6048 165.031C45.0272 165.106 44.4657 165.275 43.9419 165.53C45.2306 167.775 47.4756 170.269 46.7273 171.973C46.7273 173.096 49.3047 171.973 50.4688 172.348L49.0969 173.844C50.4688 173.844 49.8036 176.505 52.0485 174.094C52.2564 174.094 50.5104 174.509 50.6766 173.761L51.6743 173.221L50.6766 172.389L52.0485 171.973C52.9216 169.604 47.8913 173.221 47.8913 170.768L50.3025 169.396C49.8452 168.19 48.6811 168.024 49.6789 166.278C49.6789 166.278 48.3901 166.902 49.0137 166.818C48.6028 167.424 48.0037 167.877 47.3093 168.107C44.4408 167.359 48.9306 167.608 49.3047 165.862C46.852 165.28 44.0666 163.077 45.7295 161.331C44.5239 162.744 42.4037 162.453 42.1958 161.58C42.9026 160.79 43.8172 161.123 44.6487 160.915C44.6487 160.416 45.2307 159.834 44.6487 159.626C44.0584 160.182 43.3376 160.58 42.5528 160.784C41.7681 160.987 40.9447 160.989 40.1588 160.79C39.5768 163.451 44.9396 162.911 45.6048 165.031Z" fill="#928575"/>
<path d="M43.1914 165.446C43.3052 165.512 43.4342 165.547 43.5655 165.547C43.6969 165.547 43.8259 165.512 43.9397 165.446L43.4824 164.656L43.1914 165.446Z" fill="#928575"/>
</g>
<defs>
<clipPath id="clip0_788_4600">
<rect width="189" height="192" fill="white"/>
</clipPath>
</defs>
</svg>
