<svg width="61" height="61" viewBox="0 0 61 61" fill="none" xmlns="http://www.w3.org/2000/svg">
<path d="M57.8798 29.03C57.7398 28.34 54.5898 15.44 52.0298 13.45C51.0898 12.72 50.1398 12.01 49.2498 11.23C47.8298 9.98001 46.2298 9.27001 44.3098 9.23001C43.6598 9.22001 42.9798 9.01001 42.3698 8.77001C40.1198 7.89001 38.1698 6.42001 35.5898 6.13001C33.6398 5.91001 31.7498 5.80001 29.8498 6.11001C28.3598 6.36001 26.9298 7.04001 25.4298 7.24001C23.2598 7.52001 21.8698 8.52001 21.2898 10.65C20.9698 11.82 20.1198 12.27 18.8998 12.35C18.3198 12.38 17.6198 12.61 17.2298 13C16.1098 14.13 15.1098 15.39 14.0698 16.59C13.0798 17.74 11.4598 20.54 11.2998 20.84C10.3398 22.68 9.05979 24.5 8.69979 26.47C7.85979 31.02 8.04979 35.6 9.81979 39.98C10.4598 41.56 10.7798 41.89 11.2698 42.71C12.5498 44.42 13.7098 45.99 14.8998 47.54C16.2498 49.29 17.9798 50.44 20.1498 51.05C21.0698 51.31 21.8498 52.14 22.6498 52.78C23.1398 53.17 23.4698 53.76 23.9698 54.13C26.9498 56.32 30.2498 56.73 33.8098 55.97C35.0498 55.7 36.3798 55.84 37.6598 55.73C40.3398 55.51 42.7498 54.45 45.0898 53.21C45.9198 52.77 48.9498 51.74 49.4598 49.81C49.5298 49.56 49.4698 49.26 49.5898 49.04C49.8198 48.59 50.0198 48 50.4098 47.78C53.2398 46.17 54.8398 43.69 55.9998 40.72C57.4998 36.95 58.7398 33.18 57.8798 29.03Z" fill="#829159"/>
<path opacity="0.37" d="M38.1199 49.3901C37.5999 48.2501 37.0599 47.1201 36.5099 45.9901C35.8899 44.6801 35.2499 43.3801 34.5999 42.0801C33.4999 39.8001 32.4299 37.5001 31.5099 35.1401C31.3399 34.7101 31.1799 34.2801 31.0399 33.8401C30.8999 33.4001 30.8099 33.0501 31.4199 33.2201C31.8099 33.3301 32.2499 33.7901 32.5799 34.0301C33.0799 34.3901 33.5799 34.7601 34.0899 35.1101C34.5699 35.4501 35.2099 36.0101 35.8699 35.8101C36.2299 35.7001 36.3699 35.5601 36.2199 35.1901C36.0399 34.7101 35.1799 34.2901 34.7999 34.0101C34.0899 33.4901 33.2599 32.9701 32.7199 32.2601C31.1099 30.1301 37.1899 30.5701 36.7599 29.0101C36.5699 28.3501 34.9899 28.0501 34.4499 28.1301C33.2099 28.3001 31.6299 29.9201 30.4999 28.7501C30.0999 28.3301 29.8399 27.6501 29.5599 27.1401C29.0599 26.2101 28.5799 25.2801 28.1099 24.3401C26.7899 21.7401 25.4999 19.1301 24.1999 16.5301C23.7199 15.5801 23.2499 14.6301 22.7499 13.6901C22.6499 13.4901 22.4899 13.0701 22.2799 12.8601C22.2699 12.8501 22.2699 12.8401 22.2599 12.8201C22.1899 12.6701 22.0499 12.6701 21.9399 12.7501C21.7999 12.8101 21.7699 12.9901 21.8699 13.1101C21.8799 13.1401 21.8899 13.1601 21.9099 13.1901C21.8999 13.2001 21.9199 13.2201 21.9399 13.2501C23.9399 17.6201 25.9299 22.0001 27.8599 26.4001C28.1299 27.0101 28.3999 27.6201 28.6599 28.2301C28.7799 28.5101 28.9499 28.8101 29.0299 29.1001C29.1499 29.5401 29.2599 29.4901 28.9299 29.4401C28.6299 29.3901 28.1799 28.9801 27.9199 28.8201C27.4099 28.5101 26.9099 28.1901 26.3999 27.8701C24.0299 26.3901 21.6699 24.9001 19.2899 23.4301C18.2899 22.8101 17.2799 22.1901 16.2599 21.6001C15.9799 21.4401 15.3799 20.9401 15.0199 21.0901C14.9399 21.1201 14.8999 21.2201 14.8999 21.3001C14.8999 21.7701 16.6299 22.5501 16.9399 22.7501C18.7399 23.9101 20.5399 25.0801 22.3199 26.2801C24.0299 27.4301 25.7699 28.5701 27.3899 29.8501C27.5499 29.9801 28.4099 30.5701 28.3199 30.7601C28.1199 31.1901 26.0299 30.8701 25.6599 30.8301C24.4799 30.7201 23.3099 30.5501 22.1299 30.3901C21.7999 30.3501 21.0599 30.1101 20.7699 30.3701C20.6999 30.4401 20.6699 30.5801 20.7299 30.6601C20.8999 30.8901 21.2999 30.8801 21.5499 30.9201C22.3399 31.0501 23.1399 31.1401 23.9299 31.2601C24.7899 31.3901 25.6699 31.5201 26.5099 31.7601C26.7699 31.8301 27.3799 31.9201 27.4399 32.2401C27.4799 32.4401 27.0099 32.8501 26.8999 32.9601C25.4499 34.4501 23.4999 35.5401 21.7699 36.6601C19.7499 37.9601 17.6899 39.2101 15.7199 40.6001C15.7199 40.6001 15.7199 40.6101 15.7099 40.6101C15.4899 40.7901 15.6799 41.1201 15.9399 41.0101V41.0201C15.9499 41.0101 15.9599 41.0101 15.9699 41.0001C18.9599 39.5901 21.7799 37.8001 24.5799 36.0601C25.5899 35.4301 26.5999 34.7201 27.6699 34.2001C27.9799 34.0501 28.2299 33.8001 28.3099 34.1201C28.3499 34.3001 28.1599 34.7101 28.1199 34.8901C26.7199 40.4201 25.0899 45.8801 23.4899 51.3301C23.3999 51.6301 23.8599 51.7501 23.9499 51.4601C25.2499 47.4801 26.5799 43.5001 27.9499 39.5401C28.3199 38.4801 28.6899 37.4101 29.0899 36.3601C29.1999 36.0801 29.2799 35.6101 29.4699 35.3701C30.0399 34.6601 30.4899 35.5601 30.7899 36.0801C32.2899 38.6301 33.6099 41.2901 34.9299 43.9401C35.8699 45.8301 36.7899 47.7301 37.6999 49.6301C37.8399 49.9101 38.2499 49.6701 38.1199 49.3901Z" fill="white"/>
<g opacity="0.72">
<path d="M40.4899 54.98L40.1899 55.2C40.3199 55.31 40.4499 55.42 40.5699 55.53C40.5499 55.34 40.5199 55.15 40.4899 54.98Z" fill="#C8B3A3"/>
<path d="M38.4 54.9299C38.38 55.0499 38.31 55.1599 38.27 55.2799C38.74 55.8199 38.88 56.0299 39.02 56.1799C39.17 56.2999 39.34 56.4399 40.04 56.4499C40.1 56.2599 40.15 55.9199 40.08 55.6299C40.03 55.3399 39.84 55.0999 39.59 54.9999C39.59 55.0999 39.64 55.2599 39.66 55.4399C39.68 55.6199 39.65 55.8099 39.47 55.8399C39.29 55.4799 39.49 55.2699 39.11 54.8799C38.57 54.8699 39.26 55.2699 38.81 55.4299L38.4 54.9299Z" fill="#C8B3A3"/>
<path d="M38.83 56.36C38.75 56.13 38.65 55.89 38.54 55.73C38.65 55.96 38.57 56.33 38.83 56.36Z" fill="#C8B3A3"/>
<path d="M38.6101 56.64C38.2901 56.75 38.4001 56.16 38.3301 56.11C38.3701 56.44 38.3601 56.76 38.3301 57.1C38.4401 56.95 38.5401 56.8 38.6101 56.64Z" fill="#C8B3A3"/>
<path d="M37.2398 56.97C37.1898 57 37.1398 57.03 37.0898 57.07C37.1598 57.21 37.1998 57.08 37.2398 56.97Z" fill="#C8B3A3"/>
<path d="M36.5503 57.11C36.6803 57.42 36.8903 57.26 37.0903 57.07C37.0803 57.05 37.0803 57.04 37.0603 57.01C36.8603 56.77 36.9903 56.09 37.2503 56.24C37.4803 56.05 37.6103 56.67 37.7503 56.21C37.5903 56.06 37.4503 55.91 37.3303 55.76C37.0003 55.91 36.7803 56.86 36.5503 57.11Z" fill="#C8B3A3"/>
<path d="M37.2402 56.9699C37.2902 56.9399 37.3502 56.9199 37.4202 56.9099C37.3202 56.8099 37.2802 56.8799 37.2402 56.9699Z" fill="#C8B3A3"/>
<path d="M37.96 56.91L38.08 56.72L37.96 56.47V56.91Z" fill="#C8B3A3"/>
<path d="M35.38 56.98C35.55 56.56 35.72 56.64 35.9 56.73C36.08 56.8 36.29 56.9 36.35 56.56C35.91 56.55 35.78 55.84 35.98 55.38C35.85 55.45 35.72 55.51 35.58 55.54C35.36 55.81 35.22 56.49 35.38 56.98Z" fill="#C8B3A3"/>
<path d="M35.63 54.65C35.58 54.71 35.54 54.74 35.5 54.76C35.54 54.73 35.58 54.7 35.63 54.65Z" fill="#C8B3A3"/>
<path d="M33.5703 54.22C33.9903 54.49 34.4103 54.72 34.7703 54.68C34.5003 54.79 34.2803 54.96 34.0803 54.84C34.1403 55.03 34.2903 55.07 34.4303 55.07C34.5903 55.07 34.7303 55.04 34.7803 55.17C34.2603 55.83 34.3803 54.81 33.9303 55.41C34.0203 55.5 34.1503 55.62 34.3203 55.66C34.5103 55.69 34.7403 55.63 35.0003 55.39C34.9803 55.61 34.9903 55.82 35.0203 56.06C35.1203 55.77 35.2303 55.48 35.3503 55.2C35.4003 54.94 34.7403 55.66 35.0603 55.1C35.2803 54.78 35.4003 54.78 35.4903 54.74C35.3903 54.77 35.4103 54.57 35.4903 54.39C35.5703 54.2 35.7003 54.06 35.6303 54.05C35.5503 54.03 35.1503 54.04 34.7303 54.14C34.3103 54.24 33.8503 54.35 33.5703 54.22Z" fill="#C8B3A3"/>
<path d="M34.4801 53.81L34.7801 53.59L34.3501 53.83L34.4801 53.81Z" fill="#C8B3A3"/>
<path d="M32.6402 52.97C32.9302 53 33.2302 53.09 33.5202 53.22C33.5002 53.35 33.3602 53.49 33.2402 53.63C33.4002 53.49 33.8102 53.51 33.9502 53.4C34.2202 53.01 34.0002 52.74 33.6802 52.63C33.3602 52.51 32.9602 52.53 32.7502 52.45C32.4102 51.93 32.4102 51.88 32.6102 51.79C32.7802 51.71 33.1102 51.66 33.0702 51.18C33.2502 51.3 33.3002 51.43 33.3702 51.55C33.4402 51.68 33.5202 51.81 33.6902 52.04C33.7002 51.38 33.2202 50.99 32.7202 50.89C32.2102 50.78 31.7002 50.95 31.4102 51.03C31.5502 51.14 31.5302 51.37 31.8202 51.38C31.6202 51.41 31.4202 51.48 31.2402 51.54C31.6202 52.26 31.8802 52.41 32.6402 52.97Z" fill="#C8B3A3"/>
<path d="M33.3099 54.05C33.1499 53.83 33.1599 53.72 33.2499 53.63C33.0899 53.82 32.9799 53.96 33.3099 54.05Z" fill="#C8B3A3"/>
<path d="M31.1099 51.0099C31.1599 51.0699 31.2699 51.0499 31.4099 51.0199C31.3499 50.9699 31.2599 50.9499 31.1099 51.0099Z" fill="#C8B3A3"/>
<path d="M31.4099 52.02C31.2399 51.96 31.0699 51.91 30.8799 51.88C30.9399 52.01 30.9899 52.14 31.0299 52.27C31.1099 52.24 31.3699 52.22 31.4099 52.02Z" fill="#C8B3A3"/>
<path d="M17.3198 49.1599C17.0998 49.4099 17.0598 49.6399 17.3298 49.7799C16.9898 50.0899 16.7698 49.7499 16.4698 49.7799C16.5398 50.2799 16.0798 50.1299 15.8398 50.5099C16.1398 50.9199 16.7298 50.6099 17.0098 51.0499C16.9098 51.1299 16.7898 51.2799 16.7398 51.4499C17.0698 51.5599 17.5298 51.6599 17.9098 51.8299C18.2998 51.9899 18.6598 52.1799 18.8298 52.5099C19.2798 52.9199 19.7598 52.9599 20.4298 52.9799C21.3498 53.4799 22.4398 53.6399 23.5098 53.6999C24.5898 53.7699 25.6598 53.6199 26.7998 53.5399C26.8198 53.2299 26.8398 52.9199 26.8398 52.6199C27.0698 52.9999 27.3098 52.4699 27.4498 53.0199C27.2998 52.9499 27.2198 53.0699 27.0898 53.1199C27.7998 53.7199 28.2798 52.5999 28.9498 52.6699C28.8398 52.5399 28.4898 51.8699 28.6298 51.6799C28.8598 52.6099 29.3998 51.4199 29.8498 52.4699C30.5398 52.6299 29.7098 51.6099 30.5598 51.6799C30.6798 51.0799 29.6598 51.4999 29.4798 51.1299C29.5398 50.8799 29.7698 50.8799 29.9698 50.8799C30.1598 50.8799 30.2998 50.8799 30.2698 50.5899C30.0498 50.5799 29.7798 50.5999 29.5498 50.6599C29.3498 50.7099 29.1498 50.7799 28.9598 50.8799C28.5798 51.0699 28.2098 51.3399 27.8798 51.6199C27.1998 52.2099 26.7198 52.7899 26.0498 53.0899L26.0798 52.5399C25.5298 53.0499 24.2998 53.1999 23.8398 52.2499C23.8898 52.5099 23.6498 52.4299 23.4098 52.4299C23.1698 52.4099 22.9098 52.4599 22.8698 53.0399C22.7298 52.7499 22.6798 52.7899 22.4498 52.6499L22.3098 52.9999C21.9498 52.9099 22.1398 52.3699 21.7498 52.2999C21.8798 52.8399 21.5598 52.9199 21.3198 53.2799C20.9898 52.6099 20.6498 51.9599 20.4798 51.3799C20.4398 51.5399 20.3998 51.7299 20.4398 51.9799C20.2598 51.6999 20.1098 52.1499 19.9698 52.2699C19.6998 52.1699 20.0098 51.5999 20.1598 51.3199C19.8298 50.9599 19.0498 51.8999 18.9198 51.3499L18.7698 51.8599C18.2198 51.6999 18.1898 50.9499 17.6198 50.7499C17.8398 50.0499 18.3698 50.5499 18.7198 50.4399C18.7198 50.2499 18.5598 50.0899 18.6398 49.8599C18.2398 50.0299 17.6398 50.1299 17.1798 50.1699C17.9398 49.7499 17.3798 49.3499 17.3198 49.1599Z" fill="#C8B3A3"/>
<path d="M18.6299 49.8599C18.7499 49.8099 18.8499 49.7699 18.9199 49.7199C18.8599 49.7299 18.7899 49.7399 18.7499 49.6699C18.6899 49.7399 18.6499 49.7999 18.6299 49.8599Z" fill="#C8B3A3"/>
<path d="M17.3201 49.16L17.3701 49.09C17.3001 49.09 17.3001 49.11 17.3201 49.16Z" fill="#C8B3A3"/>
<path d="M18.8702 52.5899C18.8602 52.5599 18.8402 52.5399 18.8202 52.5099C18.7902 52.4899 18.7702 52.4699 18.7402 52.4399L18.8702 52.5899Z" fill="#C8B3A3"/>
<path d="M20.3301 50.71C20.3401 50.91 20.3901 51.14 20.4601 51.38C20.5101 51.15 20.5501 50.97 20.3301 50.71Z" fill="#C8B3A3"/>
<path d="M23.1699 52.17C23.2799 52.1 23.2399 51.93 23.3199 51.78C23.1399 51.73 23.0399 51.89 23.1699 52.17Z" fill="#C8B3A3"/>
<path d="M18.2899 49.4L17.8999 49.26L17.6899 49.27L18.2899 49.4Z" fill="#C8B3A3"/>
<path d="M12.5601 42.58C12.0701 43.12 12.5401 43.62 12.4901 44.16C12.9501 45.06 13.8301 44.1 14.0401 44.97L12.7701 45.02C12.9401 45.91 13.1601 47.4 14.4901 47.61C14.3701 47.73 14.2701 47.97 14.0201 47.83C14.3401 48.36 15.7601 47.28 15.7301 48.1C14.7301 47.9 15.2101 48.68 14.4601 48.94L14.3301 48.88C14.6801 49.3 15.4201 49.6 15.5901 49.88C15.8401 49.68 16.0401 49.16 16.3501 49.45C16.2901 49.28 16.6101 49.1 16.8701 48.9C16.3201 48.83 16.4001 48.5 15.8901 48.55C16.1001 48.12 16.0901 48.59 16.3001 48.18C16.1301 48.17 15.9501 48.16 15.7901 48.13C15.7601 47.87 16.2601 48.11 16.1601 47.75C15.9301 47.85 15.5501 47.72 15.4601 47.43L15.6301 47.44C15.3601 47.33 15.4401 46.94 14.8501 47.34C15.0201 47.16 15.2001 46.98 15.3801 46.81L14.9601 47.04C14.8601 46.36 15.9401 45.86 15.1601 45.3C15.0601 45.51 14.7701 45.4 14.6601 45.31C14.4001 45.72 15.1201 45.63 15.2501 45.89C14.8101 46.08 14.1001 45.68 13.9401 46.15C14.3501 45.59 13.6601 45.31 14.8001 44.91C14.7801 44.36 14.1901 44.23 14.3601 43.58L14.5401 43.57C13.7501 43.59 14.8101 43 13.9201 42.67L13.8101 43.04C13.4901 43.08 13.4501 42.93 13.3501 42.72C13.4801 42.72 13.4801 42.72 13.6101 42.61C13.0501 42.66 12.7801 42.03 12.5901 42.01C12.5801 42.3 13.1201 42.51 13.3401 42.82C12.9801 42.71 12.5201 42.87 12.5601 42.58Z" fill="#C8B3A3"/>
<path d="M15.9401 47.4299L15.6201 47.4199C15.7001 47.4599 15.8001 47.4699 15.9401 47.4299Z" fill="#C8B3A3"/>
<path d="M12.1799 39.69C11.9999 39.29 12.6299 39.46 12.5499 38.99C11.9699 38.94 12.2799 39.88 11.5499 39.98C11.6399 39.57 10.9499 39.7 10.8399 39.62C11.1999 39.49 11.6499 38.88 11.6999 38.72C11.4399 38.77 11.4299 38.25 11.2399 38.06C11.4299 38.83 10.6499 37.93 10.7599 38.69C10.4399 39 9.79986 38.9 9.82986 38.5C10.0399 38.25 10.1499 38.42 10.2799 38.51C10.7599 38.11 10.1699 38.01 10.4399 37.52C9.44986 37.84 8.03986 36.7 7.60986 38.09C7.60986 38.42 7.94986 38.27 8.15986 38.35C7.83986 37.77 8.58986 37.78 8.77986 37.61C8.84986 37.94 9.45986 37.85 9.08986 38.19L8.45986 38.36C9.36986 39.36 10.7999 40.23 11.6199 41.27C11.5299 41.1 11.4399 40.93 11.3199 40.78C11.6599 40.6 11.8599 40.83 12.1199 40.94C12.3199 40.69 12.5099 40.43 12.6899 40.16C12.7499 40.38 12.9699 40.49 12.6899 40.64C13.1499 40.67 13.2999 40.47 13.4699 40.15C13.9399 40.62 13.6399 40.86 14.3699 41.09C14.5099 40.45 14.2499 40.27 13.9799 40.13C13.6899 40 13.4499 39.84 13.3299 39.19C12.9299 39.32 12.5499 39.5 12.1799 39.69Z" fill="#C8B3A3"/>
<path d="M13.6799 41.1999C13.5099 41.1799 13.3399 41.1699 13.1699 41.1699C13.2799 41.2399 13.3999 41.3199 13.5099 41.3999L13.6799 41.1999Z" fill="#C8B3A3"/>
<path d="M11.73 41.6999C11.91 41.6099 12.03 41.6699 12.21 41.5799C12.17 41.1899 11.95 41.3699 11.73 41.6999Z" fill="#C8B3A3"/>
<path d="M10.0503 37.17L9.57031 37.01L9.72031 37.34C9.83031 37.17 9.97031 37.17 10.0503 37.17Z" fill="#C8B3A3"/>
<path d="M5.89014 36.72C6.49014 37.25 6.99014 37.11 7.32014 37.98C7.99014 37.76 7.87014 37.01 8.33014 36.69C8.14014 36.36 7.53014 37.16 7.10014 37.04C7.33014 36.56 6.59014 36.73 6.40014 36.33C6.28014 36.5 6.10014 36.66 5.89014 36.72Z" fill="#C8B3A3"/>
<path d="M6.49008 33.8C6.43008 33.58 6.03008 33.35 6.27008 33.13C6.59008 33.17 6.71008 33.3 6.63008 33.43C7.35008 33.31 6.50008 33.19 7.00008 32.95C6.92008 32.96 6.79008 33.05 6.64008 32.97C6.88008 32.35 6.07008 32.5 6.71008 31.64C6.56008 31.45 6.61008 31.3 6.14008 31.19C6.90008 30.8 6.80008 31.09 7.53008 30.58C7.26008 30.51 6.57008 30.53 6.00008 30.34C7.13008 29.64 6.24008 29.3 7.06008 28.91C7.06008 28.99 7.18008 29.13 7.04008 29.26C7.86008 29.48 7.09008 28.7 7.39008 28.42L8.04008 28.72C8.06008 28.38 7.85008 27.66 8.50008 27.5L8.79008 27.73C8.63008 26.74 9.30008 25.98 9.40008 25.22L9.97008 25.1C9.97008 23.97 9.27008 25.84 8.69008 24.69C9.90008 25.23 8.56008 24.02 9.32008 23.78C9.91008 23.82 9.27008 24.42 9.94008 24.46C9.42008 24.01 9.92008 24.1 9.91008 23.74C10.4201 24.12 10.3101 23.25 10.8301 23.79C10.6701 23.29 10.5301 22.78 10.4001 22.26C10.8001 22.32 10.9201 22.03 10.9701 21.79C10.6301 22.27 10.2801 21.11 9.66008 21.5C9.36008 22.48 8.72008 23.95 7.87008 24.87C8.58008 25.4 7.50008 25.56 8.06008 26.05C7.80008 25.95 7.54008 25.93 7.27008 25.83C7.10008 26.62 7.78008 25.87 7.99008 26.19C7.95008 26.54 7.36008 26.56 7.08008 26.4C6.81008 26.89 7.27008 26.56 7.58008 27.01L6.55008 26.95C6.33008 27.82 6.17008 28.85 5.96008 29.87C5.76008 30.9 5.41008 31.87 5.08008 32.93C5.28008 32.89 5.49008 32.85 5.69008 32.82C5.49008 33.25 5.84008 33.63 6.14008 33.88C6.41008 34.16 6.58008 34.31 6.16008 34.94C6.36008 34.94 6.55008 34.92 6.73008 34.9C6.41008 34.92 6.03008 35.51 5.56008 35.5C5.86008 35.64 5.85008 35.99 6.16008 36.09L6.11008 35.54C6.72008 35.5 6.65008 35.94 6.41008 36.32C7.31008 36.4 6.90008 35.32 7.30008 34.95C6.62008 34.97 6.75008 34.6 7.00008 34.32C7.27008 34.01 7.62008 33.79 7.36008 33.61C6.92008 33.35 6.80008 33.73 6.49008 33.8Z" fill="#C8B3A3"/>
<path d="M5.33984 35.4299C5.41984 35.4699 5.48984 35.4799 5.55984 35.4899C5.49984 35.4599 5.42984 35.4399 5.33984 35.4299Z" fill="#C8B3A3"/>
<path d="M10.9702 21.7999C11.0102 21.7399 11.0502 21.6699 11.0902 21.5599C11.0102 21.3999 11.0202 21.5799 10.9702 21.7999Z" fill="#C8B3A3"/>
<path d="M6.39995 36.33C6.39995 36.32 6.38995 36.32 6.39995 36.33Z" fill="#C8B3A3"/>
<path d="M7.76996 35.62L7.63996 35.46L7.45996 35.67L7.76996 35.62Z" fill="#C8B3A3"/>
<path d="M13.0202 19.7L12.7202 19.59C12.8102 19.65 12.9002 19.7 13.0202 19.7Z" fill="#C8B3A3"/>
<path d="M14.3603 13.5599L14.2603 13.6599C14.3303 13.6599 14.3503 13.6199 14.3603 13.5599Z" fill="#C8B3A3"/>
<path d="M27.2299 4.12997C27.6099 3.87997 28.1399 3.69997 28.5799 3.26997L28.4899 3.57997C28.6199 3.51997 28.9099 3.41997 29.1499 3.26997C29.3799 3.11997 29.5799 2.89997 29.3599 2.52997L29.1299 2.74997C28.3599 3.03997 28.7499 2.10997 28.1299 1.83997C27.3399 1.95997 27.1299 3.20997 26.5999 3.00997C26.3799 3.08997 26.3499 2.76997 26.3699 2.51997C25.7899 2.55997 25.8599 3.50997 25.5799 3.72997C25.1299 2.60997 24.7799 2.90997 24.4499 3.33997C24.1199 3.77997 23.8099 4.32997 23.1499 3.79997C22.8099 4.16997 22.1499 4.26997 21.8399 4.96997C21.8299 4.28997 21.3199 5.19997 21.1099 4.54997C21.6599 5.82997 19.2799 4.89997 20.1399 6.45997C19.1999 6.48997 20.1699 6.55997 19.1799 6.73997C19.0699 6.58997 19.1999 6.49997 19.2299 6.42997C18.7199 6.34997 19.1999 7.36997 18.4799 6.88997C17.7999 7.22997 18.6599 7.34997 18.5999 7.98997C17.8699 8.27997 17.8999 7.96997 17.1099 7.66997C17.5799 8.35997 16.9699 8.33997 16.9699 8.91997C17.0699 8.88997 17.5699 8.67997 17.5199 9.14997C16.7699 9.60997 17.3599 10.02 16.9199 10.72C15.9899 10.32 17.4899 10.16 16.4699 10.1C16.5599 9.43997 16.8799 9.19997 16.6599 8.50997C16.0799 8.92997 15.5299 9.64997 15.2699 10.47C14.8799 10.69 15.1099 9.99997 14.8199 10.19C13.9699 10.47 14.6899 11.69 13.9899 11.87L13.7099 11.46C13.9399 12.16 12.7199 12.41 12.5599 13.2C12.8099 13.27 12.9699 13.32 13.0399 13.49C12.5699 13.12 12.5299 13.42 12.5099 13.81C12.4799 14.22 12.5299 14.62 12.0299 14.79C12.4499 14.9 12.6999 15.17 12.8899 15.35C13.0399 15.49 13.1299 15.61 13.1799 15.73C12.9799 15.84 12.6599 15.86 12.4599 15.87C12.6899 15.52 12.4099 15.44 12.0599 15.22C11.7999 15.06 11.4999 14.84 11.4499 14.51C11.5099 14.72 11.4999 14.92 11.4899 15.13C11.4599 15.6 11.4499 16.11 11.8799 16.32C11.6699 16.3 11.4699 16.28 11.2599 16.25C11.2799 16.96 12.6999 16.57 12.2499 17.35H11.8099C11.9599 18 11.7099 18.63 11.4199 19.18C11.1399 19.74 10.8499 20.28 10.9599 21.01C11.1999 21.3 12.2199 21.29 12.4799 21.4C12.5999 20.62 12.2299 19.93 12.1099 19.35L12.7499 19.59C12.3699 19.29 12.2499 18.64 11.7999 18.87C11.5399 18.45 12.4699 18.7 12.1299 18.18C12.8499 18.25 12.8899 18.59 13.4799 18.69C13.3899 18.49 13.2899 18.3 13.1699 18.12C13.4499 18.3 13.4199 17.79 13.6899 17.96C13.2399 17.44 13.2699 17.18 13.3599 16.85C13.4499 16.54 13.5899 16.24 13.3499 15.97C13.3199 16.08 13.2999 16.22 13.2899 16.35C12.8999 16.42 12.8899 16.19 12.7599 16.05C13.2899 15.81 13.1999 15.7 13.4499 15.51C13.3299 15.45 13.2099 15.4 13.0899 15.35C12.7899 15.2 12.4899 14.97 12.5999 14.72C13.2499 15.09 13.2399 14.37 13.8299 14.66C13.2299 14.18 14.0699 13.87 13.7699 13.56C13.7999 13.28 14.0699 13.07 14.3799 13.33C14.3699 13.37 14.3899 13.47 14.3699 13.55L14.5399 13.38C14.5899 13.45 14.6499 13.49 14.6399 13.52C14.7799 13.37 14.3699 13.02 14.8299 13.06C14.9799 13.19 14.8799 13.3 14.8699 13.44C15.3099 13.11 14.6399 11.95 15.4699 12.06C15.2599 11.75 15.6999 11.26 15.0199 10.8C15.3499 10.87 15.7599 11.36 16.0099 10.94C15.7299 10.27 16.5599 10.75 16.5299 10.18C16.6699 11.03 16.6599 10.33 16.8299 11.11C17.2399 11.09 16.9799 10.11 17.4799 9.81997C17.6299 9.90997 17.7599 10.06 17.9099 10.14C17.9099 9.82997 17.7399 9.24997 18.2499 9.54997L17.9199 9.18997C18.3799 9.13997 18.6899 8.67997 19.3399 8.85997L19.1799 7.83997C20.2699 8.24997 20.4699 7.06997 20.4899 6.07997C20.7199 5.98997 21.1199 5.93997 21.2199 6.11997C21.2099 6.20997 21.1999 6.37997 21.1699 6.53997C21.4899 6.37997 22.1199 6.62997 21.9199 5.86997C22.1299 5.48997 22.3999 6.18997 22.6999 6.17997C22.8599 4.86997 24.9299 5.95997 24.4699 4.38997C24.1899 4.49997 23.5199 4.43997 23.0299 4.75997C23.0799 4.51997 22.8299 4.27997 23.0099 4.14997C23.5199 3.81997 24.0499 4.25997 24.4799 3.76997L24.8199 4.74997C25.4699 5.04997 25.7399 4.56997 26.0599 4.15997C26.3599 3.77997 26.7799 3.43997 27.2299 4.12997Z" fill="#C8B3A3"/>
<path d="M20.7202 6.98998L21.3502 7.21999L21.0802 6.85999C21.0102 6.99999 20.8902 7.05998 20.7202 6.98998Z" fill="#C8B3A3"/>
<path d="M21.08 6.86994C21.13 6.77994 21.16 6.67994 21.18 6.55994C21.1 6.59994 21.03 6.65994 21.02 6.76994L21.08 6.86994Z" fill="#C8B3A3"/>
<path d="M28.6802 4.03001C28.7502 4.10001 28.8702 4.21001 29.0602 4.16001C29.0002 4.00001 28.7902 3.91001 28.6802 4.03001Z" fill="#C8B3A3"/>
<path d="M29.2002 3.87002C29.1602 3.79002 29.1102 3.72002 29.0602 3.65002L28.9902 3.76002C29.0602 3.79002 29.1302 3.83002 29.2002 3.87002Z" fill="#C8B3A3"/>
<path d="M40.1401 8.10992L40.8901 7.53992C40.9801 7.86992 41.8301 7.56992 41.5001 8.08992C42.0001 7.36992 42.8801 8.28992 42.7001 7.14992C41.5201 7.11992 40.2901 6.98992 39.1001 6.90992C37.9001 6.82992 36.8501 6.77992 35.8001 6.91992C35.9401 6.81992 36.0901 6.70992 36.2201 6.59992C35.6201 6.86992 35.3801 6.49992 35.2001 6.25992C35.0001 5.99992 34.8601 5.88992 33.9901 6.29992L34.6201 5.66992C34.4601 5.23992 33.0901 6.03992 33.3201 4.96992L33.1101 5.26992C33.0001 5.15992 33.0701 5.00992 32.9701 4.89992L32.9001 5.05992C32.3601 5.02992 32.2201 4.82992 32.0801 4.36992C32.2501 4.13992 32.3101 4.41992 32.4501 4.44992C32.5101 4.10992 31.8601 4.31992 31.6201 4.09992C31.5801 3.73992 31.8801 3.79992 31.9901 3.72992C31.4801 3.53992 31.2501 3.19992 30.9501 2.97992C30.6501 2.76992 30.2701 2.65992 29.6601 3.10992C29.5101 3.30992 29.7201 3.61992 29.3501 3.58992C29.7401 4.18992 30.3601 3.99992 31.0701 4.09992L30.9401 3.98992C32.1101 3.29992 31.0501 4.42992 31.9501 4.50992C31.4601 4.74992 31.2201 4.54992 30.9501 4.67992C30.9101 5.92992 32.3201 4.93992 31.8401 6.20992L31.7701 6.19992C31.7701 6.36992 32.1001 6.34992 32.3101 6.39992C32.3801 6.23992 32.3001 6.05992 32.3001 5.87992C32.5101 5.91992 32.9701 5.58992 33.1801 5.45992C32.9401 5.99992 33.5601 5.44992 33.6001 5.85992C33.3401 6.31992 33.0801 6.03992 32.8001 6.15992H33.3301C33.6101 6.36992 33.2201 6.80992 33.1901 7.15992C33.6801 7.03992 33.2301 6.82992 33.7701 6.54992C33.7101 6.90992 34.0501 7.32992 34.5601 7.55992C35.0701 7.79992 35.7001 7.82992 36.1301 7.68992C35.8601 7.68992 35.8901 8.19992 35.6001 8.01992C35.6801 8.16992 36.1601 8.02992 36.2601 7.63992C36.8301 7.42992 37.4101 7.76992 37.8801 8.18992L37.7801 7.76992C38.2501 7.15992 38.7901 8.36992 39.5901 8.03992L39.5701 8.02992C39.8201 7.95992 40.1001 6.99992 40.5601 7.23992C40.3901 7.68992 40.1501 7.62992 40.1401 8.10992Z" fill="#C8B3A3"/>
<path d="M43.1602 7.58C43.0102 7.74 42.8702 7.9 42.7402 8.06C43.0102 8.23 43.5902 7.67 43.6402 7.31C43.3902 7.35 43.1402 7.04 43.0202 7.35C43.0402 7.44 42.9902 7.63 43.1602 7.58Z" fill="#C8B3A3"/>
<path d="M48.3398 11.1999C48.5198 11.2599 48.6898 11.1299 48.8598 11.1199C47.9898 9.58993 46.4398 8.78993 46.1998 8.12993C45.8698 7.72993 45.3698 8.40993 44.7998 8.33993L44.8098 7.71993C44.3998 7.90993 43.7098 7.02993 43.7198 8.00993C43.7198 8.08993 44.1098 7.68993 44.2998 7.93993L44.1398 8.21993C44.3298 8.24993 44.5198 8.29993 44.7098 8.34993L44.3798 8.63993C44.7998 9.46993 45.4198 7.78993 46.1198 8.65993L45.6698 9.31993C46.1598 9.69993 46.5998 9.72993 46.6598 10.4699C46.6598 10.4699 46.9498 10.1899 46.7598 10.2299C46.7098 10.1299 46.8298 9.78993 47.0498 9.66993C48.2498 9.98993 46.6198 9.88993 46.8598 10.6299C47.3398 10.7299 47.9398 11.1199 48.3198 11.6799C48.6998 12.2399 48.7798 12.9399 48.4698 13.2399C48.6898 12.9799 48.9398 12.9899 49.1398 13.1899C49.3498 13.3799 49.4698 13.7699 49.4098 14.1199C49.0998 14.3899 48.9598 13.8599 48.7198 13.7699C48.6098 14.0399 48.4098 14.2299 48.4598 14.4999C48.9598 14.2499 49.5398 14.5199 49.5898 15.3899C50.0698 14.6399 49.9498 13.6999 49.5398 13.0099C49.1598 12.2799 48.6198 11.7899 48.3398 11.1999Z" fill="#C8B3A3"/>
<path d="M49.1399 11.27C49.0499 11.13 48.9499 11.11 48.8599 11.12C48.9699 11.28 49.0499 11.49 49.1199 11.66L49.1399 11.27Z" fill="#C8B3A3"/>
</g>
</svg>
