<svg width="669" height="300" viewBox="0 0 669 300" fill="none" xmlns="http://www.w3.org/2000/svg">
<g clip-path="url(#clip0_786_3722)">
<path d="M65.806 207.837C45.3918 196.283 19.4759 203.465 7.92135 223.879C-3.63319 244.293 3.54905 270.209 23.9633 281.764C44.3776 293.318 70.2934 286.136 81.848 265.722C93.4025 245.308 86.2203 219.392 65.806 207.837Z" fill="#97C364"/>
<path d="M42.8296 246.667C47.6077 256.727 55.6075 264.905 65.5606 269.903Z" fill="#C1B79E"/>
<path d="M42.2818 246.961C47.1388 257.029 55.1093 265.265 65.0129 270.45C65.7285 270.829 66.3599 269.734 65.6443 269.355C55.9422 264.27 48.1346 256.196 43.3763 246.33C43.0395 245.614 41.9451 246.33 42.2818 246.961Z" fill="#928575"/>
<path d="M42.7871 249.992C55.0115 243.602 65.5655 234.432 73.6003 223.22Z" fill="#C1B79E"/>
<path d="M43.0828 250.539C55.2695 243.968 65.8276 234.747 73.9802 223.556C74.4433 222.883 73.3488 222.252 72.8858 222.925C64.8431 233.889 54.4429 242.908 42.4514 249.318C41.7358 249.697 42.4514 250.792 43.0828 250.413V250.539Z" fill="#928575"/>
<path d="M41.2723 249.066L39.7148 211.181Z" fill="#C1B79E"/>
<path d="M41.9044 249.066L40.3048 211.433C40.3048 210.634 38.9999 210.634 39.042 211.433L40.5995 249.319C40.5995 250.16 41.9044 250.16 41.8623 249.319L41.9044 249.066Z" fill="#928575"/>
<path d="M37.0211 249.318L7.26025 240.478Z" fill="#C1B79E"/>
<path d="M37.1893 248.645L7.4285 239.847C7.26662 239.803 7.09363 239.824 6.94759 239.907C6.80154 239.99 6.69441 240.127 6.64975 240.289C6.6051 240.451 6.62658 240.624 6.70947 240.77C6.79236 240.916 6.92986 241.023 7.09175 241.068L36.8526 249.866C37.0145 249.91 37.1875 249.889 37.3335 249.806C37.4795 249.723 37.5867 249.586 37.6313 249.424C37.676 249.262 37.6545 249.089 37.5716 248.943C37.4887 248.797 37.3512 248.69 37.1893 248.645Z" fill="#928575"/>
<path d="M38.7043 250.329C35.1418 254.319 32.8758 259.298 32.2068 264.605C31.5377 269.913 32.4971 275.298 34.9579 280.048" fill="#C1B79E"/>
<path d="M38.2409 249.866C34.6377 253.994 32.3484 259.103 31.666 264.54C30.9836 269.977 31.9391 275.494 34.4103 280.384C34.747 281.1 35.8415 280.384 35.5047 279.753C33.1654 275.109 32.2643 269.872 32.9167 264.714C33.5691 259.555 35.7452 254.707 39.167 250.792C39.6721 250.16 38.7881 249.276 38.2409 249.866Z" fill="#928575"/>
<g opacity="0.72">
<path d="M3.80809 217.411L4.39741 216.527C3.67264 216.641 2.94169 216.711 2.2085 216.737C2.7213 217.008 3.25649 217.233 3.80809 217.411Z" fill="#C0B199"/>
<path d="M10.8381 215.222C10.6183 215.163 10.4063 215.078 10.2067 214.97C7.21794 214.128 5.9972 213.917 5.2395 213.707C3.90501 213.498 2.53876 213.704 1.32471 214.296C1.91379 214.989 2.68749 215.499 3.55572 215.769C4.65246 216.11 5.82654 216.11 6.92328 215.769C6.62862 215.769 4.14504 215.264 4.98693 214.675C6.71281 215.012 6.58652 215.475 8.90172 215.306C11.2169 215.138 7.34423 215.306 8.27031 214.759L10.8381 215.222Z" fill="#C0B199"/>
<path d="M5.36475 213.201C6.28395 213.618 7.2255 213.983 8.18508 214.296C7.13272 213.959 6.12245 213.075 5.36475 213.201Z" fill="#C0B199"/>
<path d="M4.9873 212.402C5.45034 211.897 7.09202 213.37 7.42878 213.454C6.26902 212.735 5.1833 211.903 4.1875 210.971C4.42892 211.461 4.69589 211.939 4.9873 212.402Z" fill="#C0B199"/>
<path d="M7.42803 208.992C6.33357 208.108 6.50195 208.992 6.67033 209.792H6.8808C7.93317 210.339 9.74323 212.654 8.94343 212.36C9.2381 213.033 6.96499 211.349 8.22783 212.739C8.96532 213.012 9.671 213.365 10.3326 213.791C10.2484 213.496 7.72269 210.171 7.42803 208.992Z" fill="#C0B199"/>
<path d="M6.62695 210.255C6.6761 210.377 6.6761 210.512 6.62695 210.634C7.08999 210.844 6.96371 210.592 6.62695 210.255Z" fill="#C0B199"/>
<path d="M5.61768 211.139L5.95443 211.77L7.0068 212.317C6.62794 211.939 6.03862 211.433 5.61768 211.139Z" fill="#C0B199"/>
<path d="M9.32128 207.561C9.99479 209.413 9.70013 209.455 9.32128 209.413C8.94243 209.371 8.3952 209.413 9.32128 210.634C9.86851 210.044 11.5523 212.444 12.3521 214.422C12.2341 214.034 12.1357 213.641 12.0574 213.243C11.5326 211.186 10.6024 209.254 9.32128 207.561Z" fill="#C0B199"/>
<path d="M16.1419 211.434C15.2357 212.623 14.1061 213.624 12.8165 214.38C13.3637 213.202 13.4479 211.897 14.1635 211.728C13.6163 211.181 13.1111 211.728 12.7323 211.939C12.3534 212.149 12.4376 212.907 12.3955 212.654C12.3955 208.992 12.9848 212.654 13.3216 209.287C12.9007 209.287 12.0588 209.287 12.2271 212.486C12.0475 211.668 11.7646 210.876 11.3853 210.129C11.7641 211.391 12.0588 212.696 12.3113 214.001C12.5639 215.306 12.1009 210.886 12.3113 213.665C12.3266 213.804 12.3266 213.946 12.3113 214.086V213.58V217.032C12.1562 217.474 11.9286 217.886 11.6378 218.253C11.8029 218.508 12.0191 218.725 12.2727 218.892C12.5263 219.059 12.8119 219.171 13.1111 219.221C15.3421 219.852 15.0475 213.033 16.1419 211.434Z" fill="#C0B199"/>
<path d="M16.3101 216.064L16.5626 217.79L16.3522 215.517L16.3101 216.064Z" fill="#C0B199"/>
<path d="M18.8763 211.433C18.5829 212.223 18.2456 212.996 17.8661 213.749C17.6156 213.095 17.4323 212.418 17.3188 211.728C17.3188 212.696 17.3188 214.212 17.3188 215.011C18.4133 218.884 19.2131 214.127 19.7603 213.454C22.4123 214.675 20.0971 215.39 21.8651 218.547C21.0653 218.547 20.8548 217.79 19.8024 217.621C20.939 219.6 22.0755 219.431 22.7911 218.674C23.4066 217.787 23.8362 216.784 24.054 215.727C23.6751 215.727 23.2121 214.548 22.8332 215.054C22.8332 214.548 23.1279 214.043 23.2542 213.538C21.3178 211.433 20.6022 210.928 18.8763 211.433Z" fill="#C0B199"/>
<path d="M16.604 210.802C17.0249 210.802 17.2354 211.013 17.3196 211.56C17.1091 210.549 16.9408 209.75 16.604 210.802Z" fill="#C0B199"/>
<path d="M24.5188 215.306C24.5188 215.306 24.1821 215.306 24.0558 215.643C23.9295 215.98 24.3925 215.643 24.5188 215.306Z" fill="#C0B199"/>
<path d="M22.0342 211.813H23.0445L22.0342 210.466C21.8981 210.904 21.8981 211.374 22.0342 211.813Z" fill="#C0B199"/>
<path d="M45.5247 201.415C45.5247 199.984 45.5247 199.184 45.0195 199.479C45.0195 197.5 45.8193 197.921 46.2403 196.911C45.651 195.564 46.5349 194.638 46.5349 192.701C45.5668 192.365 45.0195 194.974 44.0935 194.385C44.1961 193.701 44.1961 193.006 44.0935 192.323C42.7464 193.543 41.1889 195.522 39.884 194.133C38.6633 193.67 37.9898 194.722 37.19 195.985C35.1628 196.324 33.3012 197.314 31.886 198.805C30.3891 200.214 28.8001 201.522 27.1294 202.72C28.0554 203.562 29.0236 204.404 30.0339 205.203C28.2238 204.488 29.2762 206.508 27.3398 204.909C27.8871 204.909 27.7187 204.446 27.845 204.109C26.1191 203.688 25.9086 204.109 25.7823 205.119C25.6561 206.13 25.7823 207.14 24.9404 207.224C25.4456 207.645 27.845 210.044 27.9292 210.928C25.3193 207.392 26.7084 212.486 23.7197 208.571C22.2043 208.571 25.6561 211.896 24.1406 212.317C25.193 214.717 25.9507 212.317 27.1715 213.791C27.8029 215.98 25.4877 214.085 26.8347 216.401C28.4343 216.064 29.655 213.454 29.9918 210.423C30.0737 208.937 30.0737 207.447 29.9918 205.961C29.9918 205.119 29.9918 204.993 29.9918 204.53C29.9298 204.154 29.9298 203.77 29.9918 203.393L31.7177 204.993C30.96 203.225 32.5175 201.499 35.4641 204.151C33.9908 202.467 37.19 204.151 34.4117 200.194C35.2957 201.036 35.2536 200.826 35.8008 200.994L35.1273 199.521C35.7167 199.268 36.7269 201.499 37.2321 201.12C36.3552 199.865 35.779 198.425 35.5483 196.911C37.1748 198.399 38.6291 200.065 39.884 201.878C39.641 201.082 39.3017 200.319 38.8737 199.605C39.5473 200.236 38.8737 198.258 38.8737 197.5C38.8737 196.742 39.9682 200.026 40.305 201.415C41.1048 202.046 40.305 196.742 41.4415 198.426L40.8522 196.237C41.7783 195.48 42.7885 197.921 43.7146 197.121C44.2197 200.152 42.999 199.815 42.7885 201.331C43.139 201.868 43.3821 202.469 43.5041 203.099C43.7679 201.339 44.2341 199.616 44.8933 197.963C44.2618 201.331 45.3142 201.12 45.5247 201.415Z" fill="#C0B199"/>
<path d="M43.4602 203.015C43.4267 203.435 43.4267 203.857 43.4602 204.278C43.4602 204.278 43.4602 203.857 43.4602 203.983C43.4846 203.661 43.4846 203.337 43.4602 203.015Z" fill="#C0B199"/>
<path d="M45.5234 201.415V201.794C45.5234 201.794 45.5655 201.499 45.5234 201.415Z" fill="#C0B199"/>
<path d="M41.062 204.067C40.7441 203.299 40.3492 202.566 39.8833 201.878C40.1072 202.687 40.51 203.435 41.062 204.067Z" fill="#C0B199"/>
<path d="M36.0933 203.478C36.3433 204.034 36.639 204.569 36.9772 205.077C37.2298 204.993 36.9352 204.32 36.0933 203.478Z" fill="#C0B199"/>
<path d="M44.2188 203.52L44.7239 202.846L44.9764 202.257C44.6932 202.659 44.44 203.081 44.2188 203.52Z" fill="#C0B199"/>
<path d="M61.6886 200.068C62.6568 197.458 60.8888 198.089 60.4258 196.995C58.1106 196.995 56.2163 201.204 54.9114 200.363L58.6999 196.153C57.2687 195.185 55.0377 192.491 51.7122 196.153C51.7122 195.522 51.9648 194.596 52.6804 194.09C51.4597 193.796 49.1445 201.12 48.7656 199.016C50.9545 196.195 49.4391 195.774 50.744 192.659L51.0808 192.365C49.9022 192.365 48.2184 193.838 47.6711 193.501C47.4186 194.89 47.4607 197.079 46.7451 197.163C46.8214 198.272 46.693 199.385 46.3662 200.447C47.2502 198.973 47.3344 200.068 48.1763 198.3C48.1763 200.194 47.7974 198.847 47.6711 200.699C47.9658 200.194 48.3026 199.647 48.6393 199.184C48.6393 199.731 47.7553 200.826 48.0921 201.373C48.4709 200.363 49.3128 199.436 49.6496 199.815L49.3128 200.363C49.9022 199.773 49.9443 200.826 51.0808 198.005C50.7861 198.973 50.4915 199.942 50.1126 200.91L50.9966 199.016C51.7122 200.278 48.9761 204.572 51.3334 202.972C51.3334 202.299 52.3857 201.583 52.7646 201.373C53.1855 199.857 51.2913 202.257 50.8282 202.257C51.8385 200.447 54.1116 198.973 54.2379 197.542C53.4381 199.942 55.7112 198.258 52.6383 202.467C53.1855 203.351 55.164 201.71 55.2903 203.435L54.7851 204.025C57.1845 201.541 54.7851 205.919 57.6476 204.025V202.972C58.5736 201.92 58.8683 202.088 59.3734 202.173C59.0646 202.445 58.8324 202.793 58.6999 203.183C60.3416 201.331 61.6886 201.752 62.1938 201.162C62.1938 200.573 60.2574 201.878 59.2892 201.92C60.3837 201.162 61.5623 199.394 61.6886 200.068Z" fill="#C0B199"/>
<path d="M48.7217 201.794L49.3952 200.741C49.1196 201.057 48.8926 201.411 48.7217 201.794Z" fill="#C0B199"/>
<path d="M65.224 206.172C66.108 206.887 64.5926 208.234 65.224 209.455C66.4027 207.898 64.6347 205.835 65.9396 203.393C66.2343 204.909 67.2446 202.425 67.4971 202.383C67.1228 204.168 67.0234 205.999 67.2025 207.813C67.5813 206.929 68.2969 208.613 68.8863 208.655C67.5392 206.593 69.9807 207.435 68.8863 205.204C68.8863 203.225 70.0228 201.752 70.5279 203.225C71.0331 204.698 70.1912 204.362 69.8965 204.446C69.8965 207.14 70.6963 205.835 71.0331 208.276C72.0433 204.488 75.453 204.572 74.2743 198.637C73.8113 197.5 73.4746 198.974 73.0957 199.268C74.3585 200.405 73.0957 202.383 73.0957 203.478C72.5064 202.552 71.7908 204.488 71.8329 202.341L72.5064 200.068C69.953 199.526 67.3143 199.526 64.761 200.068C65.0477 200.212 65.3429 200.339 65.645 200.447C65.1819 202.004 64.6347 202.004 63.9612 202.552C63.6983 203.942 63.5295 205.348 63.4561 206.761C63.0772 206.34 62.4458 206.761 62.9509 205.414C62.046 206.477 61.5927 207.852 61.6881 209.245C61.3977 209.316 61.0944 209.316 60.8041 209.245C60.0464 208.908 59.9622 208.403 58.2363 209.708C58.6152 211.476 59.3729 211.518 60.0464 211.223C60.7199 210.928 61.8986 209.75 63.2456 211.728C64.1296 209.581 64.7189 207.898 65.224 206.172Z" fill="#C0B199"/>
<path d="M60.0884 206.719L61.4354 205.162L60.2989 205.667L60.0884 206.719Z" fill="#C0B199"/>
<path d="M64.4238 199.142C64.0871 199.942 63.7503 200.236 63.4136 201.036C63.7924 201.836 64.1292 200.657 64.4238 199.142Z" fill="#C0B199"/>
<path d="M72.085 208.403L72.969 207.645L72.3375 206.929C72.3853 207.434 72.2982 207.942 72.085 208.403Z" fill="#C0B199"/>
<path d="M79.5779 198.258C77.5995 198.258 76.8418 200.194 74.9054 198.258C74.1477 200.868 75.3685 203.099 74.9054 205.456C75.4527 206.045 75.4527 201.626 76.4629 200.826C76.4629 203.057 77.81 200.405 78.6097 201.036C78.7711 200.061 79.0985 199.122 79.5779 198.258Z" fill="#C0B199"/>
<path d="M80.1239 207.729C80.4186 207.729 81.934 206.929 81.4288 208.024C80.9237 209.118 79.8713 209.287 79.9555 208.824C77.8508 211.391 80.5869 208.824 79.2399 210.55C79.5915 210.13 79.9866 209.749 80.4186 209.413C80.4186 210.634 82.86 208.234 81.9761 210.55C82.9734 210.427 83.9342 210.097 84.7964 209.581C82.7338 211.644 82.5233 211.097 80.8816 213.202C82.0181 212.696 84.4596 211.265 86.9011 210.255C84.165 213.454 88.164 212.023 85.9329 214.17C85.9329 214.17 85.0911 214.17 85.3015 213.707C81.8919 215.096 86.2697 214.464 85.8067 215.348L82.8179 216.274C83.4494 216.695 85.7646 217.158 83.744 218.505L82.1865 218.8C84.9227 219.6 84.2913 221.705 85.7225 222.757L83.9545 223.851C86.6486 225.198 84.6701 221.831 89.5531 222.21C83.9124 223.557 91.6157 222.841 89.5531 224.357C87.4904 225.872 88.2061 223.515 85.6804 224.357C88.6691 224.062 86.6485 224.777 87.5746 225.198C84.7964 225.493 87.5746 226.419 84.2071 226.545C86.0171 226.924 87.8272 227.345 89.6373 227.85C88.0798 228.356 88.4165 228.903 88.8796 229.282C88.8796 228.145 93.089 229.282 94.1835 227.766C93.2622 226.802 92.5952 225.624 92.2425 224.338C91.8898 223.052 91.8624 221.699 92.1629 220.4C88.3323 220.989 91.8262 218.884 88.6691 219.263L92.0367 218.127C90.858 216.822 90.0582 219.011 88.627 218.968C87.9535 218.463 90.0582 217.369 91.4473 217.032C91.4473 215.938 90.395 217.032 88.206 217.032L92.0787 215.18C90.9843 213.665 89.3426 212.065 88.0798 210.381C86.7132 208.534 85.8174 206.381 85.4699 204.109L83.7019 206.172C83.7019 204.951 82.1865 205.498 81.1342 206.172C80.0818 206.845 79.6188 206.845 80.3344 203.941C79.8292 204.572 79.3662 205.246 78.9032 205.919C79.745 204.783 80.2923 202.046 81.4709 200.615C80.5869 201.205 80.3765 200.152 79.5346 200.615C79.7401 201.078 79.909 201.557 80.0397 202.046C78.6506 203.983 78.5664 202.552 78.819 200.615C78.4001 201.085 78.0919 201.643 77.917 202.247C77.7422 202.852 77.7052 203.488 77.8087 204.109C77.9972 205.21 77.9972 206.334 77.8087 207.435C79.2399 205.161 79.2399 206.551 78.6506 208.024C78.0613 209.497 77.0931 211.307 77.935 210.592C78.7769 209.876 79.282 208.908 80.1239 207.729Z" fill="#C0B199"/>
<path d="M82.0601 200.32C81.8299 200.463 81.6179 200.632 81.4287 200.826C81.6534 200.676 81.8646 200.507 82.0601 200.32Z" fill="#C0B199"/>
<path d="M88.8377 229.45C88.795 229.615 88.795 229.789 88.8377 229.955C89.7217 230.039 89.2166 229.829 88.8377 229.45Z" fill="#C0B199"/>
<path d="M76.5483 207.266L76.8009 207.351L77.0535 206.172L76.5483 207.266Z" fill="#C0B199"/>
<path d="M86.6064 236.059L87.9114 235.596C87.4538 235.677 87.0129 235.834 86.6064 236.059Z" fill="#C0B199"/>
<path d="M91.7854 245.951C91.7021 245.909 91.6604 245.867 91.7854 245.951Z" fill="#C0B199"/>
<path d="M86.6077 274.575C86.6472 276.184 86.802 277.788 87.0708 279.374L86.3973 278.111V279.121C86.2595 279.887 86.3186 280.675 86.5689 281.411C86.8193 282.147 87.2527 282.808 87.8285 283.331L87.618 282.11V281.605C88.1231 280.3 89.7227 283.71 91.2381 283.668C92.3326 282.026 89.3439 277.522 90.8593 277.606C91.0698 277.143 92.08 278.111 92.7535 278.953C93.8901 278.111 90.9014 275.291 90.7751 274.491C95.3213 277.185 95.2792 275.838 94.6057 274.491C93.9322 273.144 92.9219 271.46 96.2474 272.176C95.8685 270.997 97.2156 270.155 95.7422 268.261C97.9733 269.819 96.3316 267.293 99.0256 268.598C93.385 266.241 102.772 266.072 95.4897 263.546C97.9733 262.662 95.0266 263.546 97.2156 262.115C98.0575 262.326 97.9733 262.62 98.0995 262.789C99.8254 262.494 95.195 260.894 98.7731 261.189C99.657 259.842 96.7946 260.431 94.9845 259.127C96.1632 257.906 97.0893 258.537 100.415 258.327C96.7946 257.485 98.731 256.895 96.963 255.885C96.6388 256.175 96.2192 256.335 95.7843 256.335C95.3495 256.335 94.9298 256.175 94.6057 255.885C95.4476 254.328 92.4168 254.201 91.617 252.644C95.8264 252.349 91.617 254.159 94.9004 253.233C96.6683 254.412 96.3737 255.17 99.1098 256.18C99.3151 255.308 99.2786 254.396 99.0042 253.543C98.7297 252.69 98.2277 251.928 97.5523 251.339C98.1416 250.539 99.4466 251.928 99.8254 251.339C101.762 249.866 95.8264 248.813 97.6786 247.719L99.7412 248.014C97.0051 247.256 100.373 245.277 98.731 243.804C97.9762 244.141 97.1582 244.313 96.3316 244.309C98.9414 243.93 98.2258 243.467 97.2998 243.046C96.3737 242.625 95.195 242.415 96.7104 241.026C95.2161 241.746 93.6296 242.256 91.9958 242.541C91.6329 242.594 91.2643 242.594 90.9014 242.541C91.8223 241.938 92.7781 241.39 93.7638 240.9C93.385 241.699 93.7638 241.531 94.9845 241.194C96.4345 240.524 98.018 240.193 99.6149 240.226C99.0408 240.129 98.5272 239.812 98.1837 239.342C97.9211 238.901 97.4943 238.583 96.9971 238.457C96.4999 238.33 95.9729 238.407 95.5318 238.669L97.847 237.237C96.9209 235.806 92.5431 240.521 93.385 237.911L94.732 236.522C93.6796 235.848 93.7638 234.543 93.7217 233.491C93.6796 232.439 93.2587 231.386 91.0277 230.586C88.8524 230.99 86.7231 231.611 84.6714 232.439C86.5539 233.61 88.6626 234.37 90.8593 234.67L88.0389 235.722C90.1016 235.385 91.7012 235.722 92.8798 234.585C94.5215 234.585 90.8172 236.395 92.8798 236.227C90.3121 238.121 89.5964 237.616 87.3654 238.963C88.0469 239.091 88.7358 239.176 89.4281 239.216C88.1652 239.637 89.1334 240.521 87.9127 240.984C92.7114 240.479 88.6704 243.678 90.4804 243.046V242.457C91.7854 241.236 91.8695 241.531 92.4589 241.363C91.6515 242.103 90.9184 242.921 90.27 243.804L91.0277 243.509C92.5431 242.878 94.7741 242.078 94.9425 242.668C91.7433 243.888 93.427 244.351 90.733 245.151C94.0164 244.393 91.9537 245.698 93.848 245.53C94.5215 245.74 94.1847 246.288 92.4168 246.372L91.8275 246.077V246.456H90.8172C90.8172 246.835 93.1324 246.793 91.4907 247.298C90.6067 247.298 90.6488 247.045 90.27 246.835C89.7227 247.761 95.2792 248.687 92.2484 249.445C93.8059 249.697 93.848 250.918 97.426 250.876C96.1211 251.171 93.2166 250.876 93.8059 251.76C96.6683 252.56 92.5852 252.644 94.4373 253.528C91.4065 252.265 93.5533 253.528 90.6909 252.307C89.4281 252.728 93.2587 254.075 92.5852 255.043H90.27C91.2381 255.548 93.5533 256.432 91.0698 256.348L93.1745 256.685C91.9537 257.19 92.4589 258.327 90.0174 258.537L93.7217 260.305C89.3018 260.305 92.5852 262.873 95.7002 265.062C95.4363 265.329 95.106 265.52 94.7433 265.616C94.3807 265.712 93.9989 265.71 93.6375 265.609L92.4168 264.641C92.0379 265.272 89.6385 265.188 92.4168 266.704C93.1324 267.714 90.1016 266.367 89.386 266.704C93.2166 269.861 84.6714 268.85 90.9435 272.344C91.2381 271.839 93.0061 271.418 93.2166 270.239C93.8901 270.871 95.2371 271.208 95.2371 271.671C95.0266 272.934 92.3747 272.302 92.9219 273.86L88.9229 271.713C86.3973 271.713 87.4917 272.723 88.2073 274.07C88.9229 275.417 89.4702 276.596 86.6077 274.575Z" fill="#C0B199"/>
<path d="M92.3736 263.084H89.9321L91.8264 263.631C91.6159 263.294 91.658 263.084 92.3736 263.084Z" fill="#C0B199"/>
<path d="M91.8267 263.63C92.0486 263.899 92.3031 264.14 92.5844 264.346C92.5844 264.346 92.5844 264.009 92.3318 263.757L91.8267 263.63Z" fill="#C0B199"/>
<path d="M85.2607 276.722C85.0503 276.722 84.6714 276.385 84.5872 276.975C84.503 277.564 85.4712 277.438 85.2607 276.722Z" fill="#C0B199"/>
<path d="M85.0913 278.322L85.7648 278.869V278.364L85.0913 278.322Z" fill="#C0B199"/>
<path d="M64.7599 287.667L65.2229 290.74C64.2127 289.729 63.7917 292.045 62.9077 289.729C64.0443 292.971 60.3821 291.371 63.4971 295.075C65.3153 293.329 67.2878 291.751 69.3903 290.361C70.2729 289.831 71.0307 289.116 71.6118 288.266C72.193 287.416 72.5839 286.451 72.7579 285.436C72.7579 286.067 72.9683 286.699 73.0946 287.372C73.0946 285.352 73.8523 286.151 74.2312 286.699C74.61 287.246 74.6942 287.246 75.2414 283.499V287.204C75.6624 288.256 76.7569 281.647 77.5987 285.773V284.215C77.8934 284.215 77.9355 284.931 78.2302 284.973V284.257C79.1562 282.784 79.5772 282.994 80.4191 284.257C80.4191 285.52 79.956 284.804 79.7035 285.099C79.956 286.362 80.9242 283.794 81.6819 283.836C82.3975 284.889 81.6819 285.562 81.6819 286.109C82.9868 285.267 83.9971 285.73 84.9232 285.688C85.8493 285.646 86.5649 285.015 86.3123 282.068C86.0598 281.058 85.1758 280.384 85.6388 279.711C83.9129 278.364 83.7866 280.637 82.5659 282.237H82.9447C82.7343 285.057 82.3975 284.762 82.0608 284.047C81.724 283.331 81.3452 282.237 80.4612 283.415C81.0084 281.184 81.6398 281.184 81.8082 279.963C80.377 275.754 79.3667 283.121 78.6511 277.564C78.4406 277.017 77.9355 278.027 77.5567 278.49C77.6696 279.077 77.8681 279.645 78.146 280.174C77.6881 281.451 77.3912 282.78 77.262 284.131C77.0094 281.647 76.6727 285.309 76.2096 284.131C76.2096 281.858 76.7569 282.068 77.0515 280.847C76.7569 281.353 76.5043 281.858 76.2517 282.363C75.9992 282.868 75.6624 279.879 75.2414 278.659C74.6942 280.384 75.6203 279.879 75.2414 282.321C75.2205 282.046 75.1356 281.78 74.9934 281.543C74.8513 281.307 74.6558 281.107 74.4227 280.96C74.1895 280.813 73.9251 280.722 73.6507 280.695C73.3763 280.668 73.0993 280.706 72.8421 280.805C72.2978 281.038 71.8287 281.416 71.4868 281.9C71.145 282.383 70.9438 282.951 70.9057 283.542C71.2004 283.078 70.0638 281.268 70.9057 281.353C70.4848 280.974 70.2322 282.363 70.9057 283.962C70.9057 285.73 69.3482 285.309 67.6223 284.51L68.8431 285.857C69.8954 288.677 65.9806 285.183 65.7702 287.456C65.7702 288.046 67.7907 291.666 66.4858 291.666C65.5597 289.477 66.0227 289.351 64.7599 287.667Z" fill="#C0B199"/>
<path d="M61.6884 294.402C61.6884 293.56 61.3938 292.718 61.1833 291.919C60.3414 291.919 60.8045 294.949 61.5622 296.381C61.8568 295.707 63.0355 296.381 62.4882 294.991C62.2357 294.739 61.8568 293.939 61.6884 294.402Z" fill="#C0B199"/>
<path d="M46.575 296.044C46.1417 296.626 45.7878 297.263 45.5227 297.938C47.4609 298.434 49.458 298.66 51.458 298.611C52.9274 298.39 54.4267 298.72 55.6675 299.538C57.0145 300.085 56.5935 296.423 57.6038 295.328C57.9827 296.086 58.4036 296.843 58.8246 297.559C59.0771 295.917 62.1921 297.559 59.919 294.107C59.919 293.813 59.919 296.086 59.2034 295.623L58.8667 294.276L57.7301 295.118V293.307C55.5412 291.329 57.7301 298.78 54.9098 297.517L54.5309 294.023C53.1839 294.023 52.2578 295.16 51.1634 292.971C51.1634 292.971 51.1634 294.697 51.1634 294.023C51.5324 294.856 51.621 295.787 51.4159 296.675C48.5535 299.201 51.9631 294.655 50.4477 293.055C49.8992 293.609 49.2424 294.045 48.5182 294.335C47.794 294.624 47.0179 294.762 46.2383 294.739C44.765 294.739 43.6284 293.602 44.0073 292.003C43.7126 294.444 41.229 295.539 40.303 294.318C40.6397 292.887 41.9026 292.929 42.6182 292.171C42.6182 291.455 42.6182 290.487 42.0709 290.445C41.229 292.508 39.3348 294.318 37.3984 293.939C37.8194 296.128 39.7557 296.591 41.6079 296.296C43.4601 296.002 45.228 295.328 46.575 296.044Z" fill="#C0B199"/>
<path d="M44.5137 298.485C44.8926 298.485 45.1451 298.275 45.3556 297.938C44.9176 297.835 44.4936 297.679 44.0928 297.475L44.5137 298.485Z" fill="#C0B199"/>
</g>
<path d="M277.534 242.925L317.256 172.199C335.733 139.301 324.042 97.6535 291.143 79.1767L220.418 39.4552C187.52 20.9784 145.872 32.6694 127.395 65.5677L87.674 136.293C69.1972 169.191 80.8882 210.839 113.786 229.315L184.512 269.037C217.41 287.514 259.058 275.823 277.534 242.925Z" fill="#708371"/>
<g opacity="0.4">
<path d="M183.676 161.299C205.069 163.06 226.469 157.99 244.797 146.818C245.85 146.187 244.797 144.545 243.871 145.177C225.829 156.199 204.744 161.182 183.676 159.405C182.455 159.405 182.498 161.172 183.676 161.299Z" fill="white"/>
<path d="M190.118 163.74C191.263 137.137 186.49 110.611 176.143 86.0758C175.68 84.9393 173.87 85.4444 174.333 86.581C184.591 110.963 189.335 137.311 188.224 163.74C188.224 164.961 190.076 164.961 190.118 163.74Z" fill="white"/>
<path d="M186.666 164.456L122.556 129.896C121.503 129.307 120.535 130.949 121.63 131.538L185.698 166.098C186.792 166.687 187.76 165.045 186.666 164.456Z" fill="white"/>
<path d="M181.615 171.864L137.71 212.486C136.826 213.327 138.131 214.674 139.057 213.833L182.962 173.169C183.846 172.369 182.499 171.022 181.615 171.864Z" fill="white"/>
<path d="M184.812 171.065C188.038 181.03 194.171 189.803 202.423 196.254C210.674 202.705 220.667 206.54 231.116 207.266C232.337 207.266 232.337 205.456 231.116 205.372C221.053 204.687 211.426 201.006 203.473 194.801C195.521 188.597 189.608 180.154 186.496 170.56C186.117 169.381 184.307 169.886 184.686 171.065H184.812Z" fill="white"/>
</g>
<g opacity="0.72">
<path d="M293.588 215.642L293.209 217.242H295.44C294.855 216.673 294.236 216.139 293.588 215.642Z" fill="#928575"/>
<path d="M286.474 221.241C286.688 221.748 286.871 222.269 287.021 222.798C290.094 223.304 291.23 223.598 292.072 223.682C292.914 223.767 293.84 223.682 296.282 221.704C295.79 220.589 295.04 219.608 294.093 218.842C293.622 218.445 293.06 218.172 292.457 218.047C291.855 217.922 291.23 217.949 290.641 218.126C290.894 218.463 291.525 218.842 292.114 219.389C292.704 219.936 293.125 220.652 292.619 221.283C290.978 220.567 291.062 219.305 288.705 219.094C286.895 220.567 290.346 219.978 289.294 221.788L286.474 221.241Z" fill="#928575"/>
<path d="M291.946 224.819C291.086 224.282 290.168 223.844 289.209 223.514C290.22 224.062 290.977 225.451 291.946 224.819Z" fill="#928575"/>
<path d="M291.987 226.377C291.23 227.64 289.925 225.367 289.546 225.409C290.585 226.415 291.529 227.514 292.366 228.692C292.305 227.911 292.178 227.137 291.987 226.377Z" fill="#928575"/>
<path d="M288.367 231.344C288.278 231.591 288.207 231.844 288.157 232.102C288.662 232.48 288.662 231.849 288.367 231.344Z" fill="#928575"/>
<path d="M286.431 233.785C287.778 234.459 287.988 233.322 288.157 232.102H287.904C286.515 231.849 285.042 229.239 286.346 228.945C286.599 227.682 288.788 229.408 287.946 227.471C287.044 227.419 286.144 227.321 285.252 227.177C284.452 228.524 286.515 232.481 286.431 233.785Z" fill="#928575"/>
<path d="M288.367 231.344C288.441 231.084 288.587 230.851 288.788 230.67C288.156 230.586 288.24 230.923 288.367 231.344Z" fill="#928575"/>
<path d="M290.598 229.113V228.145L289.462 227.682L290.598 229.113Z" fill="#928575"/>
<path d="M282.138 236.69C281.549 234.796 282.138 234.543 283.19 234.333C284.243 234.122 284.958 233.828 284.201 232.523C282.727 233.744 280.244 231.723 279.654 229.618C279.427 230.199 279.131 230.751 278.771 231.26C278.924 232.349 279.302 233.395 279.882 234.33C280.462 235.265 281.23 236.069 282.138 236.69Z" fill="#928575"/>
<path d="M276.371 228.271C276.432 228.506 276.432 228.752 276.371 228.987C276.448 228.754 276.448 228.503 276.371 228.271Z" fill="#928575"/>
<path d="M268.29 232.481C270.206 232.422 272.057 231.775 273.593 230.628C273.004 231.765 272.752 232.944 271.783 233.112C272.031 233.337 272.354 233.461 272.688 233.461C273.023 233.461 273.346 233.337 273.593 233.112C274.099 232.691 274.477 232.186 275.025 232.481C275.025 236.185 272.709 232.481 272.878 235.722C273.566 235.806 274.263 235.704 274.898 235.427C275.36 235.114 275.739 234.694 276.003 234.203C276.267 233.712 276.408 233.164 276.414 232.607C276.992 233.406 277.656 234.14 278.392 234.796C277.887 233.533 277.466 232.27 277.087 230.965C276.708 229.66 276.33 234.249 275.824 231.47C275.724 231.056 275.709 230.626 275.782 230.206C275.854 229.786 276.012 229.385 276.245 229.029C275.993 229.408 275.488 228.692 275.235 227.85L274.983 226.714C274.983 226.419 274.983 226.208 274.983 226.335C273.885 227.089 272.942 228.046 272.204 229.155C270.815 230.544 269.594 232.186 268.29 232.481Z" fill="#928575"/>
<path d="M270.141 228.608L270.52 227.05L269.804 229.029L270.141 228.608Z" fill="#928575"/>
<path d="M261.637 231.007C262.763 230.268 263.999 229.714 265.3 229.365C265.549 230.052 265.635 230.787 265.552 231.512C265.552 230.544 267.11 229.45 267.236 228.692C267.236 226.629 265.552 226.377 264.163 226.882C262.917 227.498 261.708 228.187 260.543 228.944C257.933 228.187 257.765 227.976 258.186 227.134C258.607 226.293 259.49 225.282 258.186 223.767C258.886 223.708 259.588 223.854 260.206 224.188C261.005 224.474 261.82 224.713 262.648 224.903C261.886 223.962 260.807 223.332 259.613 223.13C258.42 222.929 257.193 223.17 256.165 223.809C254.436 224.843 252.99 226.289 251.956 228.018C252.755 228.018 253.303 228.818 254.355 228.018C253.788 228.704 253.281 229.436 252.84 230.207C255.625 231.352 258.691 231.631 261.637 231.007Z" fill="#928575"/>
<path d="M266.942 232.775C265.763 232.481 265.469 232.102 265.553 231.554C265.553 232.481 265.553 233.365 266.942 232.775Z" fill="#928575"/>
<path d="M250.777 228.776C251.114 228.776 251.409 228.482 251.83 227.977C251.661 227.977 251.282 228.271 250.777 228.776Z" fill="#928575"/>
<path d="M254.987 231.344C254.231 231.62 253.498 231.958 252.798 232.354L254.44 233.238C254.44 232.901 255.239 232.102 254.987 231.344Z" fill="#928575"/>
<path d="M199.591 261.694C199.591 263.168 200.054 264.052 201.359 263.757C201.107 265.778 199.423 265.23 198.497 266.198C200.139 267.672 198.202 268.472 198.497 270.408C200.644 270.955 201.738 268.261 203.927 268.893C203.83 269.604 203.917 270.329 204.18 270.997C205.784 270.204 207.444 269.529 209.147 268.977C210.722 268.267 212.5 268.147 214.156 268.64C216.692 268.555 219.093 267.482 220.849 265.651C225.38 264.494 229.595 262.336 233.183 259.337C236.918 256.245 240.435 252.898 243.706 249.319C242.907 248.182 242.065 247.13 241.223 246.119C243.075 246.709 242.359 244.309 244.38 245.698C243.706 245.698 243.791 246.54 243.454 247.088C247.663 247.088 245.98 241.994 248.421 240.31C247.705 240.31 244.59 238.921 244.548 237.869C247.958 240.352 246.401 234.838 250.863 237.069C253.641 235.638 247.958 234.585 250.863 232.397C249.558 230.081 247.327 234.333 245.643 233.617C245.18 232.649 245.937 231.976 246.611 231.428C247.285 230.881 247.748 230.502 246.611 229.618C245.745 230.246 244.991 231.014 244.38 231.891C243.834 232.64 243.369 233.445 242.991 234.291C242.284 236.064 241.789 237.915 241.518 239.805C241.321 243.247 240.655 246.646 239.539 249.908L238.066 248.014C237.987 248.979 237.687 249.913 237.189 250.744C236.691 251.574 236.009 252.279 235.195 252.804C234.381 253.329 233.458 253.66 232.496 253.771C231.534 253.882 230.559 253.77 229.647 253.444C230.531 254.159 229.647 254.538 228.679 255.254C227.711 255.969 227.079 256.769 228.679 258.832C227.374 258.243 227.29 258.537 226.153 258.832L226.7 260.431C225.227 261.105 224.343 258.79 222.828 259.674C224.806 261.147 223.964 262.284 224.175 264.178C221.266 263.088 218.451 261.765 215.756 260.221C216.128 261.032 216.674 261.75 217.355 262.326C215.924 261.905 216.724 263.841 216.598 264.641C215.419 265.062 214.872 262.284 214.535 260.895C212.43 260.642 212.472 266.03 210.326 264.515L211.252 266.619C208.936 267.63 206.747 265.23 204.264 266.156C203.001 263.168 206.242 263.336 207.084 261.947C206.537 261.315 205.527 261.231 205.19 260.221C204.042 262.139 202.624 263.883 200.981 265.399C203.338 261.947 200.265 262.157 199.591 261.694Z" fill="#928575"/>
<path d="M205.946 260.305C206.199 259.8 206.409 259.379 206.535 259.042C206.662 258.705 206.114 259.463 205.82 259.337C205.787 259.665 205.83 259.996 205.946 260.305Z" fill="#928575"/>
<path d="M199.589 261.694V261.315C199.294 261.526 199.379 261.61 199.589 261.694Z" fill="#928575"/>
<path d="M214.492 268.766C214.367 268.748 214.239 268.748 214.113 268.766H213.65H214.492Z" fill="#928575"/>
<path d="M214.029 258.369C214.727 259.086 215.504 259.721 216.344 260.263C216.179 259.759 215.874 259.313 215.464 258.978C215.053 258.642 214.556 258.431 214.029 258.369Z" fill="#928575"/>
<path d="M227.667 255.211C227.667 254.664 227.247 254.201 227.078 253.443C226.32 253.822 226.447 254.58 227.667 255.211Z" fill="#928575"/>
<path d="M203.504 259.758L201.778 260.389L201.104 260.978L203.504 259.758Z" fill="#928575"/>
<path d="M164.989 253.191C164.989 256.348 167.852 256.727 169.199 258.663C173.408 260.389 173.408 254.454 176.649 256.98L172.44 260.726C175.513 263.21 180.48 267.587 185.489 264.514C185.489 265.272 185.784 266.325 184.521 266.577C187.089 267.461 188.73 259.842 191.004 262.662C187.089 264.851 191.004 266.072 189.151 269.061H188.52C190.877 269.482 194.203 268.387 195.592 269.061C195.886 267.672 195.087 265.398 196.939 265.441C196.223 265.062 196.939 263.546 196.939 262.157C194.918 263.504 194.245 262.157 192.729 263.757C192.266 261.694 193.529 263.336 193.066 261.315C192.477 261.736 191.803 262.241 191.214 262.578C190.372 261.82 192.729 261.189 191.214 260.263C190.889 260.797 190.375 261.188 189.775 261.36C189.174 261.532 188.53 261.471 187.973 261.189L188.562 260.726C187.341 261.147 186.499 259.589 185.615 262.62C185.615 261.526 185.615 260.431 185.91 259.337L185.152 261.315C182.921 259.337 185.152 254.58 180.943 254.917C181.238 255.927 179.933 256.348 179.343 256.348C179.638 258.453 181.743 256.348 182.963 256.643C182.037 258.495 178.501 259.168 179.301 261.189C179.049 258.158 175.976 259.168 178.67 254.622C177.07 252.812 174.46 254.075 173.45 251.423L173.997 250.876C171.387 253.191 173.282 248.182 169.367 249.613L170.04 251.128C169.114 252.181 168.525 251.802 167.641 251.381C168.062 251.044 168.062 251.044 168.188 250.287C166.462 252.054 163.979 250.707 163.053 251.17C163.853 252.139 166.252 251.17 167.894 251.76C166.589 252.433 165.705 254.243 164.989 253.191Z" fill="#928575"/>
<path d="M190.076 259.8L188.982 260.684C189.443 260.533 189.832 260.218 190.076 259.8Z" fill="#928575"/>
<path d="M155.517 244.562C153.791 243.72 156.359 242.499 154.76 241.194C152.697 242.668 156.359 244.941 154.254 247.298C153.37 245.698 151.476 248.056 150.845 248.14C151.495 246.388 151.598 244.479 151.139 242.668C150.424 243.594 148.908 241.868 147.73 241.784C150.55 243.846 145.372 243.046 147.73 245.277C147.73 247.256 145.162 248.729 144.068 247.298C144.068 245.867 144.909 246.119 145.583 246.035C146.046 243.299 143.857 244.688 143.31 242.247C140.91 246.119 132.997 246.456 135.438 252.181C136.406 253.275 137.122 251.802 138.048 251.465C135.312 250.413 138.048 248.308 138.048 247.256C139.227 248.14 140.995 246.119 140.7 248.266L139.058 250.623C144.909 251.423 152.192 250.287 157.875 251.381C157.098 251.06 156.295 250.806 155.475 250.623C156.107 249.066 157.411 249.234 158.632 248.856C158.602 247.447 158.49 246.041 158.295 244.646C159.137 245.193 160.19 244.941 159.642 246.246C160.267 245.855 160.735 245.258 160.965 244.558C161.196 243.859 161.175 243.101 160.905 242.415C163.81 242.415 163.473 244.309 166.588 242.962C165.241 240.437 163.81 240.563 162.379 240.9C161.533 241.181 160.623 241.207 159.762 240.975C158.901 240.743 158.128 240.263 157.538 239.595C156.991 241.236 156.233 242.878 155.517 244.562Z" fill="#928575"/>
<path d="M164.82 245.404C164.189 245.825 163.6 246.288 163.01 246.751H164.82V245.404Z" fill="#928575"/>
<path d="M159.684 252.56C160.021 251.76 160.61 251.634 160.947 250.834C159.768 249.655 159.516 250.876 159.684 252.56Z" fill="#928575"/>
<path d="M141.331 242.204L139.268 243.004L140.699 243.678C140.666 243.398 140.706 243.115 140.817 242.856C140.928 242.598 141.105 242.373 141.331 242.204Z" fill="#928575"/>
<path d="M126.052 252.475C129.546 252.475 130.851 250.665 134.471 252.475C136.07 249.823 133.587 247.677 134.218 245.277C132.661 244.73 132.913 249.108 131.103 249.95C130.514 247.677 128.493 250.329 126.894 249.571C126.982 250.61 126.682 251.645 126.052 252.475Z" fill="#928575"/>
<path d="M119.78 240.899C118.98 240.352 116.959 240.899 117.17 239.258C118.348 238.5 119.106 238.584 119.232 239.258C121.295 236.816 118.096 238.795 119.232 236.606C119.232 236.858 118.811 237.532 118.096 237.7C117.128 234.922 114.855 237.7 114.56 233.028C113.508 233.028 113.255 232.186 111.361 233.028C112.792 229.576 113.297 230.797 114.307 227.05C112.462 228.36 110.52 229.527 108.498 230.544C110.308 225.03 106.351 226.335 107.993 222.757C108.246 223.009 109.003 223.135 108.919 223.977C112.287 222.42 107.488 221.957 107.699 220.189L110.603 219.852C109.719 218.631 106.983 216.821 108.709 214.464H110.308C106.983 211.602 107.067 207.14 105.257 204.319L106.857 202.299C103.657 198.51 106.604 206.508 101.384 204.53C106.983 202.93 99.0691 202.678 100.879 199.731C102.984 198.173 102.521 202.004 104.878 200.278C101.847 200.278 103.826 199.142 102.731 197.963C105.552 197.963 102.731 195.185 105.973 195.521C103.994 194.259 102.1 192.954 100.206 191.607C101.679 190.681 101.258 189.376 100.753 188.407C101.005 190.933 96.5435 188.113 95.5332 191.144C97.8483 196.196 99.1088 201.668 99.2375 207.224C103.11 206.929 99.9531 210.549 103.194 210.591C102.058 211.012 101.09 211.686 99.9531 212.107C101.637 215.18 101.805 210.802 103.363 211.265C104.247 212.528 102.31 214.296 100.921 214.548C101.384 216.948 102.016 214.548 104.331 215.138L100.711 217.874C102.437 221.367 104.92 225.282 106.983 229.323C109.14 233.415 111.052 237.632 112.708 241.952C113.297 241.236 113.844 240.521 114.434 239.847C115.023 241.868 117.254 242.162 118.938 242.12C120.622 242.078 121.632 242.331 122.011 245.614C122.644 245.057 123.249 244.466 123.821 243.846C122.81 244.856 123.231 248.055 121.59 249.192C122.979 248.771 123.947 249.992 125.294 249.445L123.568 247.761C125.505 245.909 126.515 247.761 126.767 249.529C130.009 247.256 125.589 244.814 125.883 242.457C123.652 244.435 123.021 242.836 123.063 241.194C123.105 239.552 123.652 237.658 122.263 237.784C119.948 238.29 120.664 239.889 119.78 240.899Z" fill="#928575"/>
<path d="M120.579 249.739C120.895 249.651 121.194 249.508 121.463 249.318C121.138 249.385 120.835 249.53 120.579 249.739Z" fill="#928575"/>
<path d="M100.754 188.155C100.713 187.768 100.628 187.386 100.501 187.018C99.7855 186.723 100.333 187.271 100.754 188.155Z" fill="#928575"/>
<path d="M129.21 243.467L128.326 243.299L128.368 244.478L129.21 243.467Z" fill="#928575"/>
<path d="M101.721 175.316L100.374 175.779C100.859 175.76 101.327 175.599 101.721 175.316Z" fill="#928575"/>
<path d="M88.7979 150.985V151.617C88.8696 151.527 88.9087 151.416 88.9087 151.301C88.9087 151.186 88.8696 151.075 88.7979 150.985Z" fill="#928575"/>
<path d="M105.088 82.9608C106.018 80.7936 106.723 78.5368 107.193 76.2257L107.74 77.5306C108.267 76.6009 108.718 75.6295 109.087 74.6261C109.424 73.4475 109.466 72.1425 107.698 71.5532V72.9423C105.93 76.0994 104.583 71.89 101.762 72.7319C99.4472 75.3417 102.31 80.0984 99.9524 81.1508C99.4472 82.0348 98.437 81.1508 97.8055 80.1826C95.9955 81.9506 98.9 84.9393 98.5632 86.4547C93.9328 83.9711 93.554 85.9916 93.6803 88.3489C93.8066 90.7062 94.3538 93.4845 90.6495 93.5687C90.6495 95.7997 88.6289 98.0307 89.5971 101.23C87.6187 98.9568 88.5027 103.461 85.9349 101.861C91.4072 104.597 80.7994 108.26 88.0817 111.038C85.0509 113.774 88.5027 111.29 85.7244 114.7C84.8825 114.7 85.0509 113.816 84.9667 113.479C82.9883 114.658 87.4924 116.721 83.746 117.142C82.4831 120.215 85.6823 118.194 87.2819 120.509C85.6402 123.54 84.8825 122.403 81.3466 123.666C84.8825 124.634 82.7778 126.318 84.4195 128.255C84.672 127.876 85.7244 125.771 86.9031 127.455C85.6823 131.117 88.7973 130.822 89.3445 134.4C85.1351 135.705 89.6392 130.907 86.0612 133.601C84.5037 131.117 84.8825 129.391 82.1885 127.707C81.4041 131.223 81.7125 134.895 83.0725 138.231C82.3989 140.041 81.2203 137.094 80.7573 138.568C78.6946 141.893 84.5879 143.956 82.7357 146.524L80.631 145.934C83.4092 147.618 79.9996 151.954 81.7254 155.069C82.7357 154.606 83.4513 154.311 84.1669 154.69C81.5571 154.69 82.2727 155.869 83.2829 157.258C84.2932 158.647 85.6823 159.868 84.5037 161.888C85.9153 161.31 87.4524 161.107 88.9657 161.299C89.6644 161.308 90.3532 161.466 90.9862 161.762C90.518 162.737 89.8429 163.599 89.0078 164.288C88.7552 162.477 87.6187 163.025 85.8086 163.277C85.1017 163.491 84.3556 163.541 83.6265 163.424C82.8974 163.307 82.2042 163.027 81.5991 162.604C82.3137 163.178 82.9505 163.843 83.4934 164.582C84.7141 166.224 86.1033 167.95 88.1238 167.487C87.4082 167.992 86.6505 168.497 85.8507 168.96C87.9554 171.275 91.5756 165.971 92.2912 169.844L90.8179 171.107C92.9504 172.971 94.3402 175.542 94.7326 178.347C95.0673 181.167 96.3427 183.792 98.3528 185.798C99.9945 186.05 103.362 183.146 104.583 182.767C102.612 180.403 100.213 178.432 97.5109 176.958L100.331 175.948C98.2265 175.948 96.1218 174.222 95.1536 176.242C93.0489 175.569 96.8795 173.759 94.2696 173.001C96.8795 171.191 97.9739 172.243 100.247 170.896C99.3886 170.484 98.5025 170.133 97.5951 169.844C99.0263 169.844 97.5951 168.076 98.9 167.823C95.9534 167.36 95.2799 166.392 94.6906 165.045C94.1012 163.698 93.7224 162.351 92.1649 162.141C92.4174 162.604 92.7121 163.109 93.0489 163.614C91.9544 164.961 91.2809 164.203 90.439 164.119C91.5335 161.804 90.902 161.72 91.2388 160.373L89.555 160.836C88.1659 161.173 86.4821 161.257 86.1033 160.12C89.3445 159.489 87.2819 157.131 90.0601 156.416C86.6926 156.416 88.671 153.09 86.7768 152.88C86.5746 152.644 86.4495 152.352 86.4186 152.044C86.3877 151.735 86.4524 151.424 86.6039 151.153C86.7554 150.882 86.9865 150.664 87.2659 150.529C87.5452 150.394 87.8594 150.347 88.1659 150.396C88.3874 150.628 88.5848 150.882 88.7552 151.154V150.144C89.1341 150.144 89.3866 150.144 89.4708 150.144C89.4708 149.218 87.1556 149.218 88.7973 148.039C89.6392 148.039 89.6392 148.67 89.976 149.176C90.5232 146.86 85.0088 144.966 88.0817 142.903C86.5242 142.44 86.5663 139.578 83.0304 139.957C84.3353 139.241 87.2398 139.957 86.7347 137.6C83.9143 136.126 88.0396 135.411 86.3137 133.601C89.2183 136.084 87.1977 133.601 89.976 135.874C91.2809 134.653 87.6187 132.085 88.5027 129.728C89.2183 129.728 90.1022 129.728 90.8599 129.728C89.976 128.718 87.7449 127.244 90.3127 126.823L88.208 126.529C89.5971 125.097 89.3445 122.614 92.0386 121.435L88.6289 118.447C93.4277 116.721 90.7337 112.217 87.9975 108.807C88.5447 107.839 89.7234 106.576 90.5653 106.871C91.4072 107.165 91.2388 107.797 91.5756 108.428C92.207 106.997 94.9852 106.029 92.1649 104.219C91.786 102.366 94.7326 103.924 95.6587 103.082C92.4595 98.2412 102.52 96.0101 96.5006 92.0533C95.9113 93.2319 93.5119 94.9157 92.7542 97.3993C92.2491 96.4311 90.7337 96.3469 90.9862 95.3787C91.7439 92.8531 94.7326 92.811 94.8168 89.9485L98.7316 92.3058C101.762 91.4218 101.299 89.1066 101.215 86.7914C101.131 84.4762 101.594 81.9085 105.088 82.9608Z" fill="#928575"/>
<path d="M91.4492 110.996L94.1854 109.985L92.249 109.564C92.2937 109.711 92.3083 109.865 92.292 110.017C92.2757 110.169 92.2287 110.317 92.1541 110.45C92.0794 110.584 91.9784 110.701 91.8573 110.795C91.7362 110.889 91.5974 110.957 91.4492 110.996Z" fill="#928575"/>
<path d="M92.2486 109.564C92.1411 109.102 91.9561 108.66 91.7014 108.259C91.5979 108.439 91.5435 108.642 91.5435 108.849C91.5435 109.056 91.5979 109.259 91.7014 109.438L92.2486 109.564Z" fill="#928575"/>
<path d="M109.633 78.5406C109.942 78.583 110.256 78.543 110.545 78.4248C110.833 78.3065 111.085 78.1141 111.275 77.8671C110.644 77.4883 109.675 77.7829 109.633 78.5406Z" fill="#928575"/>
<path d="M110.94 76.7308C110.584 76.5795 110.218 76.4529 109.845 76.3519V76.8992L110.94 76.7308Z" fill="#928575"/>
<path d="M159.558 59.8932L160.442 55.6837C161.663 56.5256 163.641 53.158 164.062 55.6837C163.684 51.8531 169.24 52.4424 165.409 49.1169C161.2 52.3582 156.991 55.4311 152.781 58.504C148.814 61.273 145.133 64.4318 141.794 67.9332C142.007 67.1861 142.176 66.427 142.3 65.6601C142.143 66.055 141.909 66.4143 141.61 66.7165C141.311 67.0186 140.955 67.2574 140.562 67.4186C140.169 67.5797 139.747 67.6599 139.323 67.6543C138.898 67.6487 138.479 67.5574 138.09 67.386C136.701 67.0913 135.901 67.1334 134.175 70.964L134.47 67.0492C132.702 66.0811 130.261 72.6478 128.156 68.3963V69.9959C127.524 69.9959 127.314 69.2381 126.64 69.154L126.851 69.9117C126.223 70.5161 125.386 70.8539 124.515 70.8539C123.643 70.8539 122.806 70.5161 122.178 69.9117C122.178 68.6488 123.062 69.4065 123.652 69.1119C122.852 67.8069 121.294 70.3326 119.863 70.3326C118.727 69.2381 119.863 68.5646 120.074 68.0595C118.23 68.5129 116.324 68.6552 114.433 68.4804C112.833 68.4804 111.234 69.3223 110.476 72.6899C110.476 73.7844 112.118 74.2474 110.813 75.1735C113.802 76.0996 115.359 73.6581 118.011 72.0164H117.295C119.232 66.4178 118.895 73.195 122.136 70.8798C121.168 73.1108 119.821 73.0687 119.274 74.2895C122.641 78.4989 124.578 71.2587 126.598 76.8994H126.304C126.809 77.4466 127.819 76.4784 128.703 76.0154C128.45 75.2998 127.693 74.8788 127.188 74.3316C128.029 73.8685 128.619 71.4271 128.913 70.4168C129.671 72.9004 130.176 69.2802 131.439 70.4168C131.902 72.732 130.261 72.4794 129.629 73.6581C130.18 73.305 130.714 72.9257 131.229 72.5215C132.786 72.5215 132.744 75.0051 133.586 76.2679C134.891 74.5 132.786 75.0472 133.796 72.5636C134.476 73.3009 135.369 73.8069 136.35 74.0108C137.332 74.2146 138.352 74.106 139.269 73.7002C141.597 73.0487 143.595 71.5462 144.867 69.4907C143.983 70.2063 145.541 71.848 144.025 72.1006C144.741 72.3531 145.962 70.5431 145.162 68.9435C145.972 67.8996 147.049 67.0942 148.279 66.6125C149.509 66.1309 150.846 65.9908 152.15 66.2073L150.676 65.0708C150.676 61.7032 155.728 64.2289 157.454 60.8613C158.127 59.8932 156.359 55.8942 158.548 55.4311C159.222 57.5779 158.169 58.041 159.558 59.8932Z" fill="#928575"/>
<path d="M168.145 49.3694C168.145 50.2955 168.145 51.2216 168.145 52.1477C169.577 52.1477 169.913 48.4433 169.029 47.0963C168.314 47.9382 166.588 47.6015 167.051 48.9485C167.346 49.2011 167.724 50.0008 168.145 49.3694Z" fill="#928575"/>
<path d="M195.76 46.7595C196.56 46.4648 196.728 45.5387 197.276 45.0336C189.993 42.3396 182.542 44.1075 179.89 42.55C177.659 42.1712 177.912 45.8334 175.681 47.2225L173.955 45.1599C173.071 46.9279 168.272 45.9597 171.135 49.3693C171.387 49.6219 171.514 47.1804 172.861 47.4751L173.113 48.8642C173.862 48.416 174.635 48.0085 175.428 47.6435L175.134 49.5377C177.028 50.2954 177.239 48.9063 177.659 47.3909C178.08 45.8755 178.628 44.1496 181.027 44.6968L181.364 48.1907C184.1 48.1907 185.573 46.9279 187.973 49.201C187.973 49.201 187.973 47.433 187.594 48.1486C187.251 47.8012 187.01 47.3658 186.899 46.8905C186.787 46.4151 186.809 45.9182 186.962 45.4545C191.887 43.1393 186.163 47.3909 189.067 49.201C191.511 48.0367 194.298 47.812 196.897 48.5696C199.759 49.3693 202.032 51.5162 201.864 53.3683C201.819 53.0835 201.843 52.7922 201.934 52.5186C202.025 52.2449 202.179 51.9969 202.385 51.7951C202.591 51.5933 202.842 51.4436 203.118 51.3585C203.393 51.2734 203.685 51.2553 203.969 51.3057C204.697 51.3898 205.397 51.6429 206.011 52.0449C206.624 52.4468 207.136 52.9864 207.505 53.6209C207.252 55.3889 205.231 54.0418 204.179 54.4207C204.6 55.6414 204.432 56.8201 205.358 57.5778C206.326 55.3047 209.062 54.5891 211.672 57.5778C211.353 55.7575 210.535 54.0615 209.308 52.679C208.082 51.2966 206.496 50.2819 204.726 49.7482C201.569 48.0223 198.37 47.9381 195.76 46.7595Z" fill="#928575"/>
<path d="M198.622 44.7388C198.395 44.6403 198.143 44.6157 197.901 44.6686C197.66 44.7215 197.441 44.8491 197.275 45.0334C198.108 45.3049 198.911 45.6574 199.675 46.0858L198.622 44.7388Z" fill="#928575"/>
</g>
<g opacity="0.5">
<path d="M158.168 151.154C143.712 160.185 127.495 166.026 110.601 168.287C109.38 168.287 109.885 170.307 111.106 170.139C128.101 167.786 144.41 161.876 158.968 152.796C159.978 152.165 158.968 150.523 157.999 151.154H158.168Z" fill="white"/>
</g>
<g opacity="0.5">
<path d="M139.183 164.203L118.683 189.081C117.926 190.007 119.231 191.354 120.03 190.428L140.53 165.55C141.288 164.582 139.941 163.235 139.183 164.203Z" fill="white"/>
</g>
<g opacity="0.5">
<path d="M192.687 114.321C204.544 99.0042 212.451 81.0065 215.713 61.9135C215.713 60.7349 214.113 60.2297 213.903 61.4084C210.678 80.3415 202.826 98.1848 191.046 113.353C190.288 114.321 191.93 115.289 192.687 114.321Z" fill="white"/>
</g>
<g opacity="0.5">
<path d="M202.746 107.165C208.55 102.903 215.583 100.643 222.783 100.725C223 100.679 223.195 100.56 223.335 100.387C223.474 100.215 223.551 99.9996 223.551 99.7776C223.551 99.5557 223.474 99.3406 223.335 99.1682C223.195 98.9957 223 98.8765 222.783 98.8305C215.223 98.7332 207.835 101.097 201.736 105.566C200.768 106.239 201.736 107.881 202.704 107.165H202.746Z" fill="white"/>
</g>
<g opacity="0.5">
<path d="M208.134 199.984C207.713 214.296 198.789 226.546 197.779 240.942C197.079 252.766 199.58 264.559 205.019 275.081C205.566 276.175 207.208 275.081 206.66 274.155C199.208 259.767 197.609 243.054 202.198 227.514C205.061 218.127 209.733 210.003 210.028 199.984C210.028 198.763 208.176 198.763 208.134 199.984Z" fill="white"/>
</g>
<g opacity="0.5">
<path d="M198.747 236.058C191.617 238.381 185.237 242.567 180.267 248.182C179.468 249.066 180.815 250.413 181.614 249.487C186.37 244.131 192.454 240.124 199.252 237.868C200.431 237.49 199.926 235.637 198.747 236.058Z" fill="white"/>
</g>
<path d="M208.177 77.4043C208.537 80.1913 209.408 82.8882 210.745 85.3602L208.177 77.4043Z" fill="#B08ABB"/>
<path d="M221.73 49.7481C222.407 49.3682 222.939 48.7766 223.246 48.0643C222.621 48.5047 222.103 49.0802 221.73 49.7481Z" fill="#B08ABB"/>
<path d="M207.209 96.4732V96.0943C206.956 94.3685 206.956 95.042 207.209 96.4732Z" fill="#B08ABB"/>
<path d="M246.568 256.769H247.494L246.947 256.18C246.852 256.395 246.724 256.594 246.568 256.769Z" fill="#B08ABB"/>
<path d="M238.906 194.596C239.674 194.485 240.454 194.485 241.221 194.596C240.914 194.29 240.498 194.118 240.064 194.118C239.63 194.118 239.214 194.29 238.906 194.596Z" fill="#B08ABB"/>
</g>
<defs>
<clipPath id="clip0_786_3722">
<rect width="669" height="300" fill="white"/>
</clipPath>
</defs>
</svg>
