<svg width="66" height="66" viewBox="0 0 66 66" fill="none" xmlns="http://www.w3.org/2000/svg">
<path d="M59.8 30.65C59.64 29.9 58.86 18.6601 53.42 13.6501C52.47 12.7701 51.36 12.08 50.38 11.23C48.82 9.87005 47.08 9.10005 44.98 9.05005C44.27 9.04005 43.53 8.81005 42.86 8.55005C40.4 7.59005 38.27 5.99005 35.46 5.67005C33.33 5.43005 31.27 5.31005 29.2 5.65005C27.57 5.92005 25.99 6.55005 24.38 6.88005C18.39 8.11005 14.18 12.3201 13.76 12.7501C12.53 13.9801 13.13 15.7801 11.99 17.0901C10.91 18.3401 9.14 21.4 8.96 21.73C7.91 23.74 6.52 25.72 6.12 27.88C5.2 32.84 5.41 37.8401 7.34 42.6301C7.98 44.2101 11.59 49.1901 12.89 50.8801C14.37 52.7901 16.25 54.04 18.62 54.71C19.63 54.99 20.48 55.9 21.35 56.6C21.88 57.03 22.24 57.6701 22.79 58.0801C26.04 60.4701 29.64 60.92 33.53 60.09C34.89 59.8 36.33 59.9401 37.74 59.8301C40.67 59.5901 43.3 58.43 45.85 57.07C46.75 56.59 50.07 55.47 50.62 53.35C50.69 53.08 50.63 52.75 50.76 52.51C51.01 52.02 51.23 51.38 51.66 51.14C54.75 49.38 56.5 46.67 57.77 43.44C59.39 39.29 60.74 35.19 59.8 30.65Z" fill="#72838C"/>
<path opacity="0.37" d="M30.99 34.41C31.75 34.58 32.52 34.58 31.83 35.4C31.03 36.36 29.85 37.07 28.83 37.77C26.08 39.64 23.2 41.31 20.48 43.23C20.27 43.38 20.39 43.75 20.66 43.67C23.22 42.94 25.55 41.71 27.77 40.25C28.91 39.5 30.01 38.71 31.11 37.91C31.41 37.69 32.52 36.61 32.85 36.64C33.24 36.68 33.01 37.02 32.91 37.38C31.94 41.15 30.81 44.94 30.25 48.8C30.22 49.04 30.57 49.26 30.69 48.98C30.7 48.96 30.7 48.94 30.71 48.92V48.91C31.68 46.61 32.27 44.13 32.99 41.74C33.34 40.58 33.67 39.42 34.11 38.29C34.53 37.2 35.15 38.03 35.52 38.6C35.82 39.07 36.12 39.54 36.42 40.01C38.61 43.45 40.77 46.9 42.92 50.36C43.09 50.63 43.46 50.39 43.33 50.12C41.32 45.79 38.3 41.97 36.29 37.63C35.95 36.89 35.02 35.3 36.38 35.17C37.27 35.08 38.42 35.48 39.29 35.64C41.95 36.12 44.59 36.68 47.23 37.25C49.69 37.78 52.14 38.32 54.59 38.9C54.89 38.97 55.01 38.54 54.72 38.44C48.93 36.44 42.75 35.65 36.88 33.95C36.15 33.74 35.83 33.4 36.02 32.62C36.16 32.03 36.47 31.43 36.71 30.87C37.28 29.55 37.9 28.26 38.53 26.97C39.93 24.12 41.41 21.31 42.9 18.5C43.51 17.34 44.14 16.19 44.74 15.03C44.94 14.64 45.43 14.02 45.44 13.56C45.44 13.54 45.43 13.52 45.42 13.49C45.42 13.49 45.42 13.49 45.42 13.48C45.4 13.42 45.37 13.37 45.32 13.35C45.3 13.34 45.28 13.35 45.26 13.34C45.16 13.31 45.06 13.32 44.99 13.43C44.97 13.47 44.95 13.5 44.93 13.54C44.95 13.55 44.96 13.55 44.97 13.56C44.97 13.58 44.96 13.59 44.96 13.61C44.95 13.62 44.94 13.64 44.91 13.65C44.91 13.65 44.91 13.66 44.9 13.66C44.89 13.65 44.88 13.64 44.87 13.64C41.39 19.85 37.92 26.06 34.34 32.21C33.85 31.72 33.46 31.09 33.06 30.54C32.24 29.42 31.44 28.28 30.65 27.14C29.33 25.24 28.06 23.29 26.66 21.44C26.48 21.2 26.07 21.42 26.25 21.68C28.17 24.68 30.09 27.7 31.86 30.8C32.21 31.41 32.83 32.2 32.97 32.89C33.08 33.47 32.6 33.38 32.02 33.41C29.69 33.51 27.29 33.07 25 32.74C22.7 32.41 20.41 31.95 18.09 31.76C17.86 31.74 17.76 32.11 17.97 32.21C19.66 33.01 21.92 33.05 23.74 33.31C26.17 33.64 28.61 33.88 30.99 34.41Z" fill="white"/>
<g opacity="0.72">
<path d="M12.64 14.8L12.75 14.4C12.58 14.38 12.4 14.36 12.23 14.34C12.36 14.51 12.5 14.66 12.64 14.8Z" fill="#C6A2A4"/>
<path d="M14.4301 13.5C14.4101 13.37 14.3501 13.23 14.3601 13.08C13.6301 12.88 13.4001 12.78 13.1901 12.74C12.9901 12.72 12.7901 12.71 12.1401 13.14C12.2101 13.37 12.3401 13.7 12.5801 13.93C12.8001 14.16 13.0801 14.27 13.3701 14.2C13.3001 14.04 12.7301 13.67 12.9901 13.34C13.1801 13.45 13.2601 13.59 13.3401 13.71C13.4501 13.83 13.5701 13.95 13.8501 14C14.3001 13.66 13.5001 13.73 13.7901 13.29L14.4301 13.5Z" fill="#C6A2A4"/>
<path d="M13.2803 12.45C13.4803 12.61 13.6903 12.76 13.8803 12.84C13.6703 12.7 13.5203 12.3 13.2803 12.45Z" fill="#C6A2A4"/>
<path d="M13.3303 12.05C13.5903 11.76 13.7803 12.35 13.8703 12.35C13.6803 12.08 13.5003 11.78 13.3403 11.45C13.3303 11.66 13.3203 11.86 13.3303 12.05Z" fill="#C6A2A4"/>
<path d="M14.4404 10.9001C14.4804 10.8401 14.5104 10.7901 14.5304 10.7201C14.4004 10.6401 14.4304 10.7801 14.4404 10.9001Z" fill="#C6A2A4"/>
<path d="M15.0499 10.38C14.7499 10.17 14.6499 10.45 14.5399 10.73C14.5599 10.74 14.5699 10.75 14.5999 10.76C14.9299 10.87 15.1499 11.53 14.8199 11.56C14.6999 11.88 14.2299 11.37 14.3599 11.89C14.5699 11.91 14.7899 11.96 14.9899 12.02C15.2299 11.7 14.9499 10.73 15.0499 10.38Z" fill="#C6A2A4"/>
<path d="M14.4401 10.9C14.4001 10.96 14.3601 11.02 14.3101 11.07C14.4501 11.1 14.4501 11 14.4401 10.9Z" fill="#C6A2A4"/>
<path d="M13.8 11.4L13.77 11.64L14.02 11.79L13.8 11.4Z" fill="#C6A2A4"/>
<path d="M16.2902 9.85999C16.3302 10.32 16.1202 10.35 15.8902 10.36C15.6702 10.4 15.4202 10.41 15.5302 10.75C15.9802 10.51 16.4702 11.1 16.4902 11.62C16.5802 11.49 16.6802 11.38 16.7902 11.28C16.8902 10.92 16.7002 10.25 16.2902 9.85999Z" fill="#C6A2A4"/>
<path d="M17.1499 12.13C17.1699 12.06 17.1899 12.01 17.2199 11.99C17.1899 12.02 17.1699 12.06 17.1499 12.13Z" fill="#C6A2A4"/>
<path d="M19.9201 11.77C19.3501 11.91 18.5401 11.74 18.0901 11.82C18.3401 11.63 18.4501 11.36 18.7701 11.43C18.3301 11.02 17.9801 11.46 17.7501 11.29C17.8601 10.88 18.0101 10.91 18.1601 10.97C18.3101 11.04 18.4501 11.14 18.5301 10.74C18.2501 10.59 17.7601 10.45 17.4301 11.15C17.3601 10.92 17.2501 10.72 17.1001 10.52C17.1401 10.84 17.1601 11.15 17.1701 11.46C17.2301 11.72 17.5601 10.79 17.4901 11.43C17.4101 11.82 17.2901 11.88 17.2201 11.96C17.3001 11.88 17.3601 12.07 17.3501 12.29C17.3201 12.46 17.3701 12.73 17.7001 12.86C17.7901 12.9 17.8801 12.92 17.9801 12.92C18.1101 12.94 18.2501 12.94 18.3601 12.92C18.5901 12.87 18.7801 12.74 18.9501 12.58C19.3001 12.28 19.5701 11.88 19.9201 11.77Z" fill="#C6A2A4"/>
<path d="M19.7402 12.8001C19.7602 12.9401 19.7802 13.0701 19.8002 13.2001L19.8102 12.6901L19.7402 12.8001Z" fill="#C6A2A4"/>
<path d="M21.6801 11.6001C21.4801 11.8901 21.2201 12.1301 20.9101 12.3401C20.8001 12.2501 20.7501 12.0601 20.6901 11.8801C20.7301 12.1001 20.4601 12.4501 20.4801 12.6301C20.6901 13.0701 21.0801 13.0201 21.3801 12.7801C21.6901 12.5301 21.9001 12.1201 22.1001 11.9501C22.7601 11.8201 22.8201 11.8601 22.7901 12.1001C22.7701 12.3101 22.6201 12.6601 23.0901 12.8401C22.6501 13.0601 22.5501 12.9001 21.9301 13.0601C22.5401 13.3801 23.1801 13.0801 23.5601 12.6201C23.9501 12.1701 24.1201 11.5601 24.1701 11.3201C24.0001 11.3701 23.8101 11.2201 23.6201 11.5101C23.7201 11.2901 23.7501 11.1001 23.7901 10.9201C23.3801 10.8801 23.0501 10.9301 22.7501 11.0401C22.4501 11.1301 22.1701 11.3501 21.6801 11.6001Z" fill="#C6A2A4"/>
<path d="M20.2603 11.69C20.5603 11.7 20.6703 11.75 20.6903 11.87C20.6103 11.64 20.5403 11.48 20.2603 11.69Z" fill="#C6A2A4"/>
<path d="M24.3302 11.09C24.2502 11.1 24.2202 11.18 24.1802 11.31C24.2402 11.29 24.3002 11.23 24.3302 11.09Z" fill="#C6A2A4"/>
<path d="M23.25 10.8C23.4 10.68 23.54 10.56 23.68 10.44L23.24 10.35C23.23 10.43 23.1 10.66 23.25 10.8Z" fill="#C6A2A4"/>
<path d="M37.83 6.34001C37.95 6.02001 37.88 5.80001 37.56 5.73001C37.77 5.32001 38.14 5.59001 38.45 5.44001C38.16 4.98001 38.7 4.96001 38.79 4.52001C38.28 4.26001 37.85 4.66001 37.34 4.38001C37.41 4.27001 37.47 4.07001 37.44 3.89001C36.64 3.90001 35.44 4.11001 34.8 3.66001C34.48 3.53001 34.18 3.54001 33.88 3.60001C33.58 3.66001 33.27 3.74001 32.92 3.89001C31.73 3.83001 30.52 4.17001 29.39 4.65001C28.26 5.14001 27.18 5.74001 26.09 6.45001C26.19 6.75001 26.31 7.04001 26.44 7.34001C26.05 7.10001 26.06 7.75001 25.68 7.30001C25.86 7.28001 25.88 7.12001 25.98 6.99001C25.52 6.91001 25.26 7.18001 25.08 7.52001C24.92 7.88001 24.81 8.26001 24.5 8.45001C24.68 8.47001 25.39 8.81001 25.4 9.05001C24.6 8.45001 24.98 9.73001 23.91 9.28001C23.28 9.69001 24.63 9.79001 24.05 10.32C24.48 10.74 24.71 9.88001 25.15 10.01C25.42 10.47 24.58 10.48 25.11 10.81C25.62 10.38 25.88 9.41001 26.03 8.75001C26.19 7.98001 26.54 7.12001 27.06 6.49001L27.28 7.03001C27.43 6.61001 27.84 6.27001 28.28 6.04001C28.76 5.87001 29.26 5.82001 29.72 6.14001C29.4 5.70001 30.83 6.01001 30.38 4.94001C30.65 5.15001 30.7 5.09001 31 5.11001L30.98 4.72001C31.39 4.62001 31.45 5.23001 31.89 5.10001C31.5 4.65001 31.8 4.44001 31.89 3.99001C32.22 4.21001 32.55 4.47001 32.85 4.70001C33.15 4.92001 33.43 5.15001 33.65 5.40001C33.61 5.23001 33.57 5.04001 33.41 4.82001C33.73 5.01001 33.67 4.51001 33.76 4.34001C34.08 4.32001 34.03 4.98001 34 5.31001C34.51 5.50001 34.88 4.32001 35.26 4.78001L35.18 4.24001C35.5 4.20001 35.76 4.39001 36.02 4.55001C36.28 4.71001 36.53 4.86001 36.87 4.89001C36.94 5.68001 36.2 5.31001 35.88 5.59001C35.96 5.77001 36.21 5.84001 36.22 6.11001C36.54 5.84001 37.12 5.47001 37.57 5.29001C36.97 5.94001 37.68 6.22001 37.83 6.34001Z" fill="#C6A2A4"/>
<path d="M36.21 6.10999C36.11 6.18999 36.03 6.27999 35.98 6.34999C36.04 6.31999 36.11 6.27999 36.17 6.33999C36.21 6.24999 36.22 6.17999 36.21 6.10999Z" fill="#C6A2A4"/>
<path d="M37.8303 6.33997L37.8003 6.41997C37.8803 6.39997 37.8803 6.37997 37.8303 6.33997Z" fill="#C6A2A4"/>
<path d="M34.7202 3.60999C34.7502 3.62999 34.7802 3.64999 34.8102 3.66999C34.8502 3.67999 34.8802 3.68999 34.9302 3.69999L34.7202 3.60999Z" fill="#C6A2A4"/>
<path d="M34.0899 5.97002C33.9899 5.78002 33.8299 5.59002 33.6499 5.40002C33.6999 5.64002 33.7399 5.83002 34.0899 5.97002Z" fill="#C6A2A4"/>
<path d="M30.44 5.89001C30.36 6.01001 30.47 6.14001 30.46 6.33001C30.68 6.28001 30.71 6.10001 30.44 5.89001Z" fill="#C6A2A4"/>
<path d="M36.7603 6.42999C36.9203 6.41999 37.0703 6.41999 37.2103 6.42999L37.4103 6.35999C37.1903 6.37999 36.9803 6.38999 36.7603 6.42999Z" fill="#C6A2A4"/>
<path d="M46.9599 9.54997C46.5599 8.88997 45.8699 9.13997 45.3799 8.84997C44.8799 8.81997 44.6799 9.10997 44.5199 9.38997C44.3599 9.64997 44.2099 9.91997 43.6699 9.63997C43.9599 9.30997 44.2299 8.96997 44.4999 8.61997C43.6099 8.22997 42.7999 6.96997 41.3599 7.12997C41.4199 6.95997 41.4299 6.69997 41.7499 6.75997C41.2199 6.30997 40.1999 7.78997 39.8799 6.93997C41.0199 6.84997 40.1899 6.18997 40.8699 5.72997L41.0399 5.74997C40.4999 5.41997 39.6499 5.29997 39.3399 5.08997C39.1599 5.36997 39.1499 5.95997 38.7299 5.75997C38.8599 5.91997 38.5999 6.19997 38.4199 6.47997C38.9999 6.38997 39.0799 6.70997 39.5499 6.53997C39.4799 7.03997 39.3299 6.54997 39.2699 7.03997L39.8099 6.94997C39.9499 7.18997 39.3199 7.11997 39.5699 7.42997C39.7699 7.26997 40.2199 7.29997 40.4399 7.59997L40.2599 7.62997C40.5799 7.69997 40.7199 8.13997 41.1299 7.53997L40.8599 8.28997L41.1699 7.89997C41.6099 8.60997 40.9999 9.71997 42.4199 10.08C42.2699 9.76997 42.6499 9.73997 42.8399 9.75997C42.6399 9.17997 42.1099 9.64997 41.6999 9.37997C41.9899 8.97997 42.9399 9.03997 42.7299 8.45997C42.7899 9.29997 43.6099 9.07997 43.1899 10.26C43.9099 10.78 44.4599 10.36 45.1299 10.86L45.0599 11.03C45.4099 10.3 45.6499 11.57 46.3699 10.84L46.0099 10.59C46.0899 10.27 46.2799 10.3 46.5399 10.27C46.4899 10.4 46.4899 10.4 46.5499 10.56C46.7099 9.99997 47.4799 9.96997 47.5899 9.79997C47.2799 9.68997 46.8499 10.12 46.4299 10.23C46.6599 9.90997 46.6599 9.41997 46.9599 9.54997Z" fill="#C6A2A4"/>
<path d="M39.9102 7.68995L40.2502 7.61995C40.1602 7.59995 40.0402 7.60995 39.9102 7.68995Z" fill="#C6A2A4"/>
<path d="M49.9303 10.68C50.3403 10.83 49.8103 11.18 50.1803 11.45C50.6103 11.06 49.7303 10.6 50.1503 9.99996C50.4003 10.36 50.8403 9.76996 51.0203 9.76996C50.8003 10.1 50.8603 10.89 50.9203 11.05C51.1003 10.84 51.3803 11.26 51.6203 11.31C51.0803 10.75 52.1803 11.09 51.7003 10.49C51.7903 10.03 52.5303 9.80996 52.6903 10.25C52.5803 10.56 52.4103 10.43 52.2403 10.42C51.9803 11 52.5603 10.84 52.4503 11.42C52.8403 11.05 53.4403 11.12 54.0003 11.18C54.5303 11.26 55.1003 11.38 55.3603 10.64C55.3403 10.26 54.9203 10.34 54.6703 10.2C55.1003 10.95 54.2003 10.76 54.0303 10.97C53.9103 10.61 53.2703 10.77 53.6003 10.38C53.8303 10.28 54.0503 10.23 54.3003 10.18C53.6503 9.57996 52.6303 9.23996 51.6703 9.14996C50.6903 9.04996 49.7403 9.13996 48.9003 9.22996L49.6403 9.26996C49.5503 9.64996 49.2003 9.66996 48.9303 9.84996L49.2803 10.78C49.0703 10.71 48.8603 10.84 48.8803 10.51C48.6103 10.9 48.7303 11.14 48.8803 11.46C48.3203 11.62 48.2203 11.25 47.7603 11.84C48.7203 12.63 48.6103 11.23 49.6303 11.91L49.9303 10.68Z" fill="#C6A2A4"/>
<path d="M47.9 11.1601L48.14 10.6901L47.79 10.9201L47.9 11.1601Z" fill="#C6A2A4"/>
<path d="M48.3199 9.12C48.3299 9.33 48.1899 9.41 48.1899 9.62C48.6099 9.76 48.5599 9.48 48.3199 9.12Z" fill="#C6A2A4"/>
<path d="M52.8403 11.62C52.9803 11.62 53.1403 11.62 53.2703 11.66C53.2303 11.56 53.1903 11.46 53.1203 11.37C53.0303 11.56 52.9003 11.6 52.8403 11.62Z" fill="#C6A2A4"/>
<path d="M56.8702 12.8701C56.6802 12.4901 56.4302 12.2601 56.2202 12.0001C56.0102 11.7401 55.8602 11.4501 55.7102 10.8801C55.3102 10.8701 55.1402 11.1201 54.9802 11.3601C54.8202 11.6101 54.6702 11.8501 54.4102 11.9601C54.5202 12.3201 55.3402 11.7001 55.7602 12.0201C55.3902 12.4201 56.1802 12.5801 56.2302 13.0601C56.4202 12.9401 56.6402 12.8501 56.8702 12.8701Z" fill="#C6A2A4"/>
<path d="M56.1699 16.13C56.3699 16.44 56.9099 16.5 56.8699 16.87C56.5799 17.03 56.3599 16.93 56.3099 16.7C55.7799 17.25 56.6299 16.96 56.4399 17.55C56.4899 17.48 56.5099 17.29 56.7099 17.28C56.8999 17.7 57.0999 17.71 57.2799 17.77C57.4599 17.83 57.6599 17.95 57.7199 18.52C57.9699 18.56 58.0199 18.71 58.4699 18.49C58.3199 18.91 58.1799 19.03 58.0599 19.15C57.9299 19.27 57.8699 19.41 57.6299 19.76C57.9099 19.7 58.5399 19.34 59.1299 19.19C58.8299 19.87 58.8599 20.11 58.9099 20.36C58.9799 20.59 59.0399 20.81 58.6599 21.12C58.6399 21.04 58.4899 20.92 58.5999 20.75C57.7099 20.74 58.7099 21.33 58.4099 21.7L57.7099 21.5C57.7699 21.82 57.9999 22.59 57.3399 22.79L57.0299 22.56C57.1099 22.97 56.9999 23.37 56.8799 23.74C56.5299 24.54 56.4599 25.48 56.7399 26.07C56.6099 26.28 56.5099 26.5 56.4099 26.73C56.8899 27.35 56.8399 26.97 56.8599 26.57C56.8899 26.14 57.0499 25.74 57.6599 26.09C56.9999 26.28 57.1499 26.45 57.4199 26.61C57.6899 26.78 58.0799 26.91 57.9699 27.32C57.6099 27.86 57.4299 26.78 56.9999 27.36C57.7099 27.25 57.3399 27.65 57.6999 27.91C57.0699 28.16 58.0399 28.66 57.2799 28.84C57.8699 29.03 58.5399 29.2 59.1099 29.18C58.9899 29.59 59.3099 29.8 59.5599 29.9C59.0899 29.45 60.3599 29.3 60.0399 28.58C59.7999 28.46 59.5399 28.32 59.3199 28.13C59.0999 27.93 58.8599 27.66 58.6699 27.36C58.2899 26.78 58.0899 26.01 58.2699 25.47C57.8099 25.42 57.8199 25.2 57.8799 25C57.9399 24.79 58.0499 24.63 57.7599 24.39C57.8999 24.43 58.0399 24.46 58.1699 24.48C58.2299 24.5 58.3099 24.49 58.3599 24.55C58.4299 24.57 58.4999 24.58 58.5699 24.61V24.6C58.7399 23.89 58.2899 24.31 57.9999 24.32C57.9299 24.33 57.8699 24.3 57.8299 24.24C57.8899 23.85 58.5099 23.8 58.7999 23.96C59.1199 23.4 58.6099 23.79 58.2999 23.3C58.6599 23.31 59.0099 23.3 59.3799 23.28C59.6299 22.25 59.7399 20.94 59.4299 19.69C59.1499 18.43 58.4199 17.39 57.9999 16.32L57.5899 16.82C57.4399 16.31 56.9099 16.17 56.4899 15.94C56.0799 15.71 55.7599 15.35 56.1599 14.65C55.9599 14.63 55.7599 14.6 55.5499 14.56C55.8899 14.61 56.3599 14.06 56.8399 14.13C56.5499 13.99 56.6799 13.65 56.3999 13.43L56.2899 14C55.6699 13.84 55.8599 13.37 56.2399 13.09C55.3799 12.62 55.3999 13.9 54.9399 14.2C55.6799 14.53 55.5199 14.92 55.3399 15.35C55.1499 15.79 54.9199 16.3 55.4399 16.67C56.1199 17.02 55.8699 16.27 56.1699 16.13Z" fill="#C6A2A4"/>
<path d="M57.0301 14.17C56.9701 14.14 56.8901 14.12 56.8301 14.11C56.8801 14.14 56.9401 14.16 57.0301 14.17Z" fill="#C6A2A4"/>
<path d="M59.5601 29.88C59.6201 29.93 59.6801 29.99 59.7901 30.05C59.9601 30.01 59.7801 29.98 59.5601 29.88Z" fill="#C6A2A4"/>
<path d="M54.6401 13.2L54.7101 13.44L54.9601 13.29L54.6401 13.2Z" fill="#C6A2A4"/>
<path d="M59.8403 32.22L60.1703 32.21C60.0703 32.19 59.9603 32.19 59.8403 32.22Z" fill="#C6A2A4"/>
<path d="M59.1501 39.9799L59.1901 39.8199C59.1301 39.8699 59.1301 39.9299 59.1501 39.9799Z" fill="#C6A2A4"/>
<path d="M47.7004 49.8101C47.1404 49.9701 46.3304 50.2501 46.1304 50.8901L46.0704 50.5601C45.9404 50.6601 45.7204 50.9501 45.6804 51.2201C45.6304 51.5101 45.7604 51.7501 46.0604 51.9201C46.0404 51.8201 46.0304 51.7201 46.0204 51.6201C46.1404 51.2801 46.3204 51.4101 46.4304 51.6001C46.5504 51.7901 46.6704 52.0901 46.8404 52.1801C47.1904 51.9801 47.6204 50.7501 48.1304 51.0801C48.3704 51.0701 48.3004 51.4001 48.2104 51.6301C48.7104 51.7701 49.0504 50.8701 49.4504 50.8001C49.3504 52.0401 49.8004 51.9401 50.3604 51.7201C50.9404 51.5101 51.5304 51.1601 52.0004 51.9301C52.3004 51.8201 52.6404 51.8001 53.0104 51.7001C53.3704 51.6001 53.7704 51.4101 54.0004 51.0401C53.9004 51.7701 54.6304 50.8201 54.7804 51.5101C54.5604 50.8101 55.0704 50.7501 55.5604 50.6001C56.0504 50.4601 56.5004 50.2301 56.0504 49.4501C57.0904 49.3401 56.0104 49.3601 57.1204 49.0501C57.2504 49.2101 57.1004 49.3301 57.0704 49.4001C57.6704 49.4001 57.0704 48.4001 57.9004 48.7501C58.6304 48.1701 57.6704 48.2901 57.6104 47.6101C58.2404 47.0601 58.3104 47.3401 59.2204 47.2901C58.5004 46.8101 59.1104 46.5301 58.8904 45.9501C58.8104 46.0301 58.4004 46.4801 58.2704 45.9901C58.8204 45.1601 58.0804 45.0501 58.1804 44.1501C59.2304 44.0601 57.9004 45.0001 58.8804 44.5201C59.0904 45.2201 58.8704 45.6201 59.3604 46.2101C59.7604 45.4801 59.9904 44.4701 59.8504 43.5101C60.1204 43.0801 60.2104 43.8801 60.4104 43.5301C61.0704 42.7701 59.8104 41.9801 60.3704 41.4101L60.8204 41.6501C60.2704 41.1101 61.2504 40.1401 60.9804 39.2801C60.7204 39.3501 60.5504 39.4001 60.4004 39.2701C61.6304 39.4201 59.8904 38.1001 60.8104 37.4001C60.0204 37.4001 59.6404 36.6201 59.5804 36.1401C59.8004 35.9801 60.1304 36.0401 60.3404 36.0501C59.8304 36.8101 61.1504 36.8601 61.4704 37.5301C61.1004 36.9701 61.5804 36.1201 61.0304 35.6401L61.6404 35.8501C61.7604 35.1201 60.2804 35.1501 60.8904 34.4101L61.3304 34.5001C61.3204 33.8501 61.4804 33.1801 61.5704 32.4801C61.6604 31.7901 61.5904 30.9501 61.0704 30.4301C60.8804 30.2401 60.6404 30.1101 60.3904 30.0601C60.2104 30.1401 60.0604 30.4401 59.8804 30.7101C59.7104 30.9801 59.4904 31.1901 59.3604 31.2701C59.3804 31.2701 59.4004 31.2801 59.4204 31.2801C59.8604 31.3801 60.5404 31.6901 60.8704 32.1901L60.1604 32.2101C60.6604 32.2901 60.9304 32.9801 61.3204 32.6101C61.6704 33.0801 60.6904 32.9401 61.0804 33.4801C60.3404 33.4201 60.2704 33.1001 59.6504 33.0801L60.0004 33.5401C59.7204 33.3901 59.7404 33.8101 59.4604 33.6601C60.3304 34.5301 59.0704 34.8201 59.4404 35.6901L59.5904 35.2201C60.0004 35.2401 59.9504 35.5201 60.0604 35.7301C59.4704 35.9401 59.5404 36.0801 59.2604 36.5001C59.5604 36.8901 60.2804 37.1601 60.2404 37.6701C59.4704 37.5001 59.7404 38.4801 59.0704 38.5001C59.8304 38.6901 59.2404 39.5001 59.6704 39.6201C59.7904 39.9101 59.6504 40.2701 59.2404 40.2001C59.2304 40.1601 59.1604 40.0701 59.1404 39.9801L59.0804 40.2401C58.9904 40.2001 58.9304 40.2001 58.9204 40.1701C58.8604 40.4001 59.4204 40.5001 58.9904 40.7301C58.7904 40.6901 58.8204 40.5301 58.7604 40.3901C58.5304 40.9601 59.7104 41.7001 58.9004 42.0601C59.2304 42.2401 59.0804 42.9701 59.9204 43.0301C59.5804 43.1501 58.9704 42.9001 58.9204 43.4401C59.5004 43.9501 58.4904 43.9201 58.7804 44.4501C58.2704 43.6901 58.5904 44.3701 58.0904 43.7101C57.7104 43.9301 58.4004 44.7601 58.0304 45.2901C57.8504 45.2801 57.6704 45.1901 57.4904 45.1801C57.6204 45.4801 58.0104 45.9801 57.4004 45.9101L57.8604 46.1101C57.6604 46.2501 57.5004 46.4501 57.3304 46.6401C57.2404 46.7301 57.1404 46.8501 57.0304 46.8801C56.9304 46.9101 56.8204 46.9201 56.6604 46.9001C56.8404 47.1901 56.9604 47.5201 57.0604 47.8601C56.4704 47.7401 56.1804 47.9501 55.9804 48.3501C55.7904 48.7501 55.7004 49.3301 55.6604 49.8501C55.4004 49.9601 54.9504 50.0201 54.8504 49.8301C54.8704 49.7401 54.9004 49.5601 54.9404 49.3901C54.5704 49.5601 53.9204 49.2901 54.0604 50.0901C53.7904 50.4801 53.5604 49.7301 53.2704 49.7001C53.1604 50.3501 52.5204 50.2801 52.0504 50.1501C51.5604 50.0401 51.1504 49.9301 50.9404 50.7601C51.2704 50.8001 51.9204 51.1901 52.6004 51.0301C52.4404 51.2601 52.6204 51.5701 52.3604 51.6301C51.6104 51.7501 51.2904 51.0901 50.6004 51.3101L50.8004 50.2501C50.3304 49.6501 49.7504 49.9201 49.1904 50.1601C48.6104 50.4001 48.1404 50.6001 47.7004 49.8101Z" fill="#C6A2A4"/>
<path d="M55.44 48.9199L54.77 48.6899L55.05 49.0599C55.13 48.9299 55.25 48.8599 55.44 48.9199Z" fill="#C6A2A4"/>
<path d="M55.0502 49.0699C55.0002 49.1599 54.9602 49.2699 54.9302 49.3899C55.0202 49.3499 55.1002 49.2799 55.1202 49.1599L55.0502 49.0699Z" fill="#C6A2A4"/>
<path d="M45.58 50.29C45.45 50.3 45.17 50.32 45.02 50.57C45.22 50.57 45.52 50.49 45.58 50.29Z" fill="#C6A2A4"/>
<path d="M45.1699 50.87C45.2699 50.87 45.3699 50.87 45.4699 50.88L45.4499 50.76C45.3399 50.78 45.2599 50.83 45.1699 50.87Z" fill="#C6A2A4"/>
<path d="M36.0003 61.5999C35.8303 61.9199 35.6403 62.2099 35.4203 62.4899C35.1803 62.2099 34.3603 62.8599 34.5203 62.2199C34.2203 63.1299 32.9603 62.5099 33.5503 63.5699C34.8303 63.2299 36.3203 62.7899 37.7703 62.0999C38.4603 61.6999 39.1803 61.3199 39.7403 60.7499C40.0303 60.4799 40.3103 60.2099 40.5603 59.9099C40.7803 59.5899 40.9803 59.2599 41.1603 58.9299L41.1303 59.5799C41.3703 58.7299 41.9303 58.5799 42.3203 58.2899C42.7203 58.0199 43.0403 57.6699 42.7103 56.6899L43.3303 57.3599C43.6503 57.1899 43.6003 56.6699 43.5903 56.2599C43.5703 55.8399 43.6003 55.4899 44.1903 55.3999L43.8303 55.2899C43.9203 55.1299 44.1003 55.1399 44.1903 54.9799L44.0103 54.9699C43.9103 54.3799 44.0603 54.1499 44.4903 53.8699C44.7603 53.9699 44.5103 54.1099 44.5203 54.2699C44.8703 54.2199 44.4803 53.6399 44.6403 53.3499C44.9803 53.2599 45.0003 53.5499 45.0903 53.6399C45.1403 53.1399 45.4303 52.9399 45.5903 52.7699C45.7603 52.5799 45.7603 52.4399 45.5803 51.7199C45.5003 51.4799 45.1003 51.4899 45.3303 51.1899C44.9203 51.1999 44.6903 51.4699 44.5903 51.7799C44.4903 52.0999 44.5203 52.4599 44.5203 52.7999L44.6103 52.6699C45.5003 53.7299 44.1703 52.8099 44.3003 53.7799C43.9203 53.3499 44.0803 53.0499 43.9003 52.7899C42.5603 53.1499 43.9803 54.3299 42.5503 54.2799V54.1999C42.3803 54.2599 42.4803 54.5899 42.4903 54.8199C42.6703 54.8399 42.8403 54.7099 43.0203 54.6399C43.0303 54.8799 43.4803 55.2599 43.6503 55.4499C43.0303 55.3799 43.7203 55.8899 43.2603 56.0999C42.7303 55.9299 43.0203 55.5499 42.8503 55.2799L42.9203 55.8799C42.6903 56.2699 42.1903 55.9099 41.8403 55.8999C41.9403 56.4199 42.2103 55.9099 42.4803 56.4799C42.0603 56.4599 41.5903 56.8399 41.2003 57.3599C40.8103 57.8899 40.3703 58.4599 40.2103 58.9999C40.4003 58.7199 39.9103 58.4899 40.2503 58.2899C40.0703 58.2999 39.9003 58.8399 40.1603 59.1599C39.8903 59.8699 39.0103 60.1799 38.3203 60.1999L38.7003 60.4599C38.6703 60.8899 38.2903 60.9499 37.8803 60.9999C37.4603 61.0499 37.0203 61.0899 36.6603 61.4299H36.6803C36.4503 61.6199 36.5703 62.6599 35.9503 62.6899C35.9103 62.1199 36.2003 62.0499 36.0003 61.5999Z" fill="#C6A2A4"/>
<path d="M32.9501 63.3201L33.1901 62.7001C32.8501 62.6401 32.4801 63.39 32.5801 63.76C32.8101 63.64 33.1601 63.8301 33.1701 63.5001C33.1201 63.4201 33.1001 63.2101 32.9501 63.3201Z" fill="#C6A2A4"/>
<path d="M26.3101 62.4199C26.1301 62.4799 26.0701 62.6899 25.9401 62.7999C27.4301 63.4699 29.2301 63.51 29.7601 64.04C30.2501 64.26 30.4201 63.3899 31.0101 63.2299L31.2701 63.83C31.6001 63.47 32.6301 64.04 32.2201 63.11C32.1801 63.03 31.9601 63.5699 31.6801 63.4199L31.7201 63.09C31.5101 63.14 31.3101 63.19 31.1001 63.2L31.3001 62.7999C30.5101 62.1499 30.6501 64.03 29.5801 63.52L29.7001 62.7C29.0401 62.55 28.6101 62.77 28.1601 62.11C28.1601 62.11 28.0401 62.51 28.2001 62.38C28.3001 62.45 28.3701 62.8199 28.2201 63.0299C26.9801 63.3599 28.5001 62.6 27.8901 62.08C27.6401 62.17 27.3301 62.19 27.0101 62.18C26.6901 62.17 26.3401 62.15 26.0301 62.02C25.4001 61.83 24.8801 61.3599 24.8801 60.9399C24.9101 61.2799 24.7101 61.4499 24.4201 61.4599C24.1401 61.5099 23.7401 61.2299 23.5101 60.9399C23.5201 60.4999 24.0501 60.8199 24.3001 60.7099C24.1601 60.3999 24.1601 60.1599 23.9001 59.8899C23.8101 60.2099 23.6301 60.4199 23.3401 60.4199C23.0601 60.4299 22.6701 60.21 22.3101 59.7C22.3701 60.02 22.4801 60.33 22.6201 60.61C22.6901 60.75 22.7701 60.8899 22.8601 61.0099C22.9401 61.0999 23.0301 61.1799 23.1101 61.2599C23.4601 61.5599 23.8801 61.8199 24.2501 61.8899C25.0401 62.1099 25.7401 62.0699 26.3101 62.4199Z" fill="#C6A2A4"/>
<path d="M25.6302 62.85C25.7802 62.9 25.8702 62.86 25.9402 62.8C25.7602 62.72 25.5902 62.63 25.4302 62.54L25.6302 62.85Z" fill="#C6A2A4"/>
</g>
</svg>
