<svg width="32" height="32" viewBox="0 0 32 32" fill="none" xmlns="http://www.w3.org/2000/svg">
<g clip-path="url(#clip0_809_319)">
<path d="M5.71993 5.16001C6.05993 4.58001 6.63993 4.07001 7.07993 3.57001C7.52993 3.03001 8.09993 2.55001 8.69993 2.19001C10.9699 0.83001 13.4499 0.38001 16.0699 0.66001C16.7699 0.73001 17.4799 0.72001 18.1799 0.82001C18.9099 0.93001 19.6199 1.13001 20.3399 1.30001C20.9499 1.45001 21.5699 1.60001 22.1699 1.79001C22.5099 1.90001 22.8599 2.03001 23.1399 2.24001C24.1699 3.05001 25.1699 3.91001 26.1899 4.74001C27.4399 5.76001 28.1799 7.10001 28.6199 8.62001C28.8799 9.52001 29.1399 10.42 29.3699 11.32C29.8599 13.27 29.6899 15.26 29.3099 17.16C29.0099 18.65 28.2299 20.05 27.6399 21.48C27.2999 22.3 26.7899 23.01 25.9999 23.45C25.6599 23.64 25.2599 23.75 24.8799 23.87C24.4699 23.99 24.0899 24.16 24.0399 24.63C23.9399 25.55 23.3799 26.12 22.6099 26.52C21.3799 27.16 20.1099 27.67 18.7299 27.89C18.2599 27.96 17.8199 28.23 17.3599 28.38C15.7099 28.92 14.0599 28.73 12.4599 28.19C10.8199 27.64 9.34993 26.74 7.96993 25.69C7.17993 25.08 6.59993 24.33 6.25993 23.37C6.07993 22.87 5.70993 22.42 5.33993 22.03C4.34993 20.97 3.27993 19.95 3.01993 18.45C2.77993 17.11 2.60993 15.75 2.53993 14.39C2.48993 13.59 2.41993 9.63001 5.71993 5.16001Z" fill="#CAD3A5"/>
<path opacity="0.37" d="M28.19 11.6C26.62 12.01 25.04 12.39 23.46 12.76C22.19 13.05 20.92 13.34 19.64 13.59C18.94 13.73 17.08 14.35 16.53 13.83C15.98 13.31 16.61 11 16.7 10.24C16.87 8.82997 17.05 7.41997 17.22 5.99997C17.35 4.91997 17.49 3.83997 17.6 2.74997C17.62 2.55997 17.73 2.11997 17.62 1.88997C17.61 1.86997 17.6 1.84997 17.59 1.82997C17.58 1.81997 17.58 1.79997 17.57 1.78997C17.55 1.77997 17.54 1.77997 17.52 1.77997H17.51C17.48 1.77997 17.46 1.76997 17.43 1.78997C17.4 1.79997 17.39 1.81997 17.37 1.83997C17.37 1.83997 17.37 1.84997 17.36 1.84997C17.35 1.85997 17.34 1.86997 17.33 1.88997C17.1 3.19997 16.87 4.50997 16.63 5.81997C16.41 7.03997 16.18 8.26997 15.95 9.48997C15.73 10.65 15.67 12.1 15.21 13.2C15.18 13.28 15.23 13.32 15.27 13.34C15.25 13.34 15.24 13.34 15.22 13.33C15.13 13.32 14.99 13.15 14.9 13.08C14.65 12.88 14.42 12.67 14.18 12.47C13.5 11.88 12.84 11.27 12.17 10.67C11.03 9.62997 9.91004 8.53997 8.73004 7.53997C8.60004 7.40997 8.38004 7.60997 8.53004 7.75997C9.42004 8.63997 10.3 9.51997 11.18 10.42C11.85 11.11 12.53 11.8 13.18 12.51C13.4 12.75 14.56 13.73 14.52 14.08C14.44 14.83 10.36 14.84 9.72004 14.88C9.16004 14.92 6.87004 14.73 6.51004 15.31C6.46004 15.39 6.50004 15.48 6.56004 15.53C6.83004 15.72 7.51004 15.55 7.81004 15.53C8.83004 15.46 9.84004 15.37 10.86 15.3C11.78 15.24 12.75 15.13 13.67 15.21C14.02 15.24 14.14 15.17 14.15 15.42C14.15 15.65 13.69 16.04 13.56 16.19C12.21 17.69 10.59 18.97 9.06004 20.26C8.70004 20.56 6.27004 22.15 6.39004 22.68C6.40004 22.73 6.45004 22.78 6.50004 22.79C7.06004 22.95 8.51004 21.49 8.88004 21.21C10.38 20.06 11.85 18.87 13.32 17.68C13.46 17.57 14.87 16.22 15.06 16.33C15.19 16.4 14.97 17.85 14.96 18.01C14.83 19.86 14.69 21.72 14.57 23.57C14.52 24.4 14.46 25.22 14.43 26.05C14.42 26.37 14.25 27.11 14.42 27.4C14.69 27.88 14.81 27.41 14.89 27.05C15.18 25.59 15.24 24.05 15.39 22.57C15.48 21.62 15.58 20.67 15.68 19.72C15.76 18.98 15.71 18.07 15.95 17.37C16.11 16.9 16.08 16.7 16.69 17.04C17.13 17.29 17.55 17.87 17.91 18.23C18.76 19.06 19.62 19.88 20.47 20.71C21.61 21.81 22.76 22.92 23.9 24.02C24.05 24.16 24.24 23.95 24.12 23.8C22.78 22.08 21.07 20.61 19.56 19.05C18.71 18.16 17.83 17.27 17.09 16.28C16.78 15.87 16.29 15.38 16.89 14.95C17.11 14.8 17.57 14.77 17.82 14.71C21.31 13.79 24.8 12.87 28.29 11.95C28.46 11.85 28.38 11.55 28.19 11.6Z" fill="white"/>
<g opacity="0.72">
<path d="M3.1402 8.81996C3.1902 8.72996 3.2402 8.65996 3.2902 8.57996C3.1002 8.59996 2.9002 8.61996 2.7002 8.62996C2.8502 8.70996 3.0002 8.76996 3.1402 8.81996Z" fill="#C8B3A3"/>
<path d="M5.11 8.22C5.13 8.23 4.99 8.19 4.93 8.15C4.11 7.92 3.81 7.85 3.58 7.8C3.35 7.77 3.13 7.71 2.5 7.96C2.61 8.09 2.83 8.28 3.11 8.37C3.38 8.47 3.71 8.46 4.03 8.38C3.95 8.36 3.27 8.23 3.51 8.07C3.98 8.17 3.94 8.3 4.58 8.25C5.09 8.19 4.15 8.22 4.4 8.1L5.11 8.22Z" fill="#C8B3A3"/>
<path d="M3.56006 7.65997C3.82006 7.77997 4.10006 7.88997 4.33006 7.95997C4.05006 7.85997 3.76006 7.61997 3.56006 7.65997Z" fill="#C8B3A3"/>
<path d="M3.46023 7.42992C3.59023 7.29992 4.03023 7.70992 4.13023 7.71992C3.81023 7.51992 3.52023 7.29992 3.24023 7.03992C3.31023 7.17992 3.38023 7.30992 3.46023 7.42992Z" fill="#C8B3A3"/>
<path d="M3.95 6.84995C3.95 6.80995 3.94 6.76995 3.93 6.71995C3.79 6.60995 3.87 6.73995 3.95 6.84995Z" fill="#C8B3A3"/>
<path d="M4.14 6.49995C3.85 6.24995 3.88 6.49995 3.94 6.71995C3.96 6.72995 3.97 6.73995 4 6.75995C4.29 6.91995 4.77 7.54995 4.56 7.46995C4.63 7.64995 4.02 7.18995 4.36 7.56995C4.56 7.64995 4.76 7.74995 4.93 7.85995C4.9 7.73995 4.22 6.82995 4.14 6.49995Z" fill="#C8B3A3"/>
<path d="M3.94992 6.84998C3.94992 6.88998 3.93992 6.92998 3.91992 6.94998C4.04992 7.00998 3.99992 6.93998 3.94992 6.84998Z" fill="#C8B3A3"/>
<path d="M3.62988 7.08997C3.65988 7.13997 3.68988 7.19997 3.71988 7.25997L4.00988 7.41997C3.87988 7.30997 3.75988 7.19997 3.62988 7.08997Z" fill="#C8B3A3"/>
<path d="M4.65993 6.10999C4.83993 6.60999 4.75993 6.61999 4.63993 6.60999C4.52993 6.60999 4.38993 6.59999 4.60993 6.94999C4.76993 6.78999 5.21993 7.44999 5.42993 7.99999C5.40993 7.88999 5.37993 7.77999 5.36993 7.67999C5.26993 7.27999 5.01993 6.51999 4.65993 6.10999Z" fill="#C8B3A3"/>
<path d="M6.55998 7.19991C6.33998 7.47991 6.03998 7.77991 5.65998 8.00991C5.79998 7.68991 5.82998 7.32991 6.01998 7.27991C5.85998 7.12991 5.73998 7.23991 5.60998 7.33991C5.49998 7.43991 5.51998 7.58991 5.48998 7.51991C5.50998 7.01991 5.55998 7.00991 5.60998 7.01991C5.62998 7.01991 5.79998 7.08991 5.78998 6.60991C5.63998 6.58991 5.41998 6.62991 5.43998 7.46991C5.40998 7.23991 5.32998 7.03991 5.22998 6.81991C5.32998 7.16991 5.39998 7.52991 5.46998 7.88991C5.48998 8.18991 5.41998 7.03991 5.46998 7.78991C5.46998 7.84991 5.46998 7.84991 5.47998 7.88991C5.47998 7.86991 5.46998 7.84991 5.46998 7.81991V7.76991V7.75991L5.42998 8.64991V8.65991L5.40998 8.69991L5.37998 8.78991C5.34998 8.91991 5.20998 9.01991 5.23998 9.12991C5.36998 9.26991 5.51998 9.38991 5.67998 9.41991C6.36998 9.54991 6.28998 7.63991 6.55998 7.19991Z" fill="#C8B3A3"/>
<path d="M6.60986 8.47995L6.68986 8.93995L6.62986 8.31995L6.60986 8.47995Z" fill="#C8B3A3"/>
<path d="M7.32004 7.16002C7.24004 7.39002 7.15004 7.60002 7.04004 7.81002C6.98004 7.71002 6.94004 7.47002 6.89004 7.25002C6.93004 7.51002 6.86004 7.93002 6.90004 8.15002C7.21004 9.20002 7.42004 7.89002 7.57004 7.71002C8.30004 8.03002 7.67004 8.24002 8.17004 9.09002C7.95004 9.12002 7.88004 8.89002 7.59004 8.85002C7.92004 9.38002 8.23004 9.35002 8.42004 9.12002C8.62004 8.90002 8.70004 8.50002 8.76004 8.30002C8.65004 8.25002 8.51004 7.97002 8.42004 8.12002C8.46004 7.98002 8.50004 7.84002 8.53004 7.69002C7.98004 7.09002 7.79004 7.03002 7.32004 7.16002Z" fill="#C8B3A3"/>
<path d="M6.68018 7.01997C6.80018 6.99997 6.86018 7.08997 6.88018 7.23997C6.82018 6.94997 6.77018 6.72997 6.68018 7.01997Z" fill="#C8B3A3"/>
<path d="M8.87977 8.18996C8.81977 8.14996 8.78977 8.19996 8.75977 8.29996C8.79977 8.31996 8.84977 8.29996 8.87977 8.18996Z" fill="#C8B3A3"/>
<path d="M8.18988 7.24995C8.28988 7.23995 8.36988 7.20995 8.46988 7.18995L8.17988 6.81995C8.16988 6.88995 8.08988 7.02995 8.18988 7.24995Z" fill="#C8B3A3"/>
<path d="M14.6398 4.44996C14.6798 4.04996 14.6398 3.84996 14.5098 3.90996C14.5698 3.37996 14.7398 3.50996 14.8698 3.21996C14.7198 2.84996 14.9598 2.59996 14.9798 2.07996C14.7098 1.97996 14.5498 2.67996 14.2998 2.52996C14.3198 2.37996 14.3198 2.13996 14.2898 1.95996C13.9098 2.27996 13.4698 2.82996 13.0798 2.42996C12.7398 2.27996 12.5498 2.59996 12.3198 2.91996C11.7598 2.94996 11.2898 3.27996 10.8598 3.61996C10.4098 3.95996 10.0598 4.34996 9.50983 4.66996C9.76983 4.91996 10.0298 5.14996 10.2998 5.36996C9.85983 5.07996 10.0998 5.70996 9.57983 5.25996C9.72983 5.26996 9.68983 5.11996 9.71983 5.04996C9.24983 4.92996 9.16983 5.08996 9.14983 5.32996C9.11983 5.55996 9.12983 5.87996 8.91983 5.90996C9.05983 6.01996 9.72983 6.65996 9.74983 6.89996C9.01983 5.94996 9.41983 7.34996 8.57983 6.28996C8.16983 6.26996 9.12983 7.18996 8.71983 7.31996C9.00983 7.96996 9.20983 7.32996 9.54983 7.69996C9.73983 8.29996 9.08983 7.79996 9.46983 8.41996C9.90983 8.30996 10.2398 7.58996 10.3198 6.74996C10.3698 6.32996 10.3598 5.90996 10.3798 5.51996C10.3198 5.27996 10.2598 5.05996 10.2998 4.87996L10.7598 5.32996C10.5498 4.82996 10.9998 4.36996 11.7898 5.10996C11.3898 4.62996 12.2698 5.17996 11.5298 4.01996C11.7598 4.24996 11.7498 4.18996 11.9098 4.23996L11.7298 3.83996C11.8998 3.76996 12.1698 4.38996 12.2998 4.27996C11.9498 3.78996 11.9898 3.56996 11.8598 3.08996C12.3698 3.61996 12.7798 4.06996 13.0798 4.56996C13.0198 4.38996 12.9498 4.17996 12.8098 3.94996C12.9898 4.11996 12.8198 3.57996 12.7998 3.36996C12.9298 3.30996 13.0898 4.05996 13.1798 4.43996C13.3998 4.61996 13.2498 3.17996 13.5098 3.62996L13.3598 3.02996C13.6198 2.82996 13.8898 3.50996 14.1498 3.28996C14.2698 4.12996 13.9398 4.01996 13.8798 4.38996C13.9398 4.55996 14.0298 4.59996 14.0598 4.87996C14.1298 4.43996 14.2998 3.87996 14.4698 3.46996C14.2998 4.40996 14.5798 4.36996 14.6398 4.44996Z" fill="#C8B3A3"/>
<path d="M14.06 4.84998C14.04 4.97998 14.03 5.09998 14.02 5.18998C14.03 5.13998 14.05 5.07998 14.08 5.11998C14.08 5.00998 14.07 4.91998 14.06 4.84998Z" fill="#C8B3A3"/>
<path d="M14.6399 4.44995C14.6399 4.48995 14.6299 4.50995 14.6299 4.54995C14.6599 4.49995 14.6499 4.47995 14.6399 4.44995Z" fill="#C8B3A3"/>
<path d="M13.02 2.37C13.04 2.39 13.05 2.4 13.07 2.42C13.09 2.43 13.11 2.42 13.13 2.43L13.02 2.37Z" fill="#C8B3A3"/>
<path d="M13.3998 5.14993C13.3198 4.94993 13.2098 4.74993 13.0898 4.54993C13.1798 4.80993 13.2498 5.01993 13.3998 5.14993Z" fill="#C8B3A3"/>
<path d="M12.0298 4.96997C12.0498 5.07997 12.1698 5.22997 12.2598 5.40997C12.3298 5.39997 12.2498 5.20997 12.0298 4.96997Z" fill="#C8B3A3"/>
<path d="M14.2598 5.01992L14.4098 4.82992L14.4798 4.66992C14.3998 4.77992 14.3298 4.89992 14.2598 5.01992Z" fill="#C8B3A3"/>
<path d="M19.1201 4.16001C19.3601 3.45001 18.8801 3.64 18.7601 3.34C18.1301 3.3 17.6501 4.50001 17.2301 4.25001L18.2801 3.17001C17.8901 2.92001 17.3101 2.13001 16.3601 3.17001C16.4101 2.99001 16.4301 2.75 16.6401 2.61C16.3101 2.51 15.6201 4.50001 15.5301 3.93001C16.1501 3.16001 15.7301 3.05001 16.1201 2.20001L16.2201 2.12C15.9001 2.08 15.4201 2.5 15.2701 2.4C15.1901 2.78 15.2001 3.39001 15.0001 3.40001C15.0601 3.49001 14.9501 3.91 14.8701 4.29C15.1101 3.91 15.1401 4.19001 15.3901 3.72001C15.3401 4.23001 15.2801 3.87 15.2301 4.36C15.3201 4.23 15.4001 4.10001 15.5001 3.97001C15.5501 4.11001 15.2501 4.42001 15.3401 4.57001C15.4501 4.30001 15.6901 4.03001 15.7801 4.15001L15.6801 4.29C15.8401 4.15 15.8501 4.43001 16.1901 3.66001C16.1001 3.92001 16.0001 4.19001 15.9001 4.45001L16.1501 3.94001C16.2301 4.10001 16.0901 4.5 16.0001 4.77C15.9201 5.06 15.8601 5.19001 16.2201 5.03001C16.2601 4.84001 16.5201 4.65 16.6301 4.6C16.7501 4.18 16.2001 4.80001 16.0701 4.82001C16.3701 4.33001 17.0101 3.93 17.0501 3.55C16.8201 4.21 17.4601 3.76 16.6101 4.91C16.7701 5.17 17.3201 4.73001 17.3801 5.21001L17.2301 5.37C17.8801 4.68 17.2101 5.91001 18.0501 5.32001L18.0101 5.03001C18.2501 4.73001 18.3301 4.78 18.4801 4.79C18.3801 4.91 18.3801 4.9 18.3101 5.08C18.7401 4.56 19.1201 4.66001 19.2501 4.49001C19.1901 4.32001 18.7301 4.71 18.4601 4.72C18.7701 4.47 19.0801 3.98001 19.1201 4.16001Z" fill="#C8B3A3"/>
<path d="M15.4902 4.56992L15.6802 4.28992C15.6302 4.31992 15.5702 4.40992 15.4902 4.56992Z" fill="#C8B3A3"/>
<path d="M20.1901 5.76993C20.4301 5.94993 20.0501 6.33993 20.2701 6.66993C20.5701 6.22993 20.0701 5.66993 20.3801 4.98993C20.4801 5.41993 20.7301 4.70993 20.8001 4.69993C20.7001 5.09993 20.7201 6.00993 20.7701 6.19993C20.8701 5.94993 21.0601 6.38993 21.2201 6.41993C20.8401 5.85993 21.5101 6.07993 21.1701 5.46993C21.1801 4.92993 21.4601 4.51993 21.6101 4.92993C21.6201 5.31993 21.5201 5.23993 21.4301 5.25993C21.3901 5.99993 21.6701 5.63993 21.7501 6.30993C22.0101 5.25993 22.9401 5.29993 22.6801 3.66993C22.5201 3.35993 22.4401 3.75993 22.3201 3.83993C22.6701 4.14993 22.3601 4.69993 22.3501 4.99993C22.2001 4.73993 22.0001 5.27993 22.0101 4.68993L22.1901 4.05993C21.4301 3.79993 20.6001 3.99993 19.9901 4.06993L20.2501 4.15993C20.1501 4.58993 19.9901 4.58993 19.8101 4.76993C19.7701 5.12993 19.7501 5.48993 19.7501 5.85993C19.6401 5.75993 19.4701 5.87993 19.5901 5.50993C19.3201 5.89993 19.2901 6.17993 19.3001 6.57993C19.0101 6.61993 18.9401 6.45993 18.7801 6.47993C18.6901 6.48993 18.5801 6.55993 18.3501 6.73993C18.4001 6.91993 18.4701 7.03993 18.5301 7.09993C18.9401 7.40993 19.2201 6.43993 19.7701 7.20993C19.9401 6.72993 20.0701 6.24993 20.1901 5.76993Z" fill="#C8B3A3"/>
<path d="M18.7798 5.99993C18.8998 5.84993 19.0198 5.69993 19.1298 5.54993C19.0298 5.60993 18.9298 5.65993 18.8298 5.70993L18.7798 5.99993Z" fill="#C8B3A3"/>
<path d="M19.8599 3.87C19.8099 4.02 19.7499 4.11 19.6899 4.22C19.6599 4.27 19.6299 4.33 19.6099 4.4C19.6099 4.41 19.6199 4.42 19.6199 4.42C19.7299 4.59 19.7999 4.27 19.8599 3.87Z" fill="#C8B3A3"/>
<path d="M22.04 6.33994L22.28 6.13994L22.1 5.93994C22.12 6.17994 22.06 6.27994 22.04 6.33994Z" fill="#C8B3A3"/>
<path d="M24.1901 3.63993C23.6401 3.61993 23.4001 4.10993 22.9001 3.54993C22.6301 4.25993 22.9501 4.86993 22.8201 5.51993C22.9601 5.67993 23.0501 4.47993 23.3401 4.26993C23.3101 4.87993 23.7201 4.16993 23.9301 4.36993C23.9701 4.11993 24.0501 3.83993 24.1901 3.63993Z" fill="#C8B3A3"/>
<path d="M24.1602 6.25998C24.2302 6.32998 24.6602 6.08998 24.4902 6.37998C24.1802 6.62998 24.0502 6.67998 24.0902 6.55998C23.4602 7.20998 24.2602 6.54998 23.8602 7.01998C23.9302 6.94998 24.0302 6.82998 24.1902 6.72998C24.1402 7.05998 24.8802 6.46998 24.6102 7.07998C24.8502 7.02998 24.8702 7.09998 25.4002 6.86998C24.8402 7.43998 24.7902 7.28998 24.3202 7.85998C24.6302 7.72998 25.3102 7.33998 25.9802 7.07998C25.2202 7.94998 26.3102 7.56998 25.7102 8.14998C25.6602 8.11998 25.4702 8.13998 25.5302 8.01998C24.5902 8.39998 25.8002 8.24998 25.6702 8.49998L24.8402 8.73998C25.0202 8.85998 25.6502 8.98998 25.1002 9.35998L24.6702 9.42998C25.4202 9.66998 25.2402 10.24 25.6202 10.54L25.1302 10.83C25.8702 11.22 25.3402 10.27 26.6702 10.41C25.1202 10.76 27.2302 10.59 26.6602 11.01C26.0602 11.25 26.2902 10.76 25.6002 11.03C26.4102 10.96 25.8602 11.15 26.1102 11.27C25.3502 11.35 26.0502 11.61 25.1802 11.63C25.6702 11.74 26.1702 11.87 26.6602 12.01C26.2402 12.15 26.3302 12.31 26.4502 12.42C26.4302 12.1 27.6002 12.38 27.9102 12C27.4902 11.5 27.1202 10.69 27.3702 9.95998C26.3202 10.11 27.2902 9.53998 26.4302 9.62998C26.7502 9.53998 27.0302 9.41998 27.3502 9.32998C27.0302 8.96998 26.8102 9.55998 26.4102 9.54998C26.2302 9.40998 26.8102 9.10998 27.1902 9.02998C27.1602 8.71998 26.9002 9.06998 26.3102 9.06998L27.3802 8.56998C27.0802 8.14998 26.6402 7.69998 26.2902 7.22998C25.9402 6.76998 25.7302 6.22998 25.6502 5.49998C25.4802 5.67998 25.3102 5.85998 25.1302 6.02998C25.1702 5.69998 24.7302 5.80998 24.4502 5.91998C24.1502 6.01998 24.0302 6.05998 24.2802 5.27998C24.1302 5.44998 23.9902 5.61998 23.8602 5.78998C24.1002 5.48998 24.3102 4.74998 24.6602 4.38998C24.4102 4.53998 24.3702 4.23998 24.1302 4.38998C24.1802 4.51998 24.2102 4.65998 24.2402 4.79998C23.8202 5.28998 23.8302 4.91998 23.9202 4.38998C23.6102 4.68998 23.6002 5.00998 23.5902 5.31998C23.5902 5.62998 23.5902 5.92998 23.4802 6.22998C23.9202 5.63998 23.8902 6.01998 23.7002 6.42998C23.5302 6.84998 23.2102 7.29998 23.4602 7.11998C23.8102 6.86998 23.9002 6.57998 24.1602 6.25998Z" fill="#C8B3A3"/>
<path d="M24.8299 4.26001C24.7699 4.29001 24.7099 4.34001 24.6499 4.38001C24.6999 4.36001 24.7499 4.32001 24.8299 4.26001Z" fill="#C8B3A3"/>
<path d="M26.4502 12.4199C26.4502 12.4599 26.4702 12.4999 26.5102 12.5599C26.6902 12.5799 26.5602 12.5199 26.4502 12.4199Z" fill="#C8B3A3"/>
<path d="M23.9102 4.35999C23.9102 4.35999 23.9102 4.35999 23.9102 4.36999C23.9102 4.36999 23.9202 4.35999 23.9102 4.35999Z" fill="#C8B3A3"/>
<path d="M23.1899 6.06001L23.2599 6.09001L23.3399 5.76001L23.1899 6.06001Z" fill="#C8B3A3"/>
<path d="M26.04 14.38L26.38 14.2C26.27 14.24 26.15 14.29 26.04 14.38Z" fill="#C8B3A3"/>
<path d="M27.3302 17.2V17.1C27.2802 17.14 27.2902 17.17 27.3302 17.2Z" fill="#C8B3A3"/>
<path d="M25.8501 24.3699C25.9201 24.6799 25.9101 25.0799 26.0801 25.7199L25.8801 25.3799C25.8901 25.5099 25.8701 25.7799 25.9101 26.0599C25.9401 26.2999 26.0201 26.5699 26.2801 26.7699C26.3001 26.7899 26.3201 26.8099 26.3501 26.8299L26.2701 26.4999C26.3201 25.8099 26.8501 26.8899 27.3001 26.8399C27.5701 26.3599 26.6501 25.1599 27.0601 25.1599C27.1001 25.0199 27.4001 25.2699 27.6001 25.4899C27.7401 25.3699 27.6101 25.1099 27.4301 24.8799C27.2401 24.6599 27.0201 24.4299 27.0101 24.3199C28.1801 25.1099 28.0901 24.9699 27.9801 24.6299C27.9301 24.2099 27.7501 23.6599 28.5901 24.1399C28.5901 23.8099 29.0201 23.6699 28.7801 23.0599C29.2401 23.6499 29.0301 22.8499 29.6301 23.3999C28.9901 22.8499 29.2701 22.7699 29.5301 22.6399C29.7901 22.5199 29.9801 22.2999 29.0701 21.7699C29.8001 21.6599 28.9701 21.7099 29.6301 21.4599C29.8501 21.5599 29.8101 21.6399 29.8301 21.6999C30.3301 21.6499 29.1301 21.0499 30.1001 21.2299C30.3801 20.8299 29.5801 20.9599 29.1001 20.5899C29.4401 20.2799 29.6701 20.4499 30.5901 20.2899C29.6001 20.1399 30.1001 19.8999 29.5701 19.6999C29.5201 19.7599 29.3201 20.0099 28.9401 19.8399C29.0901 19.4299 28.2701 19.5799 27.9501 19.3299C29.0101 18.9399 28.0601 19.6799 28.8501 19.1999C29.4101 19.3599 29.3801 19.5599 30.1901 19.6999C30.2401 19.2499 29.9601 18.7399 29.3901 18.4699C29.4701 18.1999 29.9301 18.4499 29.9801 18.2399C30.3401 17.6999 28.7101 17.9499 29.1001 17.4899L29.6701 17.4099C28.8801 17.3999 29.6701 16.7199 29.2401 16.4499C28.9601 16.5199 28.7701 16.5799 28.5701 16.5399C29.2901 16.4799 29.0901 16.3499 28.8401 16.2099C28.5901 16.0599 28.2901 15.9799 28.7501 15.6399C27.8701 15.9499 27.3201 15.9399 27.1801 15.9099C27.2501 15.8499 27.3401 15.7899 27.4301 15.7299C27.6001 15.6099 27.8001 15.4999 27.9401 15.4199L27.9301 15.4399C27.6101 15.9099 29.0101 15.1999 29.4901 15.4199C29.1301 15.3299 29.1701 14.9899 28.9201 14.8499C28.8201 14.7999 28.6901 14.7799 28.4901 14.8399C28.7101 14.7299 28.9301 14.6199 29.1501 14.5099C28.9401 14.0899 27.6301 15.2699 27.9001 14.5999L28.3101 14.2499C27.4901 13.6799 28.3201 13.0699 27.0601 12.6899C26.6201 12.6899 25.6701 13.1799 25.3501 13.2899C25.8201 13.6999 26.6601 13.7499 27.1201 13.8099L26.3901 14.1999C26.9401 14.0499 27.4001 14.1099 27.6601 13.7099C28.0901 13.5799 27.1801 14.2899 27.7101 14.1599C27.1101 14.7799 26.8901 14.6899 26.3501 15.1599C26.5501 15.1699 26.7301 15.1499 26.9001 15.1099C26.6001 15.2899 26.8501 15.4499 26.5501 15.6399C27.5201 15.0999 26.4801 16.0999 26.9601 15.9199C26.9801 15.8599 27.0001 15.8099 27.0101 15.7499C27.4001 15.4499 27.4201 15.5399 27.5801 15.5099C27.3101 15.7299 27.1901 15.8299 27.1201 15.9099C27.0501 15.9799 27.0201 16.0399 26.9001 16.1399C27.2801 16.0199 28.1301 15.7599 28.1601 15.9599C27.2701 16.2099 27.7001 16.3699 26.9401 16.5199C27.3901 16.4599 27.4801 16.4999 27.5201 16.5899C27.5701 16.7299 27.5701 16.8799 27.8301 16.8599C28.0401 16.9899 27.9801 17.1999 27.5001 17.2899C27.4701 17.2699 27.3701 17.2399 27.3201 17.1999V17.3699C27.2101 17.3699 27.1401 17.3899 27.1201 17.3799C27.1301 17.5399 27.7701 17.3999 27.3701 17.6699C27.1401 17.7199 27.1201 17.6299 27.0001 17.5599C26.9401 17.9999 28.4901 17.8499 27.7701 18.3299C28.2001 18.2699 28.3301 18.5899 29.2401 18.2599C28.9301 18.4399 28.2001 18.6299 28.3801 18.8199C29.2101 18.7599 28.1601 19.1399 28.7001 19.1899C27.8201 19.1499 28.4601 19.2199 27.6301 19.2299C27.3201 19.3999 28.4401 19.3899 28.3101 19.6399C28.1201 19.6699 27.8801 19.6899 27.6801 19.7099C27.9601 19.7299 28.6301 19.8499 27.9501 19.8899L28.5301 19.9099C28.2201 20.0299 28.3801 20.2599 27.7201 20.2199C28.0601 20.3599 28.3901 20.5299 28.7201 20.7199C28.1101 20.6599 28.0401 20.7599 28.1901 21.0099C28.3201 21.2599 28.6801 21.6599 29.0301 22.0499C28.9201 22.1399 28.6301 22.1899 28.4301 22.0499C28.3801 21.9799 28.2801 21.8499 28.1801 21.7199C28.0401 21.8499 27.4201 21.6399 28.0901 22.2699C28.2001 22.5899 27.5001 21.9899 27.3101 21.9999C28.0601 23.1199 25.8901 22.1699 27.2501 23.5899C27.3601 23.4799 27.8701 23.5199 28.0201 23.2299C28.1401 23.4499 28.4801 23.6599 28.4301 23.7699C28.2701 24.0699 27.6301 23.6899 27.6401 24.1499L26.7701 23.2599C26.6601 23.2199 26.5801 23.1999 26.5101 23.1899C25.5901 23.3799 27.2901 25.1999 25.8501 24.3699Z" fill="#C8B3A3"/>
<path d="M28.2198 21.4C27.9998 21.35 27.7998 21.29 27.5898 21.23L28.0598 21.5C28.0098 21.41 28.0398 21.36 28.2198 21.4Z" fill="#C8B3A3"/>
<path d="M28.0601 21.51C28.0901 21.58 28.1401 21.66 28.2001 21.75C28.2401 21.72 28.2401 21.67 28.1701 21.58L28.0601 21.51Z" fill="#C8B3A3"/>
<path d="M25.4998 25.02C25.4598 25 25.3998 24.98 25.3598 25C25.3398 25.01 25.3198 25.04 25.3198 25.1C25.3698 25.15 25.4098 25.18 25.4498 25.18C25.5098 25.19 25.5398 25.14 25.4998 25.02Z" fill="#C8B3A3"/>
<path d="M25.48 25.47L25.67 25.61L25.61 25.47H25.6H25.48Z" fill="#C8B3A3"/>
<path d="M19.8599 28.0299L19.9899 28.8699C19.7199 28.5899 19.5999 29.2399 19.3499 28.5999C19.6599 29.4899 18.6699 29.0499 19.5299 30.0499C20.0299 29.4999 20.6399 29.1299 21.1299 28.7599C21.6299 28.3899 21.9099 28.0899 22.0499 27.4199C22.0699 27.5999 22.0999 27.7699 22.1299 27.9499C22.0999 27.4099 22.3399 27.6299 22.4399 27.7799C22.5599 27.9099 22.5699 27.9399 22.7499 26.9099L22.7299 27.9699C22.8599 28.2599 23.1799 26.4599 23.4199 27.5899V27.1599C23.4999 27.1699 23.5199 27.3599 23.5999 27.3699L23.5799 27.1699C23.8199 26.7599 23.9499 26.8199 24.2499 27.1299C24.2799 27.4699 24.1099 27.2699 24.0099 27.3599C24.1599 27.7099 24.3999 26.9999 24.5999 26.9999C24.8099 27.2799 24.6499 27.4799 24.6299 27.6199C24.9799 27.3699 25.2599 27.4999 25.5099 27.4699C25.7499 27.4499 25.9499 27.2599 25.8399 26.4599C25.7499 26.1899 25.4899 26.0199 25.6099 25.8299C25.0999 25.4799 25.1099 26.0999 24.8099 26.5499L24.9099 26.5399C24.9099 27.3099 24.7999 27.2299 24.6999 27.0399C24.5799 26.8499 24.4699 26.5499 24.2399 26.8799C24.3499 26.2599 24.5299 26.2699 24.5599 25.9299C24.2799 25.3499 24.1999 25.5699 24.0499 25.7399C23.9099 25.9099 23.7699 26.0399 23.6799 25.2799L23.7199 25.2399C23.6699 25.0899 23.5299 25.3699 23.4199 25.4999C23.4399 25.6999 23.5299 25.7999 23.5899 25.9499C23.4799 26.0799 23.3899 26.7499 23.3399 27.0299C23.2699 26.3499 23.1799 27.3499 23.0399 27.0099C22.9999 26.3799 23.1999 26.4399 23.2799 26.1099L23.0499 26.5299C22.8699 26.5599 22.8899 25.8399 22.7799 25.5099C22.6199 25.9899 22.8799 25.8499 22.7599 26.5199C22.6699 26.1299 22.3799 25.9999 22.0999 26.0899C21.8199 26.1799 21.5899 26.4799 21.5499 26.8299C21.6299 26.6999 21.3199 26.1999 21.5199 26.2299C21.3999 26.1199 21.3299 26.5099 21.5399 26.9399C21.5099 27.4199 21.1199 27.3099 20.6499 27.0899L20.9799 27.4499C21.2599 28.2299 20.1899 27.2599 20.1299 27.8899H20.1399C20.0999 28.0499 20.6899 29.0599 20.3399 29.0199C20.0799 28.5199 20.2099 28.4899 19.8599 28.0299Z" fill="#C8B3A3"/>
<path d="M19.0302 29.8799C18.9902 29.6499 18.9402 29.4199 18.8902 29.1999C18.6602 29.1599 18.7902 30.0399 19.0002 30.4199C19.0802 30.2299 19.4102 30.3899 19.2602 30.0399C19.1902 29.9599 19.0802 29.7499 19.0302 29.8799Z" fill="#C8B3A3"/>
<path d="M14.8698 30.36C14.7398 30.48 14.6798 30.72 14.5798 30.88C15.0798 31.04 15.7198 31.06 16.2198 31.06C16.7198 31.07 17.0998 31.08 17.3398 31.31C17.7098 31.45 17.5898 30.45 17.8698 30.14C17.9798 30.34 18.0898 30.54 18.2198 30.74C18.2898 30.29 19.1398 30.73 18.5198 29.79C18.4698 29.71 18.5498 30.34 18.3198 30.21L18.2198 29.84C18.1198 29.92 18.0098 30 17.9098 30.08L17.8898 29.59C17.2898 29.04 17.9098 31.09 17.1198 30.76L16.9998 29.8C16.6198 29.79 16.3798 30.12 16.0698 29.52C16.0698 29.52 16.0298 30 16.1098 29.81C16.1698 29.87 16.2498 30.25 16.1898 30.54C15.3998 31.23 16.3298 29.99 15.9098 29.55C15.6098 29.86 15.1398 30.05 14.7198 30.01C14.3098 29.97 13.9998 29.7 14.0998 29.27C14.0298 29.94 13.3398 30.24 13.0798 29.9C13.1698 29.51 13.5198 29.52 13.7198 29.32C13.6798 29.12 13.7398 28.85 13.5698 28.85C13.3398 29.42 12.8298 29.91 12.2798 29.8C12.3998 30.4 12.9398 30.53 13.4698 30.45C14.0098 30.37 14.4998 30.17 14.8698 30.36Z" fill="#C8B3A3"/>
<path d="M14.35 31.03C14.45 31.04 14.52 30.97 14.58 30.88C14.46 30.85 14.34 30.8 14.23 30.76L14.35 31.03Z" fill="#C8B3A3"/>
</g>
</g>
<defs>
<clipPath id="clip0_809_319">
<rect width="31.18" height="31.18" fill="white" transform="translate(0.5 0.5)"/>
</clipPath>
</defs>
</svg>
