<svg width="58" height="58" viewBox="0 0 58 58" fill="none" xmlns="http://www.w3.org/2000/svg">
<path d="M35.8901 4.49005C35.0801 4.24005 25.1401 3.18005 23.7001 3.15005C20.8301 3.09005 18.5201 4.49005 16.5801 6.54005C15.8701 7.30005 15.1501 8.06005 14.4001 8.77005C13.2901 9.82005 11.9801 10.71 11.0601 11.9C10.2201 12.99 6.96009 19.03 6.60009 21.09C6.26009 23.02 5.98009 24.96 5.69009 26.89C5.42009 28.68 5.39009 30.46 5.81009 32.24C6.66009 35.84 8.34009 39.0701 10.2301 42.2201C11.6101 44.5301 13.1501 46.7001 15.3001 48.3601C15.9901 48.8901 16.9301 49.1401 17.5601 49.7201C18.8201 50.8901 20.2401 51.39 21.8801 51.03C22.8901 50.81 23.6401 51.21 24.5001 51.57C25.4001 51.96 26.4001 52.28 27.3701 52.3C29.1601 52.34 30.9601 52.1701 32.7401 52.0201C33.6701 51.9401 34.6401 51.82 35.5101 51.5C37.6701 50.71 39.2301 49.1201 40.5801 47.3301C41.2601 46.4301 41.9101 45.54 43.1201 45.3C46.0401 44.72 47.7801 42.81 48.8401 40.16C49.3101 39 49.6401 37.78 50.1701 36.66C50.8501 35.22 50.8601 31.39 51.1901 30.72C52.2701 28.51 51.9901 26.2301 51.6501 23.9401C51.5601 23.3601 51.3701 22.79 51.3101 22.21C51.1001 20.45 50.4901 18.82 48.9501 17.91C48.0201 17.36 47.9801 16.77 48.0501 15.91C48.1601 14.63 47.9201 13.46 46.9401 12.5C46.1501 11.73 45.4801 10.83 44.7001 10.05C42.1701 7.56005 39.3401 5.54005 35.8901 4.49005Z" fill="#E8DBC1"/>
<path d="M41.6899 28.1L41.7199 28.32L42.0099 28.05L41.6899 28.1Z" fill="#C7B5B7"/>
<path d="M41.3402 29.69L41.6602 29.75C42.2802 28.78 42.2302 29.17 42.4402 28.27C42.2102 28.31 41.6902 28.39 41.4302 28.75C41.5402 28.79 41.9502 28.56 41.9802 28.77C41.7102 28.97 41.6102 28.83 41.2602 29.1C41.2302 29.54 41.5702 29 41.6902 29.3L41.3402 29.69Z" fill="#C7B5B7"/>
<path d="M42.3399 29.04C42.1899 29.17 42.0399 29.3 41.9399 29.43C42.0899 29.3 42.3499 29.2 42.3399 29.04Z" fill="#C7B5B7"/>
<path d="M42.5397 29.06C42.6497 29.21 42.2597 29.38 42.2397 29.44L42.8697 29.01L42.5397 29.06Z" fill="#C7B5B7"/>
<path d="M43.0698 29.58C43.0998 29.58 43.1398 29.59 43.1798 29.58C43.2298 29.47 43.1498 29.53 43.0698 29.58Z" fill="#C7B5B7"/>
<path d="M43.3998 29.7501C43.5098 29.5101 43.3398 29.5701 43.1798 29.5801C43.1698 29.5901 43.1698 29.6001 43.1598 29.6201C43.0998 29.8501 42.6798 30.1901 42.6498 29.9701C42.4398 29.9501 42.7898 29.5701 42.4598 29.7301L42.3398 30.1901C42.5698 30.3101 43.1798 29.8301 43.3998 29.7501Z" fill="#C7B5B7"/>
<path d="M43.0701 29.58C43.0301 29.58 43.0001 29.57 42.9801 29.54C42.9501 29.63 43.0001 29.61 43.0701 29.58Z" fill="#C7B5B7"/>
<path d="M42.8301 29.29L42.6901 29.31L42.5601 29.5L42.8301 29.29Z" fill="#C7B5B7"/>
<path d="M43.8799 30.1101C43.3799 30.6201 43.6099 29.7701 43.2099 30.1601C43.4099 30.2901 43.1999 30.8101 42.8999 31.0701H43.2399C43.4799 30.9201 43.7599 30.4601 43.8799 30.1101Z" fill="#C7B5B7"/>
<path d="M43.0298 31.7801C43.0798 31.7501 43.1298 31.7301 43.1498 31.7301C43.1098 31.7401 43.0698 31.7501 43.0298 31.7801Z" fill="#C7B5B7"/>
<path d="M44.7699 31.8C44.4599 31.81 44.1499 31.84 43.8599 31.87C44.0599 31.74 44.2099 31.57 44.3599 31.61C44.2499 31.35 43.8999 31.66 43.7999 31.46C44.2199 30.94 44.0999 31.69 44.4299 31.18C44.3099 31.08 44.1199 30.94 43.6399 31.27L43.7699 30.77L43.3399 31.36C43.2599 31.58 43.8699 31.07 43.5699 31.48C43.3799 31.73 43.2699 31.71 43.1699 31.72C43.3799 31.72 43.0599 32.41 43.3199 32.53C43.5599 32.7 44.3599 31.87 44.7699 31.8Z" fill="#C7B5B7"/>
<path d="M44.1797 32.34L43.9897 32.56L44.2597 32.29L44.1797 32.34Z" fill="#C7B5B7"/>
<path d="M45.3002 32.2101L44.7502 32.2601C44.7802 32.2001 44.8902 32.0801 44.9702 31.9801C44.8502 32.0901 44.5802 32.2201 44.4802 32.3201C44.0502 32.8401 44.8602 32.4501 45.0502 32.5101C45.0402 33.0101 44.7502 32.7101 44.3302 33.1901C44.2902 33.1001 44.4202 33.0001 44.3602 32.8601C43.9002 33.4801 44.5902 33.2801 44.8302 33.3201C44.8602 33.2501 45.0302 33.1401 44.9402 33.1001L45.2102 33.1201C45.5802 32.7201 45.6102 32.4901 45.3002 32.2101Z" fill="#C7B5B7"/>
<path d="M44.9502 31.7901C45.0602 31.8401 45.0502 31.9101 44.9902 31.9801C45.1102 31.8401 45.1802 31.7201 44.9502 31.7901Z" fill="#C7B5B7"/>
<path d="M44.8998 33.3801C44.9298 33.3501 44.8998 33.3301 44.8398 33.3301C44.8298 33.3601 44.8398 33.3801 44.8998 33.3801Z" fill="#C7B5B7"/>
<path d="M45.4897 32.85C45.5097 32.92 45.5297 32.99 45.5397 33.06L45.7697 32.83C45.7197 32.82 45.6197 32.76 45.4897 32.85Z" fill="#C7B5B7"/>
<path d="M44.0398 40.3901C44.2998 40.4601 44.4398 40.4501 44.3998 40.3601C44.7598 40.4201 44.6598 40.5401 44.8398 40.6601C45.1098 40.5601 45.2398 40.7801 45.5898 40.8301C45.6898 40.5701 45.2398 40.4101 45.3398 40.1801C45.4398 40.1901 45.5998 40.2001 45.7198 40.1601C45.4998 39.8201 45.0998 39.3201 45.3998 38.9601C45.5198 38.6401 45.3598 38.41 45.2798 38.01C45.7298 36.86 46.1398 35.84 46.4498 34.7801C46.2198 34.7201 45.9798 34.6801 45.7498 34.6501C46.0998 34.5901 45.7298 34.4401 46.1798 34.4101C46.0998 34.4801 46.1798 34.5201 46.1898 34.5901C46.7798 34.2901 46.0698 33.99 46.1798 33.69C46.0698 33.76 45.5098 33.9801 45.3798 33.9501C46.1198 33.7101 45.2798 33.7001 46.0498 33.2701C46.1298 32.9101 45.4398 33.5501 45.4198 33.2501C45.0098 33.4401 45.3398 33.58 45.0398 33.76C44.6798 33.85 45.0898 33.5001 44.6598 33.7301C44.6398 33.9401 44.8898 34.0501 45.1898 34.2401C45.4898 34.4201 45.8298 34.7201 45.9098 35.0501L45.4898 34.9501C45.7998 35.2401 45.6298 35.8101 44.8598 35.8001C45.2698 35.8801 44.4398 36.2201 45.3098 36.5501C45.0698 36.5601 45.0898 36.6001 44.9598 36.7101L45.2198 36.8601C45.1298 37.0601 44.7198 36.8601 44.6498 37.1301C45.0898 37.1001 45.1298 37.3301 45.4198 37.5001C44.9098 37.6201 44.4198 37.9101 44.0198 38.2501C44.1498 38.2401 44.2998 38.2201 44.4898 38.1301C44.3198 38.3401 44.7098 38.3401 44.8398 38.4101C44.8498 38.6001 44.3298 38.5701 44.0698 38.5401C43.8998 38.9701 44.8998 39.0601 44.5898 39.3101L44.9898 39.2001C45.1098 39.5101 44.6898 39.7901 44.8298 40.0501C44.2698 40.1801 44.3398 39.8601 44.0798 39.7501C43.9698 39.8201 43.9398 39.9301 43.7598 39.9701C44.0498 40.0501 44.4498 40.2001 44.7098 40.3401C44.0798 40.2001 44.0898 40.3901 44.0398 40.3901Z" fill="#C7B5B7"/>
<path d="M43.7798 39.97C43.6898 39.94 43.6198 39.92 43.5498 39.91C43.5898 39.93 43.6298 39.95 43.5998 39.98C43.6698 39.99 43.7298 39.98 43.7798 39.97Z" fill="#C7B5B7"/>
<path d="M44.04 40.39C44.02 40.38 44 40.38 43.98 40.38C44.02 40.39 44.03 40.4 44.04 40.39Z" fill="#C7B5B7"/>
<path d="M45.4401 38.92C45.4301 38.93 45.4201 38.95 45.4101 38.97C45.4001 38.99 45.4101 39.01 45.3901 39.03L45.4401 38.92Z" fill="#C7B5B7"/>
<path d="M43.5698 38.62C43.7098 38.53 43.8698 38.39 44.0398 38.26C43.8498 38.27 43.6898 38.3 43.5698 38.62Z" fill="#C7B5B7"/>
<path d="M44.7202 36.1401C44.6802 36.0501 44.5502 36.0401 44.4502 35.9401C44.3702 36.0501 44.4802 36.1401 44.7202 36.1401Z" fill="#C7B5B7"/>
<path d="M43.6699 40.17C43.7099 40.21 43.7499 40.24 43.7899 40.26L43.8899 40.3L43.6699 40.17Z" fill="#C7B5B7"/>
<path d="M43.0501 44.56C43.5701 44.7 43.5401 44.26 43.7901 44.1C43.9101 43.55 43.0001 43.37 43.2501 42.97L43.9801 43.67C44.2301 43.27 44.8201 42.87 44.3801 42C44.5001 42.05 44.6701 42.08 44.7101 42.27C44.8701 42 43.6901 41.24 44.1701 41.16C44.4701 41.81 44.7201 41.42 45.1801 41.86L45.2001 41.95C45.3201 41.68 45.2101 41.2 45.3101 41.08C45.0701 40.98 44.6701 40.91 44.7001 40.74C44.6301 40.78 44.3701 40.64 44.1301 40.53C44.3401 40.76 44.1401 40.76 44.3701 41.03C44.0301 40.93 44.3101 40.92 43.9801 40.82C44.0401 40.91 44.1001 41.02 44.1601 41.12C44.0301 41.16 43.9501 40.83 43.7901 40.93C43.9401 41.06 44.0201 41.31 43.8801 41.41L43.8201 41.3C43.8501 41.48 43.6001 41.52 44.0801 41.83L43.5401 41.6L43.8601 41.82C43.5101 42.01 42.7101 41.54 42.7801 42.21C42.9401 42.19 43.0401 42.4 43.0601 42.5C43.3901 42.51 42.9901 42.13 43.0701 41.95C43.3801 42.17 43.5401 42.71 43.8601 42.67C43.3501 42.58 43.6101 43.07 42.8001 42.56C42.5601 42.76 42.8501 43.14 42.4901 43.24L42.3901 43.14C42.8401 43.58 42.0101 43.15 42.3701 43.74L42.5801 43.7C42.7801 43.87 42.7301 43.94 42.7001 44.05C42.6301 43.98 42.6301 43.98 42.5101 43.93C42.8401 44.24 42.6801 44.56 42.7601 44.68C42.9101 44.62 42.7301 44.24 42.7501 44.03C42.8901 44.28 43.2101 44.5 43.0501 44.56Z" fill="#C7B5B7"/>
<path d="M43.7002 41.1001L43.8202 41.3001C43.8102 41.2501 43.7802 41.1901 43.7002 41.1001Z" fill="#C7B5B7"/>
<path d="M41.5702 45.12C41.3702 45.21 41.3002 44.83 41.0302 44.85C41.1502 45.2 41.6802 45.08 41.9202 45.53C41.6302 45.45 41.8802 45.9 41.8402 45.96C41.6902 45.72 41.1802 45.38 41.0602 45.33C41.1402 45.49 40.8102 45.43 40.7102 45.52C41.2002 45.52 40.7202 45.87 41.2202 45.91C41.4802 46.15 41.5002 46.55 41.2102 46.47C41.0102 46.3 41.1202 46.26 41.1602 46.19C40.8202 45.83 40.8302 46.18 40.4502 45.93C40.7902 46.59 40.1602 47.3 41.1802 47.78C41.4102 47.83 41.2602 47.6 41.2902 47.48C40.9202 47.58 40.8402 47.12 40.7002 46.97C40.9202 46.98 40.7902 46.58 41.0602 46.87L41.2502 47.29C41.8402 46.9 42.3602 46.14 42.7202 45.43L42.5002 45.69C42.2902 45.47 42.3802 45.34 42.3402 45.15L41.6702 44.82C41.7702 44.78 41.7502 44.64 41.9402 44.81C41.7802 44.53 41.6002 44.45 41.3602 44.35C41.4202 44.08 41.6602 44.22 41.4202 43.77C40.7002 43.72 41.5802 44.35 40.8802 44.39L41.5702 45.12Z" fill="#C7B5B7"/>
<path d="M41.8301 44.17L42.0501 44.47L42.0101 44.24L41.8301 44.17Z" fill="#C7B5B7"/>
<path d="M42.97 45.3C42.84 45.2 42.83 45.11 42.7 45.01C42.49 45.09 42.68 45.22 42.97 45.3Z" fill="#C7B5B7"/>
<path d="M40.27 46.1101L40.21 46.3801L40.42 46.3401C40.3 46.2501 40.28 46.1601 40.27 46.1101Z" fill="#C7B5B7"/>
<path d="M40.6398 48.6601C40.7998 48.3401 40.6298 48.0101 41.1698 47.9401C40.9198 47.4901 40.4198 47.4501 40.1398 47.1101C39.9398 47.2001 40.5798 47.6801 40.5698 47.9401C40.2098 47.7401 40.4598 48.2301 40.2598 48.3201C40.3898 48.4101 40.5398 48.5301 40.6398 48.6601Z" fill="#C7B5B7"/>
<path d="M38.6701 48.6C38.5701 48.72 38.7101 49.05 38.4801 49.02C38.2901 48.84 38.2801 48.71 38.3901 48.68C37.9001 48.36 38.3501 48.87 37.9401 48.76C38.0001 48.79 38.1101 48.8 38.1801 48.92C37.8101 49.16 38.4001 49.41 37.8001 49.61C37.8701 49.77 37.8201 49.83 38.1201 50.07C37.5501 49.98 37.6501 49.87 37.0901 49.85C37.2701 49.99 37.7301 50.25 38.0901 50.57C37.2301 50.5 37.7801 51.04 37.1801 50.92C37.1901 50.87 37.1301 50.76 37.2401 50.74C36.7301 50.29 37.1301 51.02 36.9001 51.05L36.5201 50.61C36.4701 50.78 36.5001 51.26 36.0801 51.04L35.9401 50.79C35.9101 51.38 35.4101 51.45 35.2101 51.77C35.1101 51.69 35.0101 51.6 34.9101 51.5C34.6601 52.06 35.4001 51.53 35.4401 52.43C34.9801 51.48 35.3201 52.84 34.8801 52.55C34.6301 52.19 35.0801 52.25 34.7801 51.84C34.9001 52.37 34.7001 52.03 34.6101 52.23C34.5001 51.73 34.3101 52.25 34.2601 51.66C34.1901 51.99 34.0801 52.33 33.9501 52.68C33.8301 52.41 33.6901 52.48 33.5801 52.55C33.8801 52.54 33.5401 53.33 33.9301 53.53C34.4701 53.22 35.2201 52.85 35.9401 52.78C35.6701 52.13 36.3201 52.58 36.1101 52.03C36.2401 52.21 36.3901 52.35 36.5201 52.53C36.7901 52.16 36.2201 52.26 36.1701 51.99C36.2601 51.82 36.6201 52.08 36.7601 52.3C37.0301 52.15 36.6801 52.12 36.5601 51.73C36.7701 51.9 36.9801 52.06 37.1901 52.22C37.8201 51.41 38.1801 50.19 39.1601 49.68L38.7301 49.43C39.2301 49.24 38.3801 48.15 39.4401 48.5L39.2001 48.13C39.3401 48.34 39.8201 48.53 40.0001 48.83C39.9501 48.63 40.1801 48.64 40.1401 48.45L39.8201 48.48C39.6001 48.1 39.9101 48.12 40.2201 48.31C40.0501 47.73 39.4401 47.94 39.0701 47.74C39.4701 48.68 38.0801 47.56 38.0801 48.16C38.1501 48.57 38.4801 48.43 38.6701 48.6Z" fill="#C7B5B7"/>
<path d="M40.08 48.9801C40.07 48.9301 40.05 48.8901 40.02 48.8401C40.03 48.8801 40.04 48.9201 40.08 48.9801Z" fill="#C7B5B7"/>
<path d="M33.5999 52.5601C33.5699 52.5601 33.5299 52.5701 33.4699 52.5901C33.4299 52.7201 33.4999 52.6301 33.5999 52.5601Z" fill="#C7B5B7"/>
<path d="M39.4701 47.39L39.3701 47.48L39.5601 47.6L39.4701 47.39Z" fill="#C7B5B7"/>
<path d="M32.3999 51.91L32.3599 52.16C32.3899 52.08 32.3999 52 32.3999 51.91Z" fill="#C7B5B7"/>
<path d="M29.1802 50.7701L29.2502 50.8101C29.2402 50.7701 29.2202 50.7601 29.1802 50.7701Z" fill="#C7B5B7"/>
<path d="M20.2001 49.6401C19.9901 49.8401 19.7201 50.0501 19.6201 50.5001L19.5901 50.2501C19.5001 50.3901 19.1501 50.8701 19.5001 51.2701L19.5301 51.0401C19.7601 50.6101 19.8301 51.4101 20.1101 51.5301C20.3701 51.3501 20.3301 50.3801 20.6201 50.5501C20.7201 50.5001 20.7501 50.7601 20.7601 50.9501C21.0101 50.9701 20.9701 50.2301 21.1301 50.1101C21.3201 51.0601 21.4601 50.9001 21.6501 50.6601C21.8301 50.4101 22.1001 50.1001 22.2801 50.7201C22.5001 50.5601 22.7701 50.7201 23.0901 50.3901C22.8901 50.8501 23.3501 50.4601 23.2201 50.9901C23.4701 49.8701 23.9001 51.6201 24.2401 50.2401C24.5401 50.7201 24.2801 50.1401 24.6501 50.5901C24.6101 50.7401 24.5301 50.7201 24.5001 50.7401C24.5901 51.0701 24.9301 50.2301 24.9001 50.9001C25.2201 51.1001 25.0701 50.5501 25.4001 50.2501C25.7301 50.5301 25.5601 50.6801 25.5701 51.3101C25.8201 50.6801 25.9301 51.0601 26.2401 50.8001C26.2101 50.7501 26.0001 50.5401 26.2501 50.3601C26.6501 50.6201 26.7501 50.0701 27.2301 50.0601C27.1701 50.8301 26.8201 49.9201 26.9601 50.6101C26.5801 50.8301 26.4001 50.7301 26.0801 51.1901C26.4001 51.3601 26.8501 51.4001 27.3401 51.2601C27.5101 51.4401 27.1001 51.5401 27.2401 51.6701C27.4801 52.1201 28.0901 51.1901 28.2601 51.6201L28.0601 51.9501C28.4301 51.5501 28.6601 52.3201 29.1101 52.1901C29.1401 51.9901 29.1601 51.8601 29.2501 51.7601C28.9001 52.6601 29.9001 51.4801 30.0001 52.2301C30.1801 51.6401 30.6101 51.4301 30.8201 51.4401C30.8401 51.6201 30.7501 51.8601 30.7001 52.0101C30.4801 51.5601 30.1701 52.5401 29.7901 52.7101C30.1201 52.4901 30.4001 52.9401 30.7401 52.5701L30.5201 53.0101C30.8401 53.1801 31.1001 52.0501 31.3101 52.5801L31.1901 52.9101C31.5401 52.9601 31.8901 53.2001 32.2601 53.3001C32.6301 53.3901 33.0201 53.4001 33.3001 52.9801C33.3401 52.6901 33.0801 52.0101 33.0901 51.7901C32.8101 52.0301 32.5801 52.5101 32.3001 52.7401L32.3801 52.1901C32.2801 52.5701 31.9401 52.7301 32.0601 53.0601C31.8001 53.3001 31.9901 52.5501 31.7001 52.8101C31.8401 52.2501 31.9801 52.2101 32.0701 51.7401L31.8301 51.9801C31.9301 51.7701 31.7601 51.7701 31.8701 51.5601C31.3701 52.1801 31.4701 51.1801 31.0501 51.3901L31.2201 51.5401C31.1301 51.8501 31.0301 51.7901 30.9101 51.8501C30.9401 51.3901 30.8701 51.4401 30.7501 51.1801C30.5201 51.3701 30.2401 51.8801 30.0201 51.8001C30.2701 51.2401 29.7701 51.3601 29.9101 50.8601C29.6501 51.4101 29.4201 50.9001 29.2601 51.2201C29.1001 51.2901 28.9601 51.1701 29.0801 50.8701C29.1001 50.8601 29.1601 50.8201 29.2101 50.8101L29.1001 50.7401C29.1401 50.6801 29.1501 50.6301 29.1701 50.6201C29.0701 50.5601 28.9101 50.9801 28.8801 50.6401C28.9401 50.4901 29.0101 50.5201 29.1001 50.4901C28.8601 50.2801 28.2701 51.1501 28.2401 50.5401C28.0801 50.7901 27.7501 50.6801 27.5801 51.3101C27.5801 51.0601 27.8001 50.6001 27.5301 50.5901C27.1901 51.0401 27.3401 50.3001 27.0301 50.5501C27.4801 50.1101 27.0901 50.4001 27.5001 49.9801C27.4101 49.7001 26.9001 50.2901 26.6501 50.0901C26.6701 49.9601 26.7201 49.8101 26.7401 49.6701C26.5601 49.8101 26.2901 50.1901 26.3301 49.7201L26.2101 50.0901C26.0701 49.8401 25.7601 49.8501 25.6601 49.3801L25.1801 50.0101C25.0601 49.1501 24.3701 49.7001 23.9801 50.3201C23.8701 50.2601 23.7001 50.0901 23.7301 49.9301C23.7701 49.8801 23.8401 49.7801 23.9101 49.6901C23.7301 49.6101 23.5401 49.1801 23.3501 49.7701C23.1301 49.9301 23.2501 49.3301 23.1101 49.2201C22.8701 49.6201 22.5901 49.4601 22.3101 49.3601C22.0401 49.2601 21.7801 49.2101 21.7801 49.8801C21.9401 49.8601 22.2501 50.1401 22.5501 50.0801C22.4701 50.2401 22.5201 50.5001 22.4201 50.5301C22.1501 50.6001 21.9701 50.0901 21.7001 50.3401L21.6601 49.5001C20.9501 48.6801 20.8201 50.7401 20.2001 49.6401Z" fill="#C7B5B7"/>
<path d="M24.2598 49.62L24.1098 49.16L24.0698 49.52C24.1498 49.47 24.2298 49.49 24.2598 49.62Z" fill="#C7B5B7"/>
<path d="M24.0702 49.52C24.0202 49.55 23.9602 49.6 23.9102 49.66C23.9602 49.68 24.0102 49.67 24.0602 49.61L24.0702 49.52Z" fill="#C7B5B7"/>
<path d="M19.3799 49.9501C19.3299 49.9201 19.2299 49.8801 19.1499 49.9801C19.2299 50.0701 19.3599 50.0801 19.3799 49.9501Z" fill="#C7B5B7"/>
<path d="M19.1802 50.24L19.3102 50.35V50.26L19.1802 50.24Z" fill="#C7B5B7"/>
<path d="M13.3 48.29C13.09 48.27 12.87 48.25 12.66 48.21C12.85 48.02 12.37 47.78 12.83 47.7C12.18 47.77 12.51 47.05 11.79 47.58C12.17 48.06 12.46 48.74 12.94 49.35C13.4 49.96 14.07 50.51 14.89 50.59L14.5 50.74C15.02 50.68 15.12 50.97 15.3 51.18C15.46 51.39 15.71 51.53 16.23 50.98L15.91 51.61C16.05 51.77 16.31 51.59 16.53 51.45C16.75 51.32 16.92 51.23 17.05 51.63L17.06 51.34C17.15 51.35 17.17 51.49 17.27 51.5L17.25 51.37C17.53 51.12 17.65 51.16 17.89 51.36C17.9 51.58 17.78 51.46 17.7 51.51C17.81 51.75 18.01 51.27 18.18 51.26C18.33 51.45 18.19 51.58 18.17 51.68C18.7 51.34 19.05 52.04 19.24 50.94C19.24 50.75 19.06 50.61 19.22 50.49C18.86 50.22 18.68 50.66 18.39 50.97L18.47 50.96C18.29 52 18.27 50.75 17.89 51.19C18 50.78 18.16 50.78 18.22 50.55C17.99 50.17 17.87 50.32 17.73 50.43C17.6 50.55 17.45 50.63 17.39 50.11L17.42 50.08C17.38 49.97 17.25 50.15 17.15 50.22C17.15 50.35 17.23 50.44 17.28 50.54C17.17 50.63 17.04 51.05 16.96 51.23C16.93 50.76 16.74 51.42 16.59 51.14C16.63 50.72 16.85 50.82 16.96 50.61C16.87 50.69 16.77 50.76 16.67 50.83C16.46 50.8 16.6 50.34 16.59 50.09C16.33 50.34 16.61 50.34 16.33 50.71C16.28 50.16 15.49 49.93 14.89 49.95C15.05 50 15.2 49.63 15.31 49.78C15.31 49.67 15 49.71 14.8 49.95C14.37 49.98 14.19 49.53 14.22 49.12L14.04 49.4C13.45 49.57 13.93 48.67 13.44 48.52V48.53C13.31 48.46 12.58 48.79 12.57 48.46C12.93 48.37 12.98 48.51 13.3 48.29Z" fill="#C7B5B7"/>
<path d="M11.9298 47.2401L12.3998 47.2001C12.4298 47.0201 11.8298 47.0501 11.5698 47.1901C11.6998 47.2601 11.5698 47.4701 11.8198 47.3901C11.8598 47.3501 12.0098 47.2901 11.9298 47.2401Z" fill="#C7B5B7"/>
<path d="M11.04 44.4801C10.93 44.4501 10.77 44.5001 10.64 44.5001C10.81 45.0701 11.18 45.7601 10.91 46.1001C10.85 46.3501 11.5 46.1901 11.73 46.3901L11.34 46.6501C11.66 46.6901 11.35 47.2801 11.99 46.8701C12.04 46.8301 11.62 46.8801 11.7 46.7101L11.95 46.6401L11.77 46.4101L12.1 46.3901C12.42 45.9001 11.1 46.4301 11.25 45.8901L11.87 45.7201C11.82 45.4201 11.57 45.3301 11.89 44.9801C11.89 44.9801 11.57 45.0501 11.71 45.0701C11.69 45.1301 11.45 45.2501 11.26 45.2601C10.66 44.9301 11.65 45.2401 11.83 44.8701C11.31 44.6001 10.8 43.9501 11.27 43.6601C10.92 43.9101 10.47 43.7301 10.46 43.5101C10.67 43.3701 10.85 43.5001 11.05 43.5001C11.1 43.3901 11.24 43.2801 11.13 43.2101C10.8 43.4001 10.31 43.4101 10.06 43.2301C9.77998 43.8001 11.01 43.9701 11.04 44.4801Z" fill="#C7B5B7"/>
<path d="M10.48 44.44C10.51 44.49 10.57 44.5 10.64 44.5C10.62 44.43 10.6 44.36 10.58 44.3L10.48 44.44Z" fill="#C7B5B7"/>
<path opacity="0.37" d="M39.7402 37.67C38.1502 37.34 36.5602 36.99 34.9802 36.62C33.7502 36.33 32.5302 36.04 31.3102 35.71C30.5702 35.51 28.9602 35.33 28.3902 34.79C27.7602 34.2 29.5802 32.06 29.9802 31.45C30.7402 30.28 31.5102 29.11 32.2802 27.94C32.8802 27.02 33.4902 26.1 34.0702 25.17C34.1602 25.02 34.5802 24.53 34.5602 24.26C34.5602 24.24 34.5602 24.22 34.5502 24.2C34.5502 24.19 34.5502 24.19 34.5502 24.18C34.5402 24.17 34.5302 24.17 34.5202 24.16C34.5102 24.15 34.5002 24.14 34.4902 24.14C34.4602 24.12 34.4302 24.12 34.4002 24.12C34.3902 24.12 34.3902 24.12 34.3802 24.12C34.3502 24.13 34.3402 24.14 34.3202 24.16C34.3102 24.17 34.3002 24.17 34.2902 24.18C33.5102 25.26 32.7202 26.33 31.9302 27.4C31.2202 28.35 30.5102 29.31 29.8002 30.26C29.4102 30.78 29.0202 31.29 28.6302 31.81C28.4502 32.05 27.4602 33.49 27.4302 33.49C27.4002 33.49 27.4102 33.5 27.4202 33.51C27.4102 33.5 27.3902 33.49 27.3602 33.46C27.3002 33.41 27.2302 33.18 27.1902 33.12C27.0402 32.79 26.9002 32.46 26.7602 32.12C26.4002 31.26 26.0602 30.38 25.7202 29.51C25.1902 28.16 24.6902 26.78 24.1202 25.45V25.44C24.1102 25.43 24.1102 25.41 24.1002 25.4C24.0302 25.24 23.7502 25.35 23.8102 25.52C24.2402 26.74 24.6502 27.97 25.0502 29.2C25.3402 30.1 25.6302 30.99 25.9002 31.9C26.0002 32.24 26.5602 33.48 26.3902 33.81C26.0702 34.44 22.4702 32.74 21.9402 32.53C21.1802 32.22 20.4202 31.89 19.6402 31.61C19.4102 31.53 18.9102 31.26 18.6702 31.41C18.6002 31.46 18.5702 31.55 18.6102 31.63C18.8102 32.01 19.9102 32.26 20.2702 32.4C21.5402 32.91 22.8202 33.4 24.0702 33.96C24.4302 34.12 25.0402 34.3 25.3302 34.59C25.6302 34.9 25.5202 34.88 25.1002 35.1C24.0302 35.65 22.7702 35.93 21.6202 36.24C20.2802 36.6 18.9302 36.93 17.5902 37.26C17.2002 37.36 15.6602 37.48 15.4002 37.83C15.1902 38.12 15.4302 38.13 15.6802 38.17C16.5102 38.3 17.7102 37.84 18.5102 37.67C19.9302 37.38 21.3402 37.07 22.7502 36.75C23.0002 36.69 25.7802 35.87 25.8902 36.07C26.0302 36.31 24.5902 38.34 24.4402 38.6C23.7202 39.84 22.9902 41.08 22.2702 42.33C22.1002 42.63 20.0202 45.84 20.5102 46.05C21.0002 46.26 23.0502 42.43 23.2702 42.07C24.0802 40.76 24.8902 39.45 25.7202 38.15C25.9602 37.79 26.3902 36.69 26.9402 37.24C27.3002 37.59 27.4702 38.72 27.6402 39.19C28.5602 41.75 29.4802 44.31 30.4102 46.88C30.4802 47.07 30.7602 47 30.7102 46.8C30.2702 44.68 29.3902 42.62 28.7302 40.56C28.3602 39.41 27.9802 38.24 27.7402 37.06C27.6402 36.55 27.3302 35.77 28.1102 35.66C28.3602 35.62 28.7602 35.79 29.0102 35.84C32.5602 36.56 36.1202 37.27 39.6702 37.99C39.8602 38.01 39.9402 37.71 39.7402 37.67Z" fill="white"/>
</svg>
