<!-- Generator: Adobe Illustrator 23.0.3, SVG Export Plug-In  -->
<svg version="1.1" xmlns="http://www.w3.org/2000/svg" xmlns:xlink="http://www.w3.org/1999/xlink" x="0px" y="0px" width="58.9px"
	 height="58.8px" viewBox="0 0 58.9 58.8" style="enable-background:new 0 0 58.9 58.8;" xml:space="preserve">
<style type="text/css">
	.st0{fill:#708371;}
	.st1{opacity:0.5;}
	.st2{fill:#FFFFFF;}
	.st3{opacity:0.72;}
	.st4{fill:#928575;}
</style>
<defs>
</defs>
<path class="st0" d="M56.7,33.5l-9.6,17.1c-4.3,7.7-14.2,10.5-21.9,6.1L8.2,47.2C0.5,42.8-2.3,33,2.1,25.3l9.6-17.1
	C16,0.5,25.8-2.3,33.5,2.1l17.1,9.6C58.3,16,61.1,25.8,56.7,33.5z"/>
<g class="st1">
	<g>
		<g>
			<path class="st2" d="M33.9,27.7c-5.2-0.4-10.1,0.8-14.5,3.4c-0.2,0.1,0,0.5,0.2,0.4c4.4-2.6,9.2-3.8,14.3-3.4
				C34.2,28.2,34.2,27.8,33.9,27.7L33.9,27.7z"/>
		</g>
	</g>
	<g>
		<g>
			<path class="st2" d="M32.3,27.2c-0.2,6.4,0.8,12.5,3.3,18.4c0.1,0.3,0.5,0.1,0.4-0.1c-2.4-5.9-3.6-12-3.3-18.3
				C32.8,26.9,32.3,26.9,32.3,27.2L32.3,27.2z"/>
		</g>
	</g>
	<g>
		<g>
			<path class="st2" d="M33.2,27c5.1,2.7,10.2,5.5,15.2,8.2c0.3,0.1,0.5-0.3,0.2-0.4c-5.1-2.7-10.2-5.5-15.2-8.2
				C33.1,26.5,32.9,26.8,33.2,27L33.2,27z"/>
		</g>
	</g>
	<g>
		<g>
			<path class="st2" d="M34.4,25.2c3.5-3.2,7-6.4,10.4-9.7c0.2-0.2-0.1-0.5-0.3-0.3c-3.5,3.2-7,6.4-10.4,9.7
				C33.8,25.1,34.1,25.4,34.4,25.2L34.4,25.2z"/>
		</g>
	</g>
	<g>
		<g>
			<path class="st2" d="M33.6,25.4c-1.6-4.9-5.9-8.2-11-8.6c-0.3,0-0.3,0.4,0,0.4c4.9,0.3,9.1,3.6,10.6,8.3
				C33.3,25.8,33.7,25.7,33.6,25.4L33.6,25.4z"/>
		</g>
	</g>
</g>
<g class="st3">
	<g>
		<g>
			<g>
				<g>
					<path class="st4" d="M7.8,14.9l0.1-0.4c-0.2,0-0.4,0-0.5,0C7.5,14.6,7.6,14.7,7.8,14.9z"/>
					<path class="st4" d="M9.4,13.5c-0.1-0.1-0.1-0.2-0.1-0.4c-0.7-0.1-1-0.2-1.2-0.2c-0.2,0-0.4,0-1,0.5c0.1,0.2,0.3,0.5,0.5,0.7
						c0.2,0.2,0.5,0.3,0.8,0.2c-0.1-0.1-0.2-0.2-0.3-0.3C8,13.8,7.9,13.6,8,13.5C8.4,13.6,8.4,14,8.9,14c0.4-0.4-0.4-0.2-0.1-0.6
						L9.4,13.5z"/>
					<path class="st4" d="M8.1,12.6c0.2,0.1,0.5,0.3,0.7,0.3C8.6,12.8,8.4,12.5,8.1,12.6z"/>
					<path class="st4" d="M8.1,12.3c0.2-0.3,0.5,0.2,0.6,0.2C8.5,12.3,8.3,12,8,11.7C8.1,11.9,8.1,12.1,8.1,12.3z"/>
					<path class="st4" d="M9,11.1C9,11,9,11,9,10.9C8.9,10.8,9,11,9,11.1z"/>
					<path class="st4" d="M9.5,10.5c-0.3-0.2-0.4,0.1-0.4,0.4c0,0,0,0,0.1,0c0.3,0.1,0.7,0.7,0.4,0.7C9.4,12,8.9,11.6,9.1,12
						c0.2,0,0.4,0,0.6,0.1C9.9,11.8,9.4,10.9,9.5,10.5z"/>
					<path class="st4" d="M9,11.1c0,0.1-0.1,0.1-0.1,0.2C9,11.3,9,11.2,9,11.1z"/>
					<path class="st4" d="M8.5,11.6l0,0.2L8.8,12C8.7,11.9,8.6,11.7,8.5,11.6z"/>
					<path class="st4" d="M10.5,9.8c0.1,0.4,0,0.5-0.2,0.6c-0.2,0.1-0.4,0.1-0.2,0.4c0.4-0.3,0.9,0.2,1.1,0.7
						c0.1-0.1,0.1-0.3,0.2-0.4C11.3,10.7,10.9,10.1,10.5,9.8z"/>
					<path class="st4" d="M11.8,11.8c0-0.1,0-0.1,0-0.2C11.9,11.7,11.8,11.8,11.8,11.8z"/>
					<path class="st4" d="M13.8,10.8c-0.5,0.1-1,0.2-1.3,0.4c0.1-0.3,0.2-0.6,0.4-0.6c-0.2-0.1-0.3,0-0.4,0
						c-0.1,0.1-0.2,0.2-0.3,0.2c0-0.9,0.6,0,0.5-0.8c-0.1,0-0.3,0-0.5,0.1c-0.2,0.1-0.3,0.3-0.4,0.7c-0.1-0.2-0.3-0.3-0.5-0.5
						c0.1,0.3,0.2,0.6,0.3,0.9c0.1,0.2,0.2-0.8,0.3-0.1c0,0.4-0.1,0.5-0.1,0.6c0.1-0.1,0.2,0.1,0.2,0.3c0,0.1,0,0.2,0.1,0.3
						c0,0.1,0,0.1,0.1,0.1c0.1,0,0.4-0.3,0.7-0.7C13.2,11.3,13.5,10.9,13.8,10.8z"/>
					<polygon class="st4" points="13.3,11.7 13.2,12.1 13.4,11.6 					"/>
					<path class="st4" d="M15.3,11.2c-0.3,0.2-0.5,0.3-0.9,0.4c-0.1-0.1-0.1-0.3-0.1-0.5c0,0.2-0.4,0.5-0.4,0.7
						c0.1,0.5,0.4,0.6,0.7,0.4c0.3-0.1,0.6-0.4,0.9-0.5c0.6,0.2,0.7,0.2,0.6,0.4c-0.1,0.2-0.3,0.4,0,0.8c-0.2,0-0.3,0-0.5-0.1
						c-0.1-0.1-0.3-0.1-0.6-0.2c0.4,0.5,1.1,0.5,1.5,0.3c0.5-0.3,0.8-0.7,1-1c-0.2,0-0.3-0.2-0.6,0c0.1-0.2,0.3-0.3,0.4-0.5
						C16.6,11,16.3,11.1,15.3,11.2z"/>
					<path class="st4" d="M14.1,10.8c0.3,0.1,0.3,0.2,0.3,0.3C14.4,10.8,14.4,10.6,14.1,10.8z"/>
					<path class="st4" d="M17.9,11.7c-0.1,0-0.2,0.1-0.2,0.2C17.7,11.9,17.8,11.9,17.9,11.7z"/>
					<path class="st4" d="M17,11.1c0.2-0.1,0.3-0.1,0.5-0.2c-0.1-0.1-0.3-0.1-0.4-0.2C17.1,10.7,16.9,10.9,17,11.1z"/>
					<path class="st4" d="M30.1,3.9c0-0.3-0.1-0.6-0.4-0.5c0.1-0.5,0.5-0.4,0.7-0.6c-0.4-0.4,0.1-0.5,0-1c-0.5-0.1-0.8,0.5-1.3,0.4
						c0-0.1,0-0.3-0.1-0.5c-0.3,0.1-0.8,0.4-1.2,0.5c-0.4,0.1-0.8,0.2-1.2,0.1c-0.6,0-1,0.3-1.6,0.7c-1.1,0.2-2,0.8-2.9,1.5
						c-0.9,0.7-1.7,1.5-2.5,2.3c0.2,0.3,0.4,0.5,0.6,0.8c-0.4-0.1-0.3,0.4-0.8,0.1c0.2-0.1,0.1-0.2,0.2-0.3c-1,0-0.6,1.2-1.2,1.6
						c0.2,0,0.9,0.3,0.9,0.6c-0.8-0.6-0.4,0.7-1.5,0.2c-0.7,0.3,0.7,0.6,0,1.1c0.3,0.6,0.8-0.5,1.2-0.3c0.1,0.2-0.1,0.4-0.2,0.5
						c-0.2,0.1-0.3,0.2,0,0.4c0.2-0.1,0.4-0.3,0.5-0.5c0.1-0.2,0.2-0.4,0.3-0.6C19.9,9.9,20,9.5,20.1,9c0.1-0.9,0.1-1.7,0.5-2.4
						l0.3,0.5c0.1-0.8,1-1.7,2-1.3c-0.2-0.2,0-0.3,0.2-0.4c0.2-0.2,0.4-0.4,0-0.9c0.3,0.1,0.3,0.1,0.6,0l-0.1-0.4
						c0.3-0.2,0.6,0.4,0.9,0.2C24,4,24.2,3.7,24.2,3.3c0.7,0.3,1.4,0.6,1.9,0.9c-0.1-0.2-0.2-0.3-0.4-0.5c0.3,0.1,0.1-0.4,0.2-0.6
						c0.3-0.1,0.4,0.6,0.5,0.9c0.5,0.1,0.5-1.2,1-0.9l-0.2-0.5c0.5-0.2,1.1,0.3,1.7,0.1c0.3,0.7-0.5,0.7-0.7,1
						C28.3,4,28.5,4,28.6,4.2c0.2-0.4,0.6-0.9,0.9-1.2C29.2,3.8,29.9,3.8,30.1,3.9z"/>
					<path class="st4" d="M28.6,4.2c-0.1,0.1-0.1,0.2-0.1,0.3c0,0,0.1-0.1,0.2-0.1C28.6,4.3,28.6,4.3,28.6,4.2z"/>
					<path class="st4" d="M30.1,3.9L30.1,3.9C30.2,3.9,30.1,3.9,30.1,3.9z"/>
					<path class="st4" d="M26.5,2.2C26.6,2.2,26.6,2.2,26.5,2.2c0.1,0,0.2,0,0.2,0L26.5,2.2z"/>
					<path class="st4" d="M26.7,4.7c-0.1-0.2-0.3-0.3-0.6-0.4C26.2,4.4,26.3,4.6,26.7,4.7z"/>
					<path class="st4" d="M23.4,5.4c0,0.1,0.1,0.2,0.1,0.4C23.7,5.8,23.7,5.6,23.4,5.4z"/>
					<polygon class="st4" points="29.2,4.3 29.6,4.2 29.7,4.1 					"/>
					<path class="st4" d="M38.3,5.9c0-0.8-0.7-0.8-1-1.3c-1-0.4-1,1-1.8,0.4l1-0.9c-0.7-0.6-1.9-1.6-3.1-0.9c0-0.2-0.1-0.4,0.2-0.5
						c-0.6-0.2-1,1.6-1.5,0.9c0.9-0.5,0-0.8,0.4-1.5l0.1,0C32.1,2,31.3,2.2,31,2.1C30.9,2.5,31.1,3,30.7,3c0.2,0.1,0,0.5,0,0.8
						c0.5-0.3,0.6,0,1-0.4c0.1,0.5-0.2,0.1-0.1,0.6c0.1-0.1,0.3-0.2,0.4-0.3c0.2,0.2-0.4,0.3,0,0.6C32.1,4,32.5,3.9,32.7,4l-0.1,0.1
						c0.3-0.1,0.5,0.3,0.7-0.4c0,0.3,0,0.5-0.1,0.8L33.4,4c0.5,0.5,0,1.6,1,1.5c-0.1-0.2,0.2-0.3,0.4-0.3c-0.1-0.5-0.6,0.1-0.9-0.1
						C34.2,4.7,35,4.5,34.8,4c0.1,0.7,0.8,0.5,0.2,1.6c0.4,0.4,0.9,0.1,1.2,0.8l-0.1,0.1c0.6-0.5,0.2,0.6,1.1,0.3L37,6.4
						c0.2-0.2,0.4-0.2,0.6-0.1c-0.1,0.1-0.1,0.1-0.1,0.3c0.4-0.4,1.1-0.1,1.2-0.2c-0.2-0.2-0.8,0-1.1-0.1
						C37.9,6.1,38.1,5.7,38.3,5.9z"/>
					<path class="st4" d="M32.4,4.3l0.3-0.2C32.5,4.1,32.4,4.2,32.4,4.3z"/>
					<path class="st4" d="M40.6,8c0.4,0.2-0.2,0.5,0.2,0.8c0.5-0.4-0.4-0.9,0.1-1.5c0.2,0.4,0.7-0.2,0.8-0.2
						c-0.2,0.3-0.1,1.1-0.1,1.3c0.2-0.2,0.5,0.2,0.8,0.2c-0.7-0.5,0.6-0.3,0-0.8c0-0.5,0.6-0.8,0.9-0.5c0,0.3-0.2,0.3-0.4,0.3
						c-0.1,0.6,0.4,0.3,0.5,0.9c0.6-0.9,2.5-1,1.9-2.4c-0.2-0.3-0.4,0.1-0.6,0.2c0.6,0.3,0,0.7,0,1C44.4,7.1,44,7.6,44,7.1l0.4-0.6
						C43,6.3,41.3,6.6,40,6.3c0.2,0.1,0.4,0.1,0.6,0.2c-0.2,0.4-0.5,0.3-0.7,0.4c0,0.3,0,0.7,0.1,1c-0.2-0.1-0.4-0.1-0.3-0.4
						c-0.4,0.3-0.4,0.5-0.3,0.9c-0.7-0.1-0.6-0.5-1.3-0.1c0.3,0.6,0.7,0.6,1,0.5c0.3-0.1,0.6-0.1,1.1,0.3C40.2,8.7,40.4,8.3,40.6,8z
						"/>
					<path class="st4" d="M38.3,7.8c0.1-0.1,0.3-0.2,0.4-0.3c-0.1,0-0.3,0-0.4,0L38.3,7.8z"/>
					<path class="st4" d="M39.6,6c-0.1,0.2-0.2,0.2-0.3,0.4C39.6,6.7,39.6,6.5,39.6,6z"/>
					<path class="st4" d="M43.9,8.5l0.5-0.2l-0.3-0.2C44.1,8.4,44,8.5,43.9,8.5z"/>
					<path class="st4" d="M47.6,6.1c-0.8,0-1.1,0.4-2,0c-0.4,0.6,0.2,1.1,0.1,1.7C46,7.9,46,6.8,46.4,6.6c0.1,0.5,0.6-0.1,1,0.1
						C47.4,6.5,47.4,6.3,47.6,6.1z"/>
					<path class="st4" d="M49,8.8c0.2,0.1,0.7,0.1,0.6,0.4c-0.3,0.2-0.5,0.2-0.5,0c-0.5,0.6,0.3,0.1,0,0.6c0.1-0.1,0.1-0.2,0.3-0.3
						c0.2,0.7,0.8,0,0.8,1.1c0.3,0.1,0.3,0.2,0.8,0c-0.3,0.8-0.5,0.5-0.7,1.4c0.3-0.1,0.8-0.6,1.4-0.8c-0.4,1.3,0.5,1,0.1,1.9
						c-0.1-0.1-0.2-0.1-0.2-0.3c-0.8,0.4,0.3,0.5,0.3,0.9l-0.7,0.2c0.2,0.3,0.9,0.7,0.5,1.3l-0.4,0c0.8,0.7,0.8,1.7,1.2,2.4
						l-0.4,0.5c0.8,0.9,0.1-1.1,1.3-0.5c-1.3,0.4,0.6,0.4,0.1,1.1c-0.5,0.4-0.4-0.5-0.9-0.1c0.7,0,0.3,0.3,0.5,0.5
						c-0.7,0,0,0.7-0.8,0.6c0.5,0.3,0.9,0.6,1.4,0.9c-0.4,0.2-0.3,0.5-0.1,0.8c-0.1-0.6,1,0.1,1.2-0.7c-0.4-1-0.9-2.6-0.8-3.9
						C53,16.9,53.8,16,53,16c0.3-0.1,0.5-0.3,0.8-0.4c-0.4-0.7-0.4,0.3-0.8,0.2c-0.2-0.3,0.3-0.7,0.6-0.8c-0.1-0.6-0.3,0-0.8-0.1
						l0.9-0.6c-0.4-0.8-1-1.8-1.5-2.7c-0.5-1-0.9-2-1.4-3c-0.1,0.2-0.3,0.3-0.4,0.5c-0.1-0.5-0.7-0.5-1.1-0.5c-0.4,0-0.6,0-0.7-0.8
						c-0.2,0.1-0.3,0.3-0.4,0.4c0.2-0.2,0.1-1,0.5-1.3c-0.3,0.1-0.6-0.2-0.9-0.1l0.4,0.4c-0.5,0.4-0.7,0-0.8-0.4
						c-0.8,0.5,0.3,1.1,0.2,1.7c0.5-0.5,0.7-0.1,0.7,0.3c0,0.4-0.1,0.8,0.2,0.8C49,9.4,48.8,9.1,49,8.8z"/>
					<path class="st4" d="M48.9,6.7c-0.1,0-0.2,0.1-0.2,0.1C48.7,6.8,48.8,6.8,48.9,6.7z"/>
					<path class="st4" d="M53.6,21.4c0,0.1,0,0.2,0.1,0.3C53.8,21.7,53.7,21.6,53.6,21.4z"/>
					<path class="st4" d="M47.4,6.7C47.4,6.7,47.4,6.7,47.4,6.7C47.4,6.7,47.4,6.7,47.4,6.7L47.4,6.7z"/>
					<polygon class="st4" points="46.8,8.2 47,8.3 47,8 					"/>
					<path class="st4" d="M53.3,24.4l0.3-0.1C53.5,24.3,53.4,24.3,53.3,24.4z"/>
					<path class="st4" d="M56.4,30.2l0-0.2C56.4,30.1,56.4,30.1,56.4,30.2z"/>
					<path class="st4" d="M52.5,46.3c-0.1,0.5-0.4,1-0.5,1.6l-0.1-0.3c-0.1,0.1-0.2,0.4-0.3,0.7c-0.1,0.3-0.1,0.6,0.3,0.7l0-0.3
						c0.4-0.8,0.7,0.3,1.4,0.1c0.6-0.6-0.1-1.8,0.4-2c0.1-0.2,0.4,0,0.5,0.2c0.4-0.4-0.3-1.1-0.2-1.5c1.1,0.6,1.2,0.1,1.2-0.5
						c0-0.6-0.2-1.2,0.7-1.2c0-0.5,0.5-1.1,0.2-1.8c0.5,0.5,0.3-0.5,0.9-0.2c-1.3-0.6,1.2-1.5-0.5-2.2c0.7-0.7-0.1-0.1,0.6-0.9
						c0.2,0.1,0.2,0.2,0.2,0.3c0.5-0.3-0.6-0.8,0.3-0.9c0.3-0.7-0.5-0.2-0.8-0.8c0.4-0.7,0.6-0.5,1.4-0.7c-0.8-0.2-0.3-0.6-0.7-1.1
						c-0.1,0.1-0.3,0.6-0.6,0.2c0.3-0.9-0.5-0.8-0.6-1.6c1-0.3-0.1,0.8,0.8,0.2c0.4,0.6,0.3,1,0.9,1.4c0.2-0.7,0.1-1.7-0.2-2.5
						c0.2-0.4,0.4,0.3,0.5-0.1c0.5-0.8-0.9-1.3-0.5-1.9l0.5,0.1c-0.7-0.4,0.2-1.4-0.3-2.2c-0.2,0.1-0.4,0.2-0.6,0.1
						c0.6,0,0.5-0.3,0.2-0.6c-0.3-0.3-0.6-0.6-0.3-1.1c-0.4,0.2-0.8,0.2-1.1,0.1c-0.2,0-0.4,0-0.5-0.1c0.1-0.2,0.3-0.5,0.5-0.6
						c0.1,0.4,0.3,0.3,0.8,0.2c0.3,0,0.7-0.1,1,0.2c-0.2-0.1-0.3-0.3-0.4-0.5c-0.3-0.4-0.6-0.8-1.1-0.7c0.2-0.1,0.4-0.2,0.5-0.4
						c-0.5-0.5-1.4,0.7-1.5-0.2l0.3-0.3c-0.6-0.4-0.8-1.1-0.9-1.7c-0.2-0.6-0.3-1.3-0.9-1.8c-0.4-0.1-1.2,0.6-1.5,0.7
						c0.4,0.7,1.2,1,1.7,1.4l-0.7,0.2c0.5,0,1,0.4,1.2-0.1c0.5,0.2-0.4,0.6,0.2,0.8c-0.6,0.4-0.9,0.2-1.4,0.5
						c0.2,0.1,0.4,0.2,0.6,0.2c-0.3,0,0,0.4-0.3,0.5c0.7,0.1,0.9,0.3,1,0.7c0.1,0.3,0.2,0.6,0.6,0.7c-0.1-0.1-0.1-0.2-0.2-0.3
						c0.3-0.3,0.4-0.1,0.6-0.1c-0.3,0.6-0.1,0.6-0.2,0.9c0.1,0,0.3-0.1,0.4-0.1c0.3-0.1,0.7-0.1,0.8,0.2c-0.8,0.1-0.3,0.7-0.9,0.9
						c0.8,0,0.3,0.8,0.8,0.8c0.2,0.2,0.1,0.6-0.3,0.6c0,0-0.1-0.1-0.1-0.2l0,0.2c-0.1,0-0.2,0-0.2,0c0,0.2,0.6,0.2,0.2,0.5
						c-0.2,0-0.2-0.2-0.3-0.3c-0.1,0.6,1.2,1,0.5,1.5c0.4,0.1,0.4,0.8,1.2,0.7c-0.3,0.2-1,0.1-0.9,0.6c0.7,0.3-0.3,0.5,0.1,0.9
						c-0.7-0.6-0.2,0-0.9-0.5c-0.3,0.3,0.6,0.9,0.3,1.5c-0.2,0-0.4,0-0.6,0c0.2,0.2,0.7,0.6,0.1,0.7l0.5,0.1
						c-0.3,0.3-0.3,0.9-0.9,1.2l0.8,0.7c-1.1,0.4-0.5,1.5,0.1,2.3c-0.1,0.2-0.4,0.5-0.6,0.5c0-0.1-0.2-0.2-0.2-0.4
						c-0.1,0.3-0.8,0.6-0.1,1c0.1,0.4-0.6,0.1-0.8,0.3c0.8,1.2-1.6,1.7-0.2,2.6c0.1-0.3,0.7-0.7,0.9-1.3c0.1,0.2,0.5,0.2,0.4,0.5
						c-0.2,0.6-0.9,0.6-0.9,1.3L54,44.2c-0.7,0.2-0.6,0.8-0.6,1.3C53.5,46,53.4,46.6,52.5,46.3z"/>
					<path class="st4" d="M55.8,39.7l-0.7,0.2l0.5,0.1C55.6,39.9,55.6,39.8,55.8,39.7z"/>
					<path class="st4" d="M55.6,40c0,0.1,0.1,0.2,0.1,0.3c0-0.1,0-0.2,0-0.3L55.6,40z"/>
					<path class="st4" d="M51.5,47.4c-0.1,0-0.3,0-0.4,0.2C51.2,47.6,51.4,47.6,51.5,47.4z"/>
					<path class="st4" d="M51.1,47.9c0.1,0,0.2,0.1,0.3,0.1l0-0.1C51.3,47.9,51.2,47.9,51.1,47.9z"/>
					<path class="st4" d="M39.6,51.9l-0.2,1c-0.3-0.2-0.8,0.6-0.9,0c0.1,0.9-1.2,0.8-0.3,1.6c1-0.8,2-1.5,3-2.2
						c1-0.7,1.9-1.4,2.6-2.2c0,0.2-0.1,0.4-0.1,0.5c0.3-0.6,0.7-0.5,1-0.4c0.3,0.1,0.5,0.1,0.9-0.8l-0.1,0.9c0.4,0.2,1-1.3,1.5-0.3
						l0-0.4c0.2,0,0.2,0.2,0.4,0.2l-0.1-0.2c0.4-0.3,0.7-0.3,1.1,0c0,0.3-0.2,0.1-0.3,0.2c0.2,0.3,0.6-0.3,0.9-0.3
						c0.3,0.3,0,0.4,0,0.5c0.5-0.2,0.9-0.1,1.3-0.1c0.4,0,0.8-0.2,0.9-1c0-0.3-0.4-0.4-0.1-0.6c-0.7-0.2-1.1,0.4-1.7,0.8l0.2,0
						c-0.5,1.3-0.4-0.3-1.2,0.3c0.2-0.5,0.6-0.5,0.7-0.8c-0.8-1-1.3,0.7-1.7-0.6l0.1,0c-0.1-0.1-0.4,0.1-0.6,0.2
						c0.1,0.2,0.2,0.3,0.4,0.4c-0.2,0.1-0.3,0.7-0.4,0.9c-0.2-0.6-0.3,0.3-0.6,0c-0.1-0.5,0.3-0.5,0.4-0.8c-0.1,0.1-0.3,0.2-0.4,0.4
						c-0.4,0-0.4-0.6-0.6-0.9c-0.3,0.4,0.2,0.3,0,0.9c-0.2-0.3-0.7-0.4-1.3-0.3c-0.6,0.2-1.1,0.6-1.3,1c0.2-0.2-0.2-0.6,0.2-0.6
						c-0.2-0.1-0.5,0.4-0.3,0.7c-0.3,0.6-1,0.7-1.7,0.7l0.4,0.3c0,0.8-1.2,0.2-1.6,1l0,0c-0.2,0.2,0.3,1.2-0.3,1.3
						C39.7,52.4,39.9,52.3,39.6,51.9z"/>
					<path class="st4" d="M37.6,54.3c0-0.2,0-0.4,0-0.7c-0.3,0-0.4,0.9-0.2,1.2c0.2-0.2,0.6-0.1,0.5-0.4
						C37.7,54.4,37.7,54.2,37.6,54.3z"/>
					<path class="st4" d="M31,54.9c-0.2,0.1-0.2,0.3-0.4,0.4c1.7,0.6,3.5,0.2,4.1,0.6c0.5,0.1,0.5-0.8,1-1.1l0.4,0.5
						c0.2-0.4,1.3-0.2,0.7-1c-0.1-0.1-0.1,0.5-0.4,0.4l-0.1-0.3c-0.2,0.1-0.4,0.2-0.5,0.3l0.1-0.5c-0.5-0.2-0.5,0.2-0.6,0.5
						c-0.1,0.4-0.2,0.8-0.8,0.6l-0.1-0.8c-0.6,0-1,0.3-1.6-0.2c0,0,0,0.4,0.1,0.3c0.1,0,0.2,0.4,0.1,0.6c-1.2,0.6,0.2-0.5-0.5-0.9
						c-0.5,0.2-1.2,0.3-1.9,0.1c-0.7-0.2-1.2-0.7-1.2-1.1c0,0.4-0.2,0.5-0.5,0.5c-0.3,0-0.7-0.2-0.8-0.6c0.1-0.4,0.5-0.1,0.8-0.2
						c-0.1-0.3-0.1-0.6-0.3-0.8c-0.2,0.5-0.9,0.7-1.5,0.1c0.1,0.9,0.9,1.6,1.6,1.9C29.6,54.6,30.4,54.7,31,54.9z"/>
					<path class="st4" d="M30.3,55.4c0.2,0.1,0.3,0,0.3-0.1c-0.2-0.1-0.4-0.2-0.6-0.3L30.3,55.4z"/>
				</g>
			</g>
		</g>
	</g>
</g>
<g class="st1">
	<g>
		<path class="st2" d="M40,30.1c3.5-2.2,7.2-3.5,11.3-4.1c0.3,0,0.2-0.5-0.1-0.4c-4.1,0.6-7.9,1.9-11.4,4.1
			C39.5,29.9,39.7,30.3,40,30.1L40,30.1z"/>
	</g>
</g>
<g class="st1">
	<g>
		<path class="st2" d="M44.4,27c1.6-2,3.2-3.9,4.9-5.9c0.2-0.2-0.1-0.5-0.3-0.3c-1.6,2-3.2,3.9-4.9,5.9C43.9,27,44.3,27.3,44.4,27
			L44.4,27z"/>
	</g>
</g>
<g class="st1">
	<g>
		<path class="st2" d="M31.7,38.9c-2.8,3.7-4.7,7.9-5.5,12.4c0,0.3,0.4,0.4,0.4,0.1c0.8-4.5,2.6-8.7,5.4-12.3
			C32.3,38.9,31.9,38.7,31.7,38.9L31.7,38.9z"/>
	</g>
</g>
<g class="st1">
	<g>
		<path class="st2" d="M29.3,40.6c-1.4,1-3,1.5-4.8,1.5c-0.3,0-0.3,0.4,0,0.4c1.8,0,3.5-0.5,5-1.6C29.8,40.8,29.6,40.4,29.3,40.6
			L29.3,40.6z"/>
	</g>
</g>
<g class="st1">
	<g>
		<path class="st2" d="M28.1,18.5c0.1-3.4,2.2-6.3,2.5-9.7c0.2-2.9-0.5-5.6-1.7-8.1c-0.1-0.3-0.5,0-0.4,0.2
			c1.7,3.5,2.2,7.3,1.1,11.1c-0.7,2.2-1.8,4.2-1.9,6.5C27.6,18.8,28,18.8,28.1,18.5L28.1,18.5z"/>
	</g>
</g>
<g class="st1">
	<g>
		<path class="st2" d="M30.3,10c1.7-0.6,3.2-1.5,4.4-2.9c0.2-0.2-0.1-0.5-0.3-0.3c-1.1,1.3-2.6,2.2-4.2,2.8
			C29.9,9.6,30,10.1,30.3,10L30.3,10z"/>
	</g>
</g>
</svg>
