<!-- Generator: Adobe Illustrator 23.0.3, SVG Export Plug-In  -->
<svg version="1.1" xmlns="http://www.w3.org/2000/svg" xmlns:xlink="http://www.w3.org/1999/xlink" x="0px" y="0px" width="24.2px"
	 height="26.4px" viewBox="0 0 24.2 26.4" style="enable-background:new 0 0 24.2 26.4;" xml:space="preserve">
<style type="text/css">
	.st0{fill:#97C364;}
	.st1{fill:#C1B79E;}
	.st2{fill:#928575;}
	.st3{opacity:0.72;}
	.st4{fill:#C0B199;}
</style>
<defs>
</defs>
<path class="st0" d="M1.8,8.4L1.8,8.4c2.7-4.9,8.9-6.6,13.8-3.8l0,0c4.9,2.7,6.6,8.9,3.8,13.8l0,0c-2.7,4.9-8.9,6.6-13.8,3.8l0,0
	C0.8,19.4-0.9,13.2,1.8,8.4z"/>
<g>
	<g>
		<path class="st1" d="M10.1,13.8c1.1,2.4,3,4.3,5.3,5.5"/>
		<g>
			<path class="st2" d="M10,13.9c1.2,2.4,3,4.3,5.4,5.6c0.2,0.1,0.3-0.2,0.2-0.3c-2.3-1.2-4.1-3.1-5.3-5.5
				C10.2,13.5,9.9,13.7,10,13.9L10,13.9z"/>
		</g>
	</g>
	<g>
		<path class="st1" d="M10.1,14.6c2.9-1.5,5.4-3.7,7.3-6.4"/>
		<g>
			<path class="st2" d="M10.2,14.7c2.9-1.6,5.4-3.7,7.4-6.4c0.1-0.2-0.1-0.3-0.3-0.2c-1.9,2.6-4.4,4.8-7.3,6.3
				C9.9,14.5,10,14.8,10.2,14.7L10.2,14.7z"/>
		</g>
	</g>
	<g>
		<path class="st1" d="M9.8,14.4c-0.1-3-0.3-6-0.4-9"/>
		<g>
			<path class="st2" d="M9.9,14.4c-0.1-3-0.3-6-0.4-9c0-0.2-0.3-0.2-0.3,0c0.1,3,0.3,6,0.4,9C9.6,14.5,9.9,14.5,9.9,14.4L9.9,14.4z"
				/>
		</g>
	</g>
	<g>
		<path class="st1" d="M8.7,14.4C6.4,13.7,4,13,1.7,12.3"/>
		<g>
			<path class="st2" d="M8.8,14.3c-2.4-0.7-4.7-1.4-7.1-2.1c-0.2-0.1-0.3,0.2-0.1,0.3c2.4,0.7,4.7,1.4,7.1,2.1
				C8.9,14.6,9,14.3,8.8,14.3L8.8,14.3z"/>
		</g>
	</g>
	<g>
		<path class="st1" d="M9.1,14.7c-1.7,1.9-2.1,4.8-0.9,7.1"/>
		<g>
			<path class="st2" d="M9,14.5c-1.8,2-2.1,4.8-0.9,7.2c0.1,0.2,0.3,0,0.3-0.2c-1.1-2.3-0.8-4.9,0.9-6.9C9.4,14.6,9.2,14.4,9,14.5
				L9,14.5z"/>
		</g>
	</g>
</g>
<g class="st3">
	<g>
		<g>
			<g>
				<g>
					<path class="st4" d="M0.9,6.8c0-0.1,0.1-0.1,0.1-0.2c-0.2,0-0.3,0-0.5,0C0.6,6.7,0.7,6.8,0.9,6.8z"/>
					<path class="st4" d="M2.6,6.3c0,0-0.1,0-0.2-0.1C1.7,6.1,1.4,6,1.2,6C1,5.9,0.8,5.9,0.3,6.1c0.1,0.1,0.3,0.3,0.5,0.3
						c0.2,0.1,0.5,0.1,0.8,0C1.6,6.4,1,6.3,1.2,6.2c0.4,0.1,0.4,0.2,0.9,0.2c0.5-0.1-0.4,0-0.2-0.1L2.6,6.3z"/>
					<path class="st4" d="M1.2,5.8C1.4,5.9,1.7,6,1.9,6.1C1.6,6,1.4,5.8,1.2,5.8z"/>
					<path class="st4" d="M1.1,5.6c0.1-0.1,0.5,0.2,0.6,0.2C1.4,5.7,1.2,5.5,0.9,5.3C1,5.4,1.1,5.5,1.1,5.6z"/>
					<path class="st4" d="M1.5,5.1c0,0,0-0.1,0-0.1C1.4,4.9,1.5,5,1.5,5.1z"/>
					<path class="st4" d="M1.7,4.8C1.4,4.6,1.5,4.8,1.5,5c0,0,0,0,0.1,0c0.2,0.1,0.7,0.7,0.5,0.6c0.1,0.2-0.5-0.2-0.2,0.1
						C2.1,5.8,2.2,5.9,2.4,6C2.4,5.9,1.8,5.1,1.7,4.8z"/>
					<path class="st4" d="M1.5,5.1C1.5,5.2,1.5,5.2,1.5,5.1C1.6,5.3,1.6,5.2,1.5,5.1z"/>
					<path class="st4" d="M1.3,5.3l0.1,0.1l0.3,0.1C1.5,5.5,1.4,5.4,1.3,5.3z"/>
					<path class="st4" d="M2.2,4.5c0.2,0.4,0.1,0.4,0,0.4c-0.1,0-0.2,0,0,0.3c0.1-0.1,0.5,0.4,0.7,0.9c0-0.1-0.1-0.2-0.1-0.3
						C2.7,5.5,2.5,4.8,2.2,4.5z"/>
					<path class="st4" d="M2.9,6.1C2.9,6.1,2.9,6.1,2.9,6.1C2.9,6.1,2.9,6.1,2.9,6.1z"/>
					<path class="st4" d="M3.8,5.4C3.6,5.7,3.3,5.9,3,6.1c0.1-0.3,0.1-0.6,0.3-0.6C3.2,5.4,3.1,5.4,3,5.5c0,0.1-0.1,0.2-0.1,0.2
						c0-0.9,0.1,0,0.2-0.8c-0.1,0-0.3,0-0.3,0.8c0-0.2-0.1-0.4-0.2-0.6C2.7,5.4,2.8,5.7,2.9,6c0,0.3,0-0.7,0-0.1c0,0.1,0,0.1,0,0.1
						c0,0,0,0,0-0.1l0,0l0,0l0,0l0,0l0,0.8l0,0l0,0l0,0l0,0c0,0.1-0.1,0.2-0.2,0.3c0,0.1,0.2,0.2,0.3,0.2C3.6,7.5,3.5,5.8,3.8,5.4z"
						/>
					<polygon class="st4" points="3.8,6.5 3.9,6.9 3.8,6.4 					"/>
					<path class="st4" d="M4.4,5.4C4.4,5.6,4.3,5.8,4.2,5.9c0-0.1-0.1-0.3-0.1-0.5c0,0.2,0,0.6,0,0.8C4.3,7.2,4.5,6,4.6,5.9
						c0.6,0.3,0.1,0.5,0.5,1.2C5,7.1,4.9,6.9,4.6,6.9c0.3,0.5,0.5,0.4,0.7,0.3c0.2-0.2,0.2-0.5,0.3-0.7c-0.1,0-0.2-0.3-0.3-0.2
						c0-0.1,0.1-0.2,0.1-0.4C5,5.4,4.8,5.3,4.4,5.4z"/>
					<path class="st4" d="M3.9,5.3C4,5.2,4,5.3,4.1,5.4C4,5.2,4,5,3.9,5.3z"/>
					<path class="st4" d="M5.8,6.3c0,0-0.1,0-0.1,0.1C5.7,6.4,5.7,6.4,5.8,6.3z"/>
					<path class="st4" d="M5.2,5.5c0.1,0,0.2,0,0.2,0L5.2,5.1C5.2,5.2,5.1,5.3,5.2,5.5z"/>
					<path class="st4" d="M10.8,3c0-0.3,0-0.5-0.1-0.5c0-0.5,0.2-0.4,0.3-0.6C10.8,1.6,11,1.4,11,1c-0.2-0.1-0.4,0.5-0.6,0.4
						c0-0.1,0-0.3,0-0.5c-0.3,0.3-0.7,0.8-1,0.4C9.1,1.2,8.9,1.4,8.7,1.7c-0.5,0-0.9,0.3-1.2,0.6C7.1,2.7,6.8,3,6.3,3.3
						C6.6,3.5,6.8,3.7,7,3.9C6.6,3.7,6.9,4.2,6.4,3.8c0.1,0,0.1-0.1,0.1-0.2C6.1,3.5,6.1,3.7,6,3.9c0,0.2,0,0.5-0.2,0.5
						C6,4.5,6.5,5,6.5,5.2c-0.6-0.8-0.3,0.4-1-0.6C5.2,4.7,6,5.5,5.6,5.6c0.2,0.6,0.4,0,0.7,0.4C6.5,6.4,6,6,6.3,6.5
						C6.7,6.5,6.9,5.8,7,5.1c0-0.4,0-0.7,0.1-1.1c0-0.2,0-0.2,0-0.3c0-0.1,0-0.2,0-0.3l0.4,0.4C7.3,3.4,7.6,3,8.3,3.6
						C8,3.2,8.7,3.7,8.1,2.7c0.2,0.2,0.2,0.1,0.3,0.2L8.2,2.5C8.4,2.5,8.6,3,8.7,2.9c-0.3-0.4-0.3-0.6-0.4-1
						c0.4,0.4,0.8,0.8,1.1,1.3C9.4,3,9.3,2.8,9.2,2.6c0.2,0.1,0-0.3,0-0.5C9.3,2.1,9.4,2.7,9.5,3c0.2,0.2,0-1.1,0.3-0.7L9.6,1.8
						c0.2-0.2,0.5,0.4,0.7,0.2c0.1,0.7-0.2,0.6-0.2,1c0.1,0.2,0.1,0.2,0.2,0.4c0-0.4,0.2-0.9,0.3-1.2C10.5,3,10.7,3,10.8,3z"/>
					<path class="st4" d="M10.3,3.4c0,0.1,0,0.2,0,0.3c0,0,0-0.1,0-0.1C10.3,3.5,10.3,3.5,10.3,3.4z"/>
					<path class="st4" d="M10.8,3C10.8,3.1,10.8,3.1,10.8,3C10.8,3.1,10.8,3.1,10.8,3z"/>
					<path class="st4" d="M9.3,1.3C9.3,1.3,9.4,1.3,9.3,1.3C9.4,1.3,9.4,1.3,9.3,1.3L9.3,1.3z"/>
					<path class="st4" d="M9.7,3.7C9.6,3.5,9.5,3.3,9.4,3.1C9.5,3.4,9.6,3.5,9.7,3.7z"/>
					<path class="st4" d="M8.5,3.5c0,0.1,0.1,0.2,0.2,0.4C8.8,3.9,8.7,3.7,8.5,3.5z"/>
					<path class="st4" d="M10.4,3.5l0.1-0.2l0.1-0.1C10.6,3.3,10.5,3.4,10.4,3.5z"/>
					<path class="st4" d="M14.6,2.7c0.2-0.6-0.2-0.5-0.3-0.7c-0.6,0-1,1-1.3,0.8l0.9-0.9c-0.3-0.2-0.9-0.9-1.7,0
						c0-0.2,0.1-0.4,0.2-0.5c-0.3-0.1-0.8,1.7-0.9,1.2C12,1.9,11.7,1.8,12,1L12.1,1c-0.3,0-0.7,0.3-0.8,0.3c-0.1,0.3,0,0.9-0.2,0.9
						c0.1,0.1,0,0.4-0.1,0.8c0.2-0.4,0.2-0.1,0.4-0.5c0,0.4-0.1,0.1-0.1,0.6c0.1-0.1,0.1-0.2,0.2-0.4c0,0.1-0.2,0.4-0.1,0.5
						c0.1-0.2,0.3-0.5,0.4-0.4l-0.1,0.1c0.1-0.1,0.2,0.1,0.4-0.6C12,2.5,11.9,2.8,11.9,3l0.2-0.5c0.2,0.3-0.5,1.3,0.1,0.9
						c0-0.2,0.2-0.3,0.3-0.4c0.1-0.4-0.4,0.2-0.5,0.2c0.2-0.4,0.8-0.8,0.8-1.1c-0.2,0.6,0.4,0.2-0.4,1.2c0.1,0.2,0.6-0.2,0.6,0.2
						L13,3.7c0.6-0.6,0,0.5,0.7,0l0-0.3c0.2-0.3,0.3-0.2,0.4-0.2c-0.1,0.1-0.1,0.1-0.2,0.2C14.3,3,14.6,3.2,14.7,3
						c0-0.1-0.5,0.2-0.7,0.2C14.3,3,14.6,2.6,14.6,2.7z"/>
					<path class="st4" d="M11.5,3.1l0.2-0.2C11.6,2.9,11.6,3,11.5,3.1z"/>
					<path class="st4" d="M15.4,4.2c0.2,0.2-0.2,0.5,0,0.8c0.3-0.4-0.1-0.9,0.2-1.4C15.7,3.9,16,3.3,16,3.3
						c-0.1,0.3-0.1,1.1-0.1,1.3c0.1-0.2,0.3,0.2,0.4,0.2c-0.3-0.5,0.3-0.3,0-0.8c0-0.5,0.3-0.8,0.4-0.5c0,0.3-0.1,0.3-0.2,0.3
						c0,0.6,0.2,0.3,0.3,0.9c0.2-0.9,1.1-0.9,0.8-2.3c-0.1-0.3-0.2,0.1-0.3,0.1c0.3,0.3,0,0.7,0,1c-0.1-0.2-0.3,0.2-0.3-0.3l0.2-0.5
						c-0.6-0.2-1.3-0.1-1.8,0c0.1,0,0.1,0.1,0.2,0.1c-0.1,0.4-0.2,0.4-0.4,0.5c-0.1,0.3-0.1,0.6-0.1,0.9c-0.1-0.1-0.2,0-0.1-0.3
						c-0.3,0.3-0.3,0.6-0.3,0.9c-0.1,0-0.2,0-0.2,0c-0.2-0.1-0.2-0.2-0.6,0.1c0.1,0.4,0.3,0.4,0.4,0.4c0.2-0.1,0.4-0.3,0.8,0.1
						C15.2,5,15.3,4.6,15.4,4.2z"/>
					<path class="st4" d="M14.2,4.3c0.1-0.1,0.2-0.2,0.3-0.4C14.5,4,14.4,4,14.3,4L14.2,4.3z"/>
					<path class="st4" d="M15.3,2.5c-0.1,0.2-0.2,0.3-0.2,0.4C15.1,3.1,15.2,2.9,15.3,2.5z"/>
					<path class="st4" d="M17.1,4.7l0.2-0.2l-0.2-0.2C17.1,4.6,17.1,4.6,17.1,4.7z"/>
					<path class="st4" d="M18.9,2.3c-0.5,0-0.7,0.5-1.1,0c-0.2,0.6,0.1,1.1,0,1.7c0.1,0.1,0.1-0.9,0.4-1.1c0,0.5,0.3-0.1,0.5,0.1
						C18.7,2.7,18.7,2.5,18.9,2.3z"/>
					<path class="st4" d="M19,4.5c0.1,0.1,0.4-0.2,0.3,0.1c-0.3,0.2-0.4,0.3-0.3,0.2c-0.5,0.6,0.1,0-0.2,0.4C18.8,5.1,18.9,5,19,4.9
						c0,0.3,0.6-0.3,0.4,0.3c0.2-0.1,0.2,0,0.7-0.2c-0.5,0.5-0.5,0.4-0.9,0.9c0.3-0.1,0.9-0.5,1.4-0.7c-0.6,0.8,0.3,0.4-0.2,0.9
						c0,0-0.2,0-0.2-0.1c-0.8,0.3,0.2,0.2,0.1,0.4l-0.7,0.2c0.2,0.1,0.7,0.2,0.2,0.5l-0.4,0.1c0.7,0.2,0.5,0.7,0.8,0.9l-0.4,0.3
						c0.6,0.3,0.2-0.5,1.3-0.4c-1.3,0.3,0.5,0.1,0,0.5c-0.5,0.2-0.3-0.2-0.9,0c0.7-0.1,0.2,0.1,0.4,0.2c-0.7,0.1,0,0.3-0.8,0.3
						c0.4,0.1,0.9,0.2,1.3,0.3c-0.4,0.1-0.3,0.3-0.2,0.3c0-0.3,1,0,1.3-0.4c-0.4-0.4-0.7-1.1-0.5-1.7c-0.9,0.1-0.1-0.4-0.8-0.3
						c0.3-0.1,0.5-0.2,0.8-0.3c-0.3-0.3-0.5,0.2-0.8,0.2c-0.2-0.1,0.3-0.4,0.7-0.5c0-0.3-0.2,0-0.8,0l0.9-0.4
						c-0.3-0.4-0.7-0.7-1-1.1c-0.3-0.4-0.5-0.9-0.6-1.5l-0.4,0.5c0-0.3-0.4-0.2-0.6,0C19,4.3,18.9,4.4,19,3.7
						c-0.1,0.2-0.2,0.3-0.3,0.5c0.2-0.3,0.3-0.9,0.6-1.3c-0.2,0.1-0.3-0.1-0.5,0c0,0.1,0.1,0.2,0.1,0.3c-0.3,0.5-0.4,0.1-0.3-0.3
						c-0.3,0.3-0.2,0.6-0.2,0.8c0,0.3,0,0.5,0,0.8c0.3-0.5,0.3-0.2,0.2,0.1c-0.1,0.4-0.4,0.8-0.2,0.6C18.7,5.1,18.8,4.8,19,4.5z"/>
					<path class="st4" d="M19.4,2.8c-0.1,0-0.1,0.1-0.1,0.1C19.3,2.9,19.4,2.8,19.4,2.8z"/>
					<path class="st4" d="M21,9.7c0,0,0,0.1,0,0.1C21.3,9.8,21.1,9.8,21,9.7z"/>
					<path class="st4" d="M18.7,2.9C18.7,2.9,18.7,2.9,18.7,2.9C18.7,2.9,18.7,2.9,18.7,2.9L18.7,2.9z"/>
					<polygon class="st4" points="18.1,4.4 18.2,4.5 18.2,4.2 					"/>
					<path class="st4" d="M20.5,11.3l0.3-0.1C20.8,11.2,20.7,11.2,20.5,11.3z"/>
					<path class="st4" d="M21.8,13.6L21.8,13.6C21.7,13.6,21.7,13.6,21.8,13.6z"/>
					<path class="st4" d="M20.6,20.4c0,0.3,0,0.6,0.1,1.1l-0.2-0.3c0,0.1,0,0.1,0,0.2c0,0.3-0.1,0.7,0.3,1l-0.1-0.3c0,0,0-0.1,0-0.1
						c0.1-0.3,0.5,0.5,0.9,0.5c0.3-0.4-0.4-1.5-0.1-1.4c0-0.1,0.3,0.1,0.4,0.3c0.3-0.2-0.4-0.9-0.5-1.1c1.1,0.6,1.1,0.3,0.9,0
						c-0.2-0.3-0.4-0.7,0.4-0.5c-0.1-0.3,0.2-0.5-0.1-0.9c0.5,0.4,0.1-0.2,0.8,0.1c-1.3-0.6,0.9-0.6-0.8-1.2c0.6-0.2-0.1,0,0.4-0.3
						c0.2,0.1,0.2,0.1,0.2,0.2c0.4-0.1-0.7-0.5,0.2-0.4c0.2-0.3-0.5-0.2-0.9-0.5c0.3-0.3,0.5-0.1,1.3-0.2C23,16.4,23.4,16.2,23,16
						c0,0-0.3,0.2-0.6,0c0.2-0.4-0.5-0.4-0.7-0.8c1-0.1,0,0.4,0.8,0.1c0.4,0.3,0.3,0.5,1,0.7c0.1-0.3,0-0.8-0.4-1.2
						c0.1-0.2,0.4,0.1,0.5,0c0.5-0.4-1-0.6-0.5-0.9l0.5,0.1c-0.7-0.2,0.2-0.6-0.2-1c-0.2,0.1-0.4,0.1-0.6,0.1
						c0.6-0.1,0.5-0.2,0.2-0.3c-0.2-0.1-0.5-0.1-0.1-0.5c-0.5,0.2-0.9,0.3-1.1,0.4c-0.1,0-0.2,0-0.3,0c0.2-0.2,0.4-0.4,0.6-0.5
						c-0.1,0.2,0,0.2,0.3,0.1c0.3-0.1,0.8-0.3,1.1-0.2c-0.2,0-0.3-0.1-0.3-0.2c-0.1-0.1-0.3-0.3-0.6-0.2c0.2-0.1,0.4-0.2,0.5-0.3
						c-0.2-0.3-1.3,0.8-1.1,0.2l0.3-0.3c-0.3-0.2-0.2-0.5-0.2-0.7c0-0.3-0.1-0.5-0.6-0.7c-0.4,0-1.2,0.4-1.5,0.4
						c0.4,0.3,1.1,0.4,1.5,0.5l-0.7,0.2c0.5-0.1,0.9,0,1.2-0.3c0.4,0-0.5,0.4,0,0.4c-0.6,0.4-0.8,0.3-1.3,0.7c0.2,0,0.3,0.1,0.5,0.1
						c-0.3,0.1-0.1,0.3-0.4,0.4c1.1-0.1,0.2,0.6,0.6,0.5c0,0,0-0.1,0-0.1c0.3-0.3,0.3-0.2,0.5-0.3c-0.4,0.4-0.3,0.4-0.5,0.6
						c0.1,0,0.1,0,0.2-0.1c0.4-0.2,0.9-0.3,0.9-0.2c-0.8,0.3-0.4,0.4-1,0.6c0.8-0.2,0.3,0.1,0.7,0.1c0.2,0,0.1,0.2-0.3,0.2
						c0,0-0.1,0-0.1-0.1l0,0.1c-0.1,0-0.2,0-0.2,0c0,0.1,0.6,0.1,0.2,0.2c-0.2,0-0.2-0.1-0.3-0.1c-0.1,0.2,1.2,0.4,0.5,0.6
						c0.4,0.1,0.4,0.3,1.2,0.3c-0.3,0.1-1,0-0.9,0.2c0.7,0.2-0.3,0.2,0.2,0.4c-0.7-0.3-0.2,0-0.9-0.3c-0.3,0.1,0.6,0.4,0.4,0.7
						c-0.2,0-0.4,0-0.5,0c0.2,0.1,0.8,0.3,0.2,0.3l0.5,0.1c-0.3,0.1-0.2,0.4-0.8,0.4l0.9,0.4c-1,0-0.3,0.6,0.5,1.1
						c-0.1,0.1-0.3,0.2-0.5,0.1c-0.1,0-0.2-0.1-0.3-0.2c-0.1,0.1-0.7,0.1,0.1,0.5c0.2,0.2-0.6-0.1-0.7,0c0.9,0.7-1.1,0.5,0.4,1.3
						c0.1-0.1,0.5-0.2,0.5-0.5c0.2,0.1,0.5,0.2,0.5,0.3c0,0.3-0.7,0.1-0.5,0.5l-1-0.5c-0.6,0-0.3,0.2-0.2,0.6
						C21.2,20.5,21.2,20.9,20.6,20.4z"/>
					<path class="st4" d="M21.9,17.7l-0.6,0l0.5,0.1C21.7,17.7,21.7,17.7,21.9,17.7z"/>
					<path class="st4" d="M21.8,17.8c0,0.1,0.1,0.1,0.2,0.2c0,0,0-0.1-0.1-0.1L21.8,17.8z"/>
					<path class="st4" d="M20.2,20.9c-0.1,0-0.1-0.1-0.2,0.1C20.1,21.1,20.2,21.1,20.2,20.9z"/>
					<path class="st4" d="M20.2,21.3l0.2,0.1l0-0.1C20.2,21.3,20.2,21.3,20.2,21.3z"/>
					<path class="st4" d="M15.3,23.5l0.1,0.7c-0.2-0.2-0.3,0.3-0.6-0.2c0.3,0.8-0.6,0.4,0.1,1.3c0.5-0.5,1-0.8,1.4-1.1
						c0.4-0.3,0.7-0.6,0.8-1.2c0,0.2,0,0.3,0.1,0.5c0-0.5,0.2-0.3,0.3-0.2c0.1,0.1,0.1,0.1,0.2-0.8l0,0.9c0.1,0.2,0.4-1.3,0.6-0.3
						l0-0.4c0.1,0,0.1,0.2,0.2,0.2l0-0.2c0.2-0.4,0.3-0.3,0.5,0c0,0.3-0.1,0.1-0.2,0.2c0.1,0.3,0.3-0.3,0.5-0.3c0.2,0.3,0,0.4,0,0.5
						c0.3-0.2,0.5-0.1,0.8-0.1c0.2,0,0.4-0.2,0.3-0.9c-0.1-0.2-0.3-0.4-0.2-0.6c-0.4-0.3-0.4,0.2-0.7,0.6l0.1,0
						c0,0.7-0.1,0.6-0.2,0.4c-0.1-0.2-0.2-0.4-0.4-0.2c0.1-0.5,0.3-0.5,0.3-0.8c-0.3-1-0.6,0.7-0.8-0.6l0,0c0-0.1-0.2,0.1-0.3,0.2
						c0,0.2,0.1,0.3,0.1,0.4c-0.1,0.1-0.2,0.7-0.2,0.9c-0.1-0.6-0.1,0.3-0.2,0c0-0.5,0.1-0.5,0.2-0.8c-0.1,0.1-0.1,0.2-0.2,0.4
						c-0.2,0-0.1-0.6-0.2-0.9c-0.1,0.4,0.1,0.3,0,0.9c-0.1-0.3-0.3-0.4-0.6-0.4c-0.2,0.1-0.4,0.4-0.5,0.7c0.1-0.1-0.2-0.5,0-0.5
						c-0.1-0.1-0.2,0.2,0,0.6c0,0.4-0.4,0.3-0.8,0.1l0.3,0.3c0.2,0.7-0.7-0.2-0.7,0.4l0,0c0,0.1,0.5,1,0.2,1
						C15.5,24,15.6,23.9,15.3,23.5z"/>
					<path class="st4" d="M14.6,25.1c0-0.2-0.1-0.4-0.1-0.6c-0.2,0-0.1,0.7,0.1,1.1c0.1-0.2,0.4,0,0.2-0.3
						C14.7,25.2,14.6,25,14.6,25.1z"/>
					<path class="st4" d="M11,25.5c-0.1,0.1-0.2,0.3-0.3,0.5c0.4,0.1,1,0.2,1.4,0.2c0.4,0,0.8,0,1,0.2c0.3,0.1,0.2-0.7,0.5-1
						c0.1,0.2,0.2,0.4,0.3,0.5c0.1-0.4,0.8,0,0.3-0.8c0-0.1,0,0.5-0.2,0.4l-0.1-0.3c-0.1,0.1-0.2,0.1-0.3,0.2l0-0.4
						c-0.5-0.5,0,1.3-0.7,1L12.8,25c-0.3,0-0.5,0.3-0.8-0.3c0,0,0,0.4,0,0.3c0.1,0,0.1,0.4,0.1,0.6c-0.7,0.6,0.1-0.5-0.2-0.9
						c-0.3,0.3-0.7,0.4-1,0.4c-0.4,0-0.6-0.3-0.5-0.6c-0.1,0.6-0.7,0.8-0.9,0.5c0.1-0.3,0.4-0.3,0.6-0.5c0-0.2,0-0.4-0.1-0.4
						c-0.2,0.5-0.6,0.9-1.1,0.8c0.1,0.5,0.6,0.6,1,0.6C10.3,25.5,10.7,25.3,11,25.5z"/>
					<path class="st4" d="M10.6,26.1c0.1,0,0.1,0,0.2-0.1c-0.1,0-0.2-0.1-0.3-0.1L10.6,26.1z"/>
				</g>
			</g>
		</g>
	</g>
</g>
</svg>
